<?xml version="1.0" encoding="utf-8"?>
<!-- Generator: Adobe Illustrator 16.0.0, SVG Export Plug-In . SVG Version: 6.00 Build 0)  -->
<!DOCTYPE svg PUBLIC "-//W3C//DTD SVG 1.1//EN" "http://www.w3.org/Graphics/SVG/1.1/DTD/svg11.dtd">
<svg version="1.1" xmlns="http://www.w3.org/2000/svg" xmlns:xlink="http://www.w3.org/1999/xlink" x="0px" y="0px" width="32px"
	 height="32px" viewBox="0 0 32 32" enable-background="new 0 0 32 32" xml:space="preserve">
<g id="projeto">
	<path fill="#00A69C" d="M15.967,1C8.862,1,2.698,6.033,1.377,13.014c-0.063,0.439-0.127,0.818-0.189,1.195
		c-0.063,0.564-0.125,1.193-0.125,1.824c0,3.658,1.289,7.049,3.615,9.775c-0.707,0.811-1.561,1.459-2.531,1.918
		c-0.242,0.063-0.453,0.219-0.582,0.445C1.25,28.674,1.44,29.24,1.879,29.49c1.447,0.818,3.082,1.26,4.717,1.26
		c1.342,0,2.633-0.25,3.83-0.789C12.198,30.67,14.028,31,15.967,31c8.303,0,14.971-6.729,14.971-15.031
		C30.938,7.73,24.208,1,15.967,1z"/>
</g>
<g id="Layer_5">
</g>
<g id="cores">
</g>
</svg>
