<?xml version="1.0" encoding="utf-8"?>
<!-- Generator: Adobe Illustrator 16.0.0, SVG Export Plug-In . SVG Version: 6.00 Build 0)  -->
<!DOCTYPE svg PUBLIC "-//W3C//DTD SVG 1.1//EN" "http://www.w3.org/Graphics/SVG/1.1/DTD/svg11.dtd">
<svg version="1.1" xmlns="http://www.w3.org/2000/svg" xmlns:xlink="http://www.w3.org/1999/xlink" x="0px" y="0px" width="54px"
	 height="54px" viewBox="0 0 54 54" enable-background="new 0 0 54 54" xml:space="preserve">
<g id="projeto">
	<g>
		<circle fill="#12AAB1" cx="27" cy="27" r="26.5"/>
		<path fill="#FFFFFF" d="M43.729,16.406H42.37v-1.632c0-0.319-0.197-0.607-0.5-0.719c-6.571-2.461-11.238-2.965-13.876-1.499
			c-0.428,0.237-0.749,0.502-0.995,0.762c-0.249-0.26-0.571-0.524-0.997-0.762c-2.638-1.466-7.307-0.962-13.875,1.499
			c-0.303,0.111-0.501,0.399-0.501,0.719v1.632h-1.358c-0.424,0-0.768,0.348-0.768,0.771v21.758c0,0.423,0.343,0.768,0.768,0.768
			h13.806v0.712c0,0.425,0.344,0.766,0.77,0.766h4.307c0.424,0,0.769-0.341,0.769-0.766v-0.712h13.809
			c0.423,0,0.768-0.345,0.768-0.768V17.178C44.497,16.754,44.152,16.406,43.729,16.406L43.729,16.406z M27.765,14.887
			c0.064-0.162,0.305-0.641,1.061-1.034c1.246-0.646,4.447-1.294,12.005,1.456V34.87c-6.022-2.129-10.339-2.509-12.836-1.12
			c-0.079,0.044-0.156,0.089-0.229,0.133V14.887z M13.162,15.309c7.563-2.75,10.763-2.102,12.009-1.456
			c0.754,0.394,0.997,0.872,1.059,1.034v18.996c-0.073-0.044-0.148-0.089-0.228-0.133c-2.498-1.389-6.814-1.009-12.84,1.122V15.309z
			 M24.075,38.031v0.133H11.037V17.945h0.59V35.97c0,0.421,0.343,0.766,0.77,0.766c0.096,0,0.187-0.02,0.275-0.05H12.67
			c7.915-2.965,11.229-2.299,12.501-1.638c0.446,0.229,0.71,0.494,0.866,0.702C24.897,36.076,24.075,36.975,24.075,38.031
			L24.075,38.031z M28.382,39.644h-2.768v-1.612c0-0.414,0.567-0.881,1.385-0.881c0.816,0,1.383,0.467,1.383,0.881V39.644z
			 M42.96,38.164H29.921v-0.133c0-1.057-0.823-1.955-1.965-2.281c0.158-0.208,0.422-0.473,0.87-0.702
			c1.271-0.661,4.584-1.327,12.495,1.634c0.004,0.004,0.156,0.054,0.283,0.054c0.422,0,0.766-0.345,0.766-0.766V17.945h0.59V38.164z
			 M42.96,38.164"/>
	</g>
</g>
<g id="Layer_5">
</g>
<g id="cores">
</g>
</svg>
