<?xml version="1.0" encoding="utf-8"?>
<!-- Generator: Adobe Illustrator 16.0.0, SVG Export Plug-In . SVG Version: 6.00 Build 0)  -->
<!DOCTYPE svg PUBLIC "-//W3C//DTD SVG 1.1//EN" "http://www.w3.org/Graphics/SVG/1.1/DTD/svg11.dtd">
<svg version="1.1" xmlns="http://www.w3.org/2000/svg" xmlns:xlink="http://www.w3.org/1999/xlink" x="0px" y="0px" width="34px"
	 height="33px" viewBox="0 0 34 33" enable-background="new 0 0 34 33" xml:space="preserve">
<g id="projeto">
	<g>
		<path fill="#5E5F5F" d="M25.776,32.25L25.776,32.25c-0.396,0-0.791-0.11-1.144-0.317l-7.25-4.26
			c-0.23-0.133-0.531-0.136-0.771,0.003l-7.241,4.257c-0.956,0.563-2.229,0.303-2.907-0.555c-0.427-0.541-0.58-1.237-0.419-1.91
			l1.968-8.076c0.06-0.273-0.024-0.539-0.241-0.731l-6.553-5.754c-0.682-0.611-0.925-1.525-0.641-2.391
			c0.282-0.86,1.015-1.448,1.911-1.534l8.694-0.825c0.285-0.024,0.527-0.199,0.621-0.443l3.092-7.563
			c0.341-0.849,1.157-1.4,2.078-1.4c0.922,0,1.738,0.552,2.08,1.406l3.11,7.539c0.111,0.261,0.344,0.437,0.618,0.461l8.702,0.824
			c0.901,0.087,1.641,0.679,1.931,1.543c0.288,0.857,0.06,1.766-0.597,2.371l-6.567,5.768c-0.217,0.191-0.302,0.455-0.236,0.741
			l1.942,8.063c0.159,0.691,0.003,1.392-0.426,1.93C27.105,31.931,26.449,32.25,25.776,32.25z M17,26.07
			c0.396,0,0.79,0.105,1.138,0.307l7.255,4.263c0.335,0.197,0.736,0.109,0.966-0.179c0.103-0.129,0.21-0.346,0.14-0.651
			l-1.943-8.064c-0.188-0.83,0.076-1.651,0.705-2.208l6.557-5.758c0.311-0.286,0.215-0.669,0.178-0.778
			c-0.037-0.112-0.196-0.483-0.651-0.527l-8.698-0.823c-0.816-0.074-1.532-0.601-1.862-1.374l-3.117-7.556
			c-0.175-0.438-0.572-0.471-0.69-0.471c-0.117,0-0.516,0.033-0.688,0.464l-3.088,7.552c-0.291,0.76-1.031,1.31-1.878,1.385
			l-8.689,0.824c-0.442,0.042-0.593,0.4-0.629,0.509c-0.036,0.111-0.129,0.496,0.212,0.801l6.549,5.751
			c0.626,0.554,0.891,1.374,0.71,2.195l-1.971,8.089c-0.068,0.287,0.037,0.501,0.138,0.629c0.232,0.292,0.636,0.388,0.971,0.191
			l7.246-4.26C16.21,26.176,16.604,26.07,17,26.07z"/>
	</g>
</g>
<g id="Layer_5">
</g>
<g id="cores">
</g>
</svg>
