<?xml version="1.0" encoding="utf-8"?>
<!-- Generator: Adobe Illustrator 16.0.0, SVG Export Plug-In . SVG Version: 6.00 Build 0)  -->
<!DOCTYPE svg PUBLIC "-//W3C//DTD SVG 1.1//EN" "http://www.w3.org/Graphics/SVG/1.1/DTD/svg11.dtd">
<svg version="1.1" xmlns="http://www.w3.org/2000/svg" xmlns:xlink="http://www.w3.org/1999/xlink" x="0px" y="0px" width="28px"
	 height="28px" viewBox="0 0 28 28" enable-background="new 0 0 28 28" xml:space="preserve">
<g id="projeto">
	<path fill="#FFFFFF" d="M14,1.5C7.097,1.5,1.5,7.096,1.5,14S7.097,26.5,14,26.5c6.904,0,12.5-5.596,12.5-12.5S20.904,1.5,14,1.5z
		 M20.061,17.939c0.586,0.586,0.586,1.535,0,2.121C19.768,20.354,19.385,20.5,19,20.5c-0.383,0-0.768-0.146-1.061-0.439
		l-3.938-3.939l-3.939,3.939C9.769,20.354,9.385,20.5,9.001,20.5s-0.768-0.146-1.061-0.439c-0.586-0.586-0.586-1.535,0-2.121
		L11.88,14l-3.938-3.939c-0.586-0.586-0.586-1.535,0-2.121s1.535-0.586,2.121,0l3.938,3.939l3.938-3.939
		c0.586-0.586,1.535-0.586,2.121,0s0.586,1.535,0,2.121L16.122,14L20.061,17.939z"/>
</g>
<g id="Layer_5">
</g>
<g id="cores">
</g>
</svg>
