<?xml version="1.0" encoding="utf-8"?>
<!-- Generator: Adobe Illustrator 16.0.0, SVG Export Plug-In . SVG Version: 6.00 Build 0)  -->
<!DOCTYPE svg PUBLIC "-//W3C//DTD SVG 1.1//EN" "http://www.w3.org/Graphics/SVG/1.1/DTD/svg11.dtd">
<svg version="1.1" xmlns="http://www.w3.org/2000/svg" xmlns:xlink="http://www.w3.org/1999/xlink" x="0px" y="0px" width="138px"
	 height="38px" viewBox="0 0 138 38" enable-background="new 0 0 138 38" xml:space="preserve">
<g id="projeto">
	<g>
		<g id="Simbolo_3_">
			<path fill="#FFFFFF" d="M20.46,33.109c-8.423,0-15.136-6.43-15.136-15.372H1.44c0,10.86,8.577,19.234,19.02,19.234
				c10.444,0,18.912-8.374,18.912-19.234h-3.875C35.497,26.68,28.883,33.109,20.46,33.109z"/>
			<path fill="#FFFFFF" d="M1.224,15.819V1.046c0,0,3.833-0.454,3.833,3.315v11.458H1.224z"/>
			<path fill="#FFFFFF" d="M39.551,15.819V1.046c0,0-3.831-0.454-3.831,3.315v11.458H39.551z"/>
			<path fill="#FFFFFF" d="M23.105,4.96h-5.699c-0.633,0-0.851,0.479-0.851,1.111v0.677v0.674v5.206h7.665V7.422V6.748V6.071
				C24.221,5.439,23.737,4.96,23.105,4.96z"/>
			<path fill="#FFFFFF" d="M23.105,29.236h-5.699c-0.633,0-0.851-0.736-0.851-1.371v-0.676v-0.675V21.57h7.665v4.944v0.675v0.676
				C24.221,28.5,23.737,29.236,23.105,29.236z"/>
			<path fill="#FFFFFF" d="M8.249,13.266h7.878l7.485,7.025H10.146c0,0-1.896,0.271-1.896-2.161
				C8.249,15.701,8.249,13.266,8.249,13.266z"/>
			<polygon fill="#FFFFFF" points="16.973,13.266 19.805,16.023 22.601,13.266 			"/>
			<path fill="#FFFFFF" d="M32.525,20.291h-8.124l-1.107-0.91l2.231-2.185l-0.206-0.15l-2.195,2.27l-0.279-0.235l2.498-2.494
				l-0.167-0.197l-2.575,2.492l-0.21-0.268l2.715-2.736l-2.505-2.611h7.808c0,0,2.117,0.018,2.117,2.353
				C32.525,17.954,32.525,20.291,32.525,20.291z"/>
		</g>
		<g>
			<path fill="#FFFFFF" d="M57.399,4.96h-1.425c0,0-1.731-0.036-1.731,1.86v8.423c0,0,0.24,3.151-3.513,3.151
				c-3.754,0-3.512-3.151-3.512-3.151V6.82c0-1.896-2.052-1.86-2.052-1.86h-1.423c0,0-0.038,9.606,0,10.149
				c0.036,0.545-0.189,2.102,1.537,4.054c1.725,1.951,5.291,1.79,5.291,1.79s3.563,0.134,5.29-1.818
				c1.724-1.951,1.499-3.477,1.537-4.02C57.436,14.572,57.399,4.96,57.399,4.96z"/>
			<path fill="#FFFFFF" d="M72.77,5.313c0,0,0.136,0.079,0.132,0.081c-0.003-0.322,0.142-0.435,0.142-0.435h-1.426
				c0,0-2.042-0.036-2.042,1.86v8.423c0,0,0,0.008,0,0.021c0,0.09,0,0.179,0,0.266c0,0.019,0,0.036,0,0.058v0.341l-5.292-9.804
				C63.65,4.949,62.857,4.96,62.857,4.96h-0.369h-1.057c0,0-2.076-0.036-2.076,1.86v8.423c0,0,0,0.008,0,0.021
				c0,0.09,0,0.179,0,0.266c0,0.019,0,0.036,0,0.058v4.764c0-0.002,0.074-0.007,0.076-0.011c0.002,0.322,0.065,0.59,0.065,0.59
				h1.428c0,0,1.623-0.191,2.262-2.085v-8.423c0,0,0-0.009,0-0.023c0-0.087,0-0.174,0-0.266c0-0.017,0-0.034,0-0.053V9.792
				c0,0,4.734,8.974,5.283,10.014c0.548,1.041,1.214,1.124,1.214,1.124h0.856h0.57c0,0,1.659,0.176,1.659-2.085v-8.423
				c0,0,0-0.009,0-0.023c0-0.087,0-0.174,0-0.266c0-0.017,0-0.034,0-0.053V5.313z"/>
			<path fill="#FFFFFF" d="M85.67,6.614c0,0-0.648-1.801-2.647-1.801c-1.995,0-2.587,1.705-2.587,1.705l-5.31,14.424l3.359,0.121
				l1.163-3.326h6.34l1.182,3.312l3.489-0.045L85.67,6.614z M80.528,15.182l2.365-6.792l2.25,6.792H80.528z"/>
			<path fill="#FFFFFF" d="M89.327,11.989h3.848c0,0,1.573-0.639,2.25,2.554h-3.94C91.484,14.543,90.004,14.543,89.327,11.989z"/>
			<path fill="#FFFFFF" d="M96.662,18.376h5.487c0,0,1.546,0.038,1.546-1.746c0-1.781-2.062-1.949-2.662-2.1
				c-0.6-0.15-4.221-0.478-4.804-4.268C95.65,6.47,99.073,4.96,100.94,4.96c1.864,0,5.687,0,5.687,0v1.917h-3.924
				c0,0-1.483,0.121-1.483,1.527c0,1.408,1.727,1.64,1.727,1.64s2.777,0.572,3.659,1.529c0.883,0.957,1.48,2.405,1.48,3.663
				s-0.129,2.753-1.313,3.954c-1.182,1.202-2.298,1.739-4.559,1.739s-5.534,0-5.534,0L96.662,18.376z"/>
			<path fill="#FFFFFF" d="M125.354,18.376h5.487c0,0,1.546,0.038,1.546-1.746c0-1.781-2.062-1.949-2.664-2.1
				c-0.601-0.15-4.221-0.478-4.802-4.268c-0.581-3.793,2.844-5.303,4.709-5.303c1.864,0,5.741,0,5.741,0v1.917h-3.979
				c0,0-1.483,0.121-1.483,1.527c0,1.408,1.727,1.64,1.727,1.64s2.777,0.572,3.657,1.529c0.882,0.957,1.482,2.405,1.482,3.663
				s-0.129,2.753-1.313,3.954c-1.182,1.202-2.295,1.739-4.559,1.739c-2.261,0-5.534,0-5.534,0L125.354,18.376z"/>
			<path fill="#FFFFFF" d="M109.819,4.96h5.111v10.283c0,0-0.308,3.059,2.713,3.059s2.734-2.986,2.734-2.986L120.361,4.96h2.235
				v10.283c0,0,0.085,5.699-6.219,5.699c-6.302,0-6.559-5.699-6.559-5.699V4.96z"/>
			<g>
				<path fill="#FFFFFF" d="M44.262,25.257v2.698c0,1.014,0.454,1.446,1.061,1.446c0.668,0,1.107-0.445,1.107-1.446v-2.698h0.594
					v2.66c0,1.397-0.734,1.964-1.721,1.964c-0.934,0-1.635-0.526-1.635-1.945v-2.679H44.262z"/>
				<path fill="#FFFFFF" d="M48.591,27.423c0-0.344-0.007-0.615-0.025-0.883h0.525l0.034,0.532h0.013
					c0.161-0.304,0.541-0.608,1.08-0.608c0.454,0,1.156,0.271,1.156,1.392v1.951h-0.595v-1.884c0-0.526-0.197-0.972-0.757-0.972
					c-0.384,0-0.689,0.276-0.796,0.606c-0.027,0.075-0.042,0.183-0.042,0.276v1.973h-0.594V27.423z"/>
				<path fill="#FFFFFF" d="M53.195,25.938c-0.221,0-0.369-0.176-0.369-0.386c0-0.208,0.155-0.376,0.385-0.376
					c0.229,0,0.377,0.168,0.377,0.376c0,0.21-0.148,0.386-0.384,0.386H53.195z M52.913,29.807V26.54h0.595v3.267H52.913z"/>
				<path fill="#FFFFFF" d="M55.298,26.54l0.641,1.828c0.108,0.304,0.197,0.575,0.263,0.843h0.021
					c0.074-0.268,0.17-0.539,0.277-0.843l0.635-1.828h0.621l-1.283,3.267h-0.568l-1.241-3.267H55.298z"/>
				<path fill="#FFFFFF" d="M59.154,28.272c0.013,0.805,0.52,1.136,1.113,1.136c0.426,0,0.689-0.075,0.905-0.162l0.108,0.418
					c-0.21,0.096-0.575,0.21-1.095,0.21c-0.999,0-1.607-0.668-1.607-1.647c0-0.993,0.588-1.77,1.54-1.77
					c1.066,0,1.343,0.939,1.343,1.54c0,0.121-0.007,0.217-0.02,0.284L59.154,28.272z M60.889,27.849
					c0.007-0.371-0.154-0.967-0.816-0.967c-0.608,0-0.865,0.554-0.912,0.967H60.889z"/>
				<path fill="#FFFFFF" d="M62.781,27.558c0-0.386-0.009-0.714-0.027-1.018h0.52l0.027,0.641h0.019
					c0.148-0.439,0.514-0.717,0.912-0.717c0.062,0,0.108,0.006,0.161,0.021v0.552c-0.065-0.004-0.127-0.013-0.207-0.013
					c-0.42,0-0.718,0.318-0.798,0.758c-0.013,0.089-0.021,0.182-0.021,0.281v1.744h-0.594L62.781,27.558z"/>
				<path fill="#FFFFFF" d="M65.475,29.206c0.183,0.108,0.492,0.229,0.789,0.229c0.427,0,0.63-0.21,0.63-0.488
					c0-0.282-0.169-0.437-0.603-0.601c-0.594-0.214-0.869-0.532-0.869-0.924c0-0.526,0.431-0.959,1.126-0.959
					c0.331,0,0.622,0.089,0.798,0.203l-0.143,0.425c-0.127-0.074-0.364-0.189-0.668-0.189c-0.352,0-0.541,0.204-0.541,0.448
					c0,0.275,0.189,0.396,0.615,0.558c0.561,0.21,0.857,0.492,0.857,0.988c0,0.579-0.452,0.984-1.216,0.984
					c-0.358,0-0.688-0.094-0.918-0.229L65.475,29.206z"/>
				<path fill="#FFFFFF" d="M69.087,25.938c-0.223,0-0.371-0.176-0.371-0.386c0-0.208,0.155-0.376,0.386-0.376
					c0.229,0,0.378,0.168,0.378,0.376c0,0.21-0.148,0.386-0.386,0.386H69.087z M68.805,29.807V26.54h0.594v3.267H68.805z"/>
				<path fill="#FFFFFF" d="M73.781,25.013v3.949c0,0.291,0.006,0.622,0.027,0.845h-0.534l-0.027-0.568h-0.013
					c-0.183,0.364-0.575,0.643-1.107,0.643c-0.789,0-1.404-0.67-1.404-1.661c-0.007-1.095,0.675-1.756,1.466-1.756
					c0.505,0,0.844,0.235,0.984,0.494h0.015v-1.945H73.781z M73.188,27.87c0-0.083-0.009-0.179-0.027-0.257
					c-0.088-0.371-0.412-0.683-0.857-0.683c-0.615,0-0.979,0.54-0.979,1.255c0,0.669,0.33,1.216,0.965,1.216
					c0.398,0,0.764-0.27,0.872-0.711c0.019-0.08,0.027-0.161,0.027-0.254V27.87z"/>
				<path fill="#FFFFFF" d="M77.644,29.023c0,0.284,0.013,0.561,0.047,0.783h-0.532l-0.056-0.414h-0.019
					c-0.177,0.259-0.535,0.488-0.999,0.488c-0.662,0-0.999-0.465-0.999-0.938c0-0.791,0.702-1.224,1.964-1.218V27.66
					c0-0.271-0.074-0.764-0.742-0.758c-0.312,0-0.628,0.087-0.859,0.242l-0.134-0.396c0.27-0.17,0.668-0.284,1.08-0.284
					c1.005,0,1.249,0.681,1.249,1.336V29.023z M77.063,28.137c-0.646-0.013-1.383,0.104-1.383,0.736
					c0,0.393,0.257,0.568,0.554,0.568c0.431,0,0.708-0.27,0.804-0.545c0.02-0.062,0.025-0.132,0.025-0.19V28.137z"/>
				<path fill="#FFFFFF" d="M81.992,25.013v3.949c0,0.291,0.009,0.622,0.027,0.845h-0.532l-0.027-0.568h-0.016
					c-0.18,0.364-0.572,0.643-1.106,0.643c-0.789,0-1.404-0.67-1.404-1.661c-0.007-1.095,0.677-1.756,1.466-1.756
					c0.507,0,0.844,0.235,0.986,0.494h0.013v-1.945H81.992z M81.398,27.87c0-0.083-0.007-0.179-0.025-0.257
					c-0.09-0.371-0.414-0.683-0.859-0.683c-0.615,0-0.98,0.54-0.98,1.255c0,0.669,0.333,1.216,0.968,1.216
					c0.398,0,0.764-0.27,0.872-0.711c0.019-0.08,0.025-0.161,0.025-0.254V27.87z"/>
				<path fill="#FFFFFF" d="M83.891,28.272c0.015,0.805,0.52,1.136,1.115,1.136c0.425,0,0.688-0.075,0.904-0.162l0.107,0.418
					c-0.21,0.096-0.574,0.21-1.094,0.21c-0.999,0-1.606-0.668-1.606-1.647c0-0.993,0.588-1.77,1.54-1.77
					c1.067,0,1.343,0.939,1.343,1.54c0,0.121-0.006,0.217-0.019,0.284L83.891,28.272z M85.626,27.849
					c0.008-0.371-0.155-0.967-0.817-0.967c-0.606,0-0.863,0.554-0.912,0.967H85.626z"/>
				<path fill="#FFFFFF" d="M90.272,28.375L89.8,29.807h-0.608l1.546-4.55h0.711l1.553,4.55h-0.628l-0.486-1.432H90.272z
					 M91.764,27.917l-0.451-1.312c-0.094-0.297-0.161-0.566-0.229-0.829h-0.021c-0.059,0.263-0.133,0.547-0.223,0.823l-0.445,1.317
					H91.764z"/>
				<path fill="#FFFFFF" d="M94.203,25.013h0.594v2.047h0.016c0.207-0.365,0.585-0.596,1.113-0.596c0.811,0,1.377,0.677,1.377,1.66
					c0,1.176-0.743,1.757-1.473,1.757c-0.473,0-0.844-0.183-1.095-0.615h-0.013l-0.033,0.541h-0.514
					c0.021-0.223,0.027-0.554,0.027-0.845V25.013z M94.797,28.498c0,0.072,0.007,0.146,0.021,0.216
					c0.114,0.412,0.465,0.694,0.891,0.694c0.628,0,0.993-0.508,0.993-1.256c0-0.662-0.337-1.222-0.972-1.222
					c-0.405,0-0.785,0.284-0.899,0.729c-0.019,0.074-0.034,0.154-0.034,0.248V28.498z"/>
				<path fill="#FFFFFF" d="M98.965,28.272c0.014,0.805,0.521,1.136,1.114,1.136c0.424,0,0.689-0.075,0.903-0.162l0.108,0.418
					c-0.208,0.096-0.573,0.21-1.093,0.21c-1.001,0-1.607-0.668-1.607-1.647c0-0.993,0.588-1.77,1.54-1.77
					c1.066,0,1.343,0.939,1.343,1.54c0,0.121-0.007,0.217-0.02,0.284L98.965,28.272z M100.7,27.849
					c0.007-0.371-0.157-0.967-0.816-0.967c-0.608,0-0.865,0.554-0.912,0.967H100.7z"/>
				<path fill="#FFFFFF" d="M102.59,27.558c0-0.386-0.006-0.714-0.025-1.018h0.521l0.025,0.641h0.021
					c0.148-0.439,0.514-0.717,0.912-0.717c0.06,0,0.106,0.006,0.161,0.021v0.552c-0.067-0.004-0.127-0.013-0.21-0.013
					c-0.418,0-0.715,0.318-0.795,0.758c-0.015,0.089-0.021,0.182-0.021,0.281v1.744h-0.594L102.59,27.558z"/>
				<path fill="#FFFFFF" d="M106.245,25.755v0.785h0.851v0.449h-0.851v1.763c0,0.407,0.114,0.637,0.445,0.637
					c0.161,0,0.257-0.015,0.344-0.042l0.027,0.453c-0.114,0.038-0.297,0.081-0.526,0.081c-0.277,0-0.5-0.094-0.643-0.25
					c-0.161-0.183-0.229-0.472-0.229-0.857v-1.784h-0.507V26.54h0.507v-0.603L106.245,25.755z"/>
				<path fill="#FFFFFF" d="M110.64,29.023c0,0.284,0.016,0.561,0.049,0.783h-0.534l-0.053-0.414h-0.021
					c-0.176,0.259-0.532,0.488-0.999,0.488c-0.662,0-0.999-0.465-0.999-0.938c0-0.791,0.702-1.224,1.964-1.218V27.66
					c0-0.271-0.074-0.764-0.742-0.758c-0.312,0-0.628,0.087-0.857,0.242l-0.136-0.396c0.27-0.17,0.669-0.284,1.08-0.284
					c1.008,0,1.249,0.681,1.249,1.336V29.023z M110.061,28.137c-0.648-0.013-1.385,0.104-1.385,0.736
					c0,0.393,0.257,0.568,0.554,0.568c0.433,0,0.708-0.27,0.804-0.545c0.02-0.062,0.027-0.132,0.027-0.19V28.137z"/>
				<path fill="#FFFFFF" d="M116.995,25.013v3.949c0,0.291,0.006,0.622,0.027,0.845h-0.534l-0.025-0.568h-0.016
					c-0.182,0.364-0.572,0.643-1.106,0.643c-0.789,0-1.404-0.67-1.404-1.661c-0.007-1.095,0.674-1.756,1.466-1.756
					c0.507,0,0.844,0.235,0.986,0.494h0.013v-1.945H116.995z M116.401,27.87c0-0.083-0.007-0.179-0.028-0.257
					c-0.087-0.371-0.411-0.683-0.856-0.683c-0.615,0-0.98,0.54-0.98,1.255c0,0.669,0.331,1.216,0.968,1.216
					c0.396,0,0.762-0.27,0.869-0.711c0.021-0.08,0.028-0.161,0.028-0.254V27.87z"/>
				<path fill="#FFFFFF" d="M119.886,29.881c-0.878,0-1.565-0.647-1.565-1.683c0-1.092,0.722-1.734,1.619-1.734
					c0.939,0,1.573,0.681,1.573,1.673c0,1.218-0.844,1.744-1.62,1.744H119.886z M119.905,29.436c0.568,0,0.994-0.535,0.994-1.275
					c0-0.556-0.277-1.251-0.979-1.251c-0.695,0-0.999,0.648-0.999,1.271c0,0.717,0.405,1.256,0.978,1.256H119.905z"/>
				<path fill="#FFFFFF" d="M124.79,29.09c0.263,0.169,0.641,0.299,1.046,0.299c0.6,0,0.952-0.312,0.952-0.778
					c0-0.418-0.244-0.668-0.856-0.897c-0.745-0.27-1.203-0.662-1.203-1.296c0-0.711,0.588-1.236,1.472-1.236
					c0.459,0,0.805,0.107,0.999,0.225l-0.161,0.479c-0.142-0.089-0.445-0.217-0.858-0.217c-0.622,0-0.857,0.371-0.857,0.681
					c0,0.427,0.276,0.637,0.903,0.879c0.771,0.303,1.156,0.668,1.156,1.336c0,0.702-0.513,1.317-1.586,1.317
					c-0.439,0-0.919-0.136-1.163-0.297L124.79,29.09z"/>
				<path fill="#FFFFFF" d="M129.354,25.257v2.698c0,1.014,0.452,1.446,1.061,1.446c0.668,0,1.107-0.445,1.107-1.446v-2.698h0.594
					v2.66c0,1.397-0.736,1.964-1.722,1.964c-0.932,0-1.634-0.526-1.634-1.945v-2.679H129.354z"/>
				<path fill="#FFFFFF" d="M133.635,29.09c0.266,0.169,0.643,0.299,1.048,0.299c0.601,0,0.953-0.312,0.953-0.778
					c0-0.418-0.244-0.668-0.859-0.897c-0.742-0.27-1.2-0.662-1.2-1.296c0-0.711,0.587-1.236,1.472-1.236
					c0.458,0,0.804,0.107,0.999,0.225l-0.161,0.479c-0.143-0.089-0.447-0.217-0.859-0.217c-0.621,0-0.856,0.371-0.856,0.681
					c0,0.427,0.275,0.637,0.903,0.879c0.77,0.303,1.156,0.668,1.156,1.336c0,0.702-0.514,1.317-1.587,1.317
					c-0.439,0-0.918-0.136-1.162-0.297L133.635,29.09z"/>
			</g>
		</g>
	</g>
</g>
<g id="Layer_5">
</g>
<g id="cores">
</g>
</svg>
