<?xml version="1.0" encoding="utf-8"?>
<!-- Generator: Adobe Illustrator 16.0.0, SVG Export Plug-In . SVG Version: 6.00 Build 0)  -->
<!DOCTYPE svg PUBLIC "-//W3C//DTD SVG 1.1//EN" "http://www.w3.org/Graphics/SVG/1.1/DTD/svg11.dtd">
<svg version="1.1" xmlns="http://www.w3.org/2000/svg" xmlns:xlink="http://www.w3.org/1999/xlink" x="0px" y="0px" width="24px"
	 height="25px" viewBox="0 0 24 25" enable-background="new 0 0 24 25" xml:space="preserve">
<g id="projeto">
	<g>
		<g>
			<path fill="#FFFFFF" d="M12,24.017c-5.79,0-10.5-4.71-10.5-10.5c0-0.828,0.671-1.5,1.5-1.5s1.5,0.672,1.5,1.5
				c0,4.136,3.364,7.5,7.5,7.5s7.5-3.364,7.5-7.5c0-3.797-2.839-6.998-6.603-7.446c-0.823-0.098-1.41-0.844-1.312-1.666
				c0.098-0.823,0.846-1.421,1.667-1.313C18.524,3.719,22.5,8.201,22.5,13.517C22.5,19.307,17.79,24.017,12,24.017z"/>
		</g>
		<g>
			<polygon fill="#FFFFFF" points="14.703,8.394 7.781,5.565 13.691,0.983 			"/>
		</g>
	</g>
</g>
<g id="Layer_5">
</g>
<g id="cores">
</g>
</svg>
