<?xml version="1.0" encoding="utf-8"?>
<!-- Generator: Adobe Illustrator 16.0.0, SVG Export Plug-In . SVG Version: 6.00 Build 0)  -->
<!DOCTYPE svg PUBLIC "-//W3C//DTD SVG 1.1//EN" "http://www.w3.org/Graphics/SVG/1.1/DTD/svg11.dtd">
<svg version="1.1" xmlns="http://www.w3.org/2000/svg" xmlns:xlink="http://www.w3.org/1999/xlink" x="0px" y="0px" width="28px"
	 height="33px" viewBox="0 0 28 33" enable-background="new 0 0 28 33" xml:space="preserve">
<g id="projeto">
	<g>
		<g>
			<path fill="#5E5F5F" d="M14,32C6.975,32,1.26,26.285,1.26,19.26c0-0.445,0.022-0.884,0.066-1.305
				c0.057-0.549,0.542-0.938,1.098-0.892c0.549,0.058,0.948,0.549,0.891,1.099c-0.038,0.36-0.055,0.727-0.055,1.098
				C3.26,25.182,8.078,30,14,30s10.74-4.818,10.74-10.74c0-5.923-4.818-10.742-10.74-10.742c-0.674,0-1.354,0.063-2.022,0.189
				c-0.539,0.104-1.065-0.255-1.168-0.797c-0.102-0.543,0.255-1.065,0.798-1.168c0.79-0.149,1.594-0.225,2.392-0.225
				c7.025,0,12.74,5.716,12.74,12.742C26.74,26.285,21.025,32,14,32z"/>
		</g>
		<g>
			<polygon fill="#5E5F5F" points="14.809,7.977 14.809,14.951 5.105,7.977 14.809,1 			"/>
		</g>
	</g>
</g>
<g id="Layer_5">
</g>
<g id="cores">
</g>
</svg>
