<?xml version="1.0" encoding="utf-8"?>
<!-- Generator: Adobe Illustrator 16.0.0, SVG Export Plug-In . SVG Version: 6.00 Build 0)  -->
<!DOCTYPE svg PUBLIC "-//W3C//DTD SVG 1.1//EN" "http://www.w3.org/Graphics/SVG/1.1/DTD/svg11.dtd">
<svg version="1.1" xmlns="http://www.w3.org/2000/svg" xmlns:xlink="http://www.w3.org/1999/xlink" x="0px" y="0px" width="32px"
	 height="32px" viewBox="0 0 32 32" enable-background="new 0 0 32 32" xml:space="preserve">
<g id="projeto">
	<path fill="#FFFFFF" d="M15.999,1C7.716,1,1.001,7.717,1.001,16s6.715,15,14.998,15c8.285,0,15-6.717,15-15S24.284,1,15.999,1z
		 M18.257,6.045l-0.535,13.502h-3.498L13.716,6.045H18.257z M17.812,25.314c-0.461,0.43-1.061,0.643-1.797,0.643
		c-0.73,0-1.332-0.219-1.807-0.662c-0.473-0.441-0.709-0.977-0.709-1.607c0-0.654,0.238-1.191,0.719-1.611
		c0.477-0.42,1.076-0.631,1.797-0.631c0.729,0,1.324,0.213,1.791,0.639c0.463,0.422,0.695,0.957,0.695,1.604
		C18.501,24.344,18.271,24.889,17.812,25.314z"/>
</g>
<g id="Layer_5">
</g>
<g id="cores">
</g>
</svg>
