<?xml version="1.0" encoding="utf-8"?>
<!-- Generator: Adobe Illustrator 16.0.0, SVG Export Plug-In . SVG Version: 6.00 Build 0)  -->
<!DOCTYPE svg PUBLIC "-//W3C//DTD SVG 1.1//EN" "http://www.w3.org/Graphics/SVG/1.1/DTD/svg11.dtd">
<svg version="1.1" xmlns="http://www.w3.org/2000/svg" xmlns:xlink="http://www.w3.org/1999/xlink" x="0px" y="0px" width="20px"
	 height="19.111px" viewBox="0 0 20 19.111" enable-background="new 0 0 20 19.111" xml:space="preserve">
<g id="projeto">
	<path fill="none" stroke="#F69220" stroke-width="2" stroke-miterlimit="10" d="M17.444,7.092l-4.491-0.426
		C12.67,6.641,12.425,6.461,12.31,6.19l-1.608-3.897c-0.257-0.645-1.171-0.645-1.429,0L7.678,6.19
		c-0.104,0.271-0.36,0.45-0.645,0.476L2.544,7.092c-0.669,0.064-0.939,0.9-0.438,1.35l3.384,2.973
		c0.219,0.193,0.308,0.477,0.244,0.76l-1.016,4.168c-0.155,0.656,0.553,1.197,1.145,0.85l3.743-2.199
		c0.246-0.143,0.541-0.143,0.786,0l3.744,2.199c0.592,0.348,1.299-0.18,1.145-0.85l-1.003-4.168
		c-0.064-0.283,0.025-0.566,0.244-0.76l3.384-2.973C18.395,7.992,18.113,7.156,17.444,7.092L17.444,7.092z M17.444,7.092"/>
</g>
<g id="Layer_5">
</g>
<g id="cores">
</g>
</svg>
