<?xml version="1.0" encoding="utf-8"?>
<!-- Generator: Adobe Illustrator 16.0.0, SVG Export Plug-In . SVG Version: 6.00 Build 0)  -->
<!DOCTYPE svg PUBLIC "-//W3C//DTD SVG 1.1//EN" "http://www.w3.org/Graphics/SVG/1.1/DTD/svg11.dtd">
<svg version="1.1" xmlns="http://www.w3.org/2000/svg" xmlns:xlink="http://www.w3.org/1999/xlink" x="0px" y="0px" width="294px"
	 height="54px" viewBox="0 0 294 54" enable-background="new 0 0 294 54" xml:space="preserve">
<g id="projeto">
</g>
<g id="Layer_5">
</g>
<g id="cores">
	<g>
		<g>
			<g>
				<path fill="#FFFFFF" d="M15.234,13.833c-2.312,0.784-4.193,1.416-5.646,1.894c-1.45,0.48-2.617,0.862-3.501,1.147
					c-0.885,0.283-1.563,0.48-2.037,0.587c-0.478,0.11-0.897,0.165-1.261,0.165c-1.086,0-1.632-0.264-1.632-0.785
					c0-0.304,0.158-0.654,0.474-1.048c0.318-0.392,0.671-0.762,1.056-1.112c0.385-0.348,0.759-0.65,1.122-0.912
					c0.362-0.264,0.612-0.417,0.749-0.46c1.858-1.22,3.897-2.279,6.118-3.171c2.222-0.895,4.524-1.637,6.904-2.225
					s4.804-1.033,7.273-1.34c2.474-0.305,4.908-0.459,7.311-0.459c1.449,0,2.971,0.067,4.558,0.197
					c1.584,0.131,3.104,0.283,4.554,0.455c1.225,0.177,2.596,0.417,4.117,0.721c1.518,0.307,3.067,0.698,4.655,1.179
					c1.586,0.478,3.126,1.058,4.624,1.731c1.497,0.676,2.832,1.472,4.011,2.387c1.182,0.918,2.118,1.975,2.822,3.174
					c0.703,1.199,1.056,2.537,1.056,4.023c0,2.134-0.604,4.02-1.804,5.654c-1.2,1.637-2.753,3.041-4.655,4.221
					c-1.904,1.175-4.048,2.177-6.429,3.006c-2.38,0.828-4.758,1.514-7.139,2.059s-4.646,0.982-6.801,1.309
					c-2.153,0.327-3.934,0.579-5.336,0.753c-0.048,1.35-0.149,2.942-0.308,4.772c-0.158,1.834-0.374,3.577-0.646,5.233
					c-0.271,1.656-0.611,3.062-1.019,4.22c-0.407,1.152-0.906,1.731-1.495,1.731c-0.365,0-0.658-0.351-0.885-1.046
					c-0.636-1.569-1.01-3.489-1.123-5.756c-0.113-2.266-0.168-5.077-0.168-8.437c-1.996,0.22-3.958,0.414-5.883,0.591
					c-1.929,0.17-3.843,0.348-5.747,0.521c-0.044-0.044-0.35-0.044-0.917,0c-0.565,0.043-1.28,0.098-2.142,0.164
					c-0.862,0.064-1.779,0.119-2.754,0.162c-0.977,0.044-1.88,0.044-2.719,0c-0.84-0.043-1.541-0.152-2.108-0.326
					c-0.568-0.174-0.854-0.435-0.854-0.785s0.534-0.675,1.599-0.982c1.066-0.304,2.313-0.564,3.741-0.784
					c1.43-0.218,2.822-0.392,4.183-0.521c1.359-0.134,2.355-0.24,2.992-0.327c1.722-0.087,3.468-0.252,5.235-0.492
					c1.769-0.24,3.58-0.49,5.439-0.75c0.136-0.351,0.237-0.959,0.308-1.834c0.068-0.871,0.146-1.85,0.235-2.941
					c0.091-1.089,0.193-2.213,0.308-3.365c0.112-1.155,0.26-2.215,0.442-3.174c0.181-0.959,0.416-1.752,0.713-2.387
					c0.294-0.631,0.692-0.949,1.191-0.949c0.994,0,1.767,0.264,2.312,0.784c0.543,0.524,0.918,1.202,1.123,2.03
					c0.201,0.825,0.294,1.744,0.27,2.745c-0.022,1.003-0.101,2.017-0.237,3.041c-0.137,1.025-0.295,1.983-0.478,2.876
					c-0.181,0.897-0.293,1.627-0.338,2.191c0.996-0.129,2.367-0.338,4.112-0.622s3.617-0.651,5.612-1.108
					c1.995-0.461,4.01-1.018,6.05-1.669c2.039-0.654,3.887-1.438,5.543-2.354c1.654-0.918,3.002-1.951,4.045-3.107
					c1.042-1.155,1.563-2.473,1.563-3.955c0-1.176-0.418-2.213-1.258-3.107c-0.838-0.893-1.938-1.678-3.297-2.355
					c-1.361-0.672-2.912-1.238-4.658-1.699c-1.746-0.457-3.535-0.828-5.37-1.111c-1.837-0.285-3.651-0.479-5.441-0.589
					c-1.793-0.106-3.391-0.162-4.793-0.162c-2.993,0-5.951,0.229-8.874,0.687C20.979,12.491,18.091,13.091,15.234,13.833z"/>
				<path fill="#FFFFFF" d="M65.555,45.612c-1.68,0-3.016-0.414-4.014-1.239c-0.998-0.828-1.689-1.854-2.074-3.075
					c-0.385-1.219-0.497-2.551-0.341-3.988c0.161-1.439,0.546-2.756,1.156-3.958c0.612-1.199,1.417-2.192,2.415-2.975
					c0.997-0.784,2.176-1.135,3.535-1.045c1.588,0.087,2.879,0.544,3.877,1.372c0.997,0.828,1.722,1.854,2.176,3.072
					c0.453,1.223,0.646,2.518,0.578,3.893c-0.066,1.373-0.398,2.646-0.987,3.826c-0.588,1.178-1.417,2.157-2.481,2.941
					C68.328,45.222,67.05,45.612,65.555,45.612z M66.438,42.673c0.499,0.044,0.905-0.188,1.225-0.686
					c0.316-0.504,0.543-1.156,0.68-1.964c0.136-0.808,0.191-1.691,0.169-2.647c-0.024-0.961-0.136-1.855-0.341-2.684
					c-0.202-0.826-0.488-1.526-0.85-2.092c-0.363-0.567-0.791-0.851-1.291-0.851c-0.453,0-0.84,0.261-1.156,0.784
					c-0.316,0.525-0.555,1.179-0.715,1.964c-0.158,0.785-0.237,1.646-0.237,2.581c0,0.938,0.09,1.813,0.271,2.617
					c0.183,0.805,0.453,1.494,0.817,2.059C65.373,42.323,65.848,42.627,66.438,42.673z"/>
				<path fill="#FFFFFF" d="M85.816,35.87c-0.365,0.481-0.817,0.872-1.36,1.176c-0.543,0.308-1.133,0.557-1.767,0.754
					c-0.636,0.196-1.284,0.339-1.938,0.425c-0.659,0.087-1.236,0.154-1.737,0.197c-0.135,0.912-0.216,1.808-0.235,2.682
					c-0.022,0.872,0.02,1.656,0.136,2.354c0.11,0.698,0.293,1.283,0.542,1.764c0.25,0.48,0.602,0.785,1.056,0.916
					c0.589,0.173,1.223,0.077,1.904-0.293c0.68-0.371,1.335-0.883,1.971-1.538c0.636-0.654,1.247-1.419,1.836-2.288
					c0.59-0.871,1.111-1.711,1.564-2.52c0.453-0.805,0.838-1.546,1.156-2.221c0.316-0.678,0.521-1.168,0.612-1.471
					c0.136-0.395,0.351-0.658,0.644-0.785c0.297-0.134,0.581-0.177,0.852-0.134c0.272,0.046,0.498,0.186,0.68,0.426
					s0.226,0.556,0.138,0.947c-0.093,0.264-0.248,0.776-0.478,1.538c-0.227,0.762-0.556,1.624-0.986,2.58
					c-0.432,0.961-0.95,1.955-1.564,2.977c-0.611,1.025-1.348,1.964-2.21,2.813c-0.86,0.852-1.848,1.561-2.956,2.125
					c-1.112,0.568-2.347,0.852-3.706,0.852c-1.632,0-2.902-0.544-3.809-1.637c-0.906-1.088-1.519-2.461-1.837-4.117
					c-0.313-1.656-0.371-3.435-0.169-5.328c0.205-1.9,0.613-3.676,1.225-5.332s1.382-3.029,2.312-4.121
					c0.928-1.089,1.959-1.633,3.095-1.633c1.086,0,2.05,0.359,2.89,1.08c0.84,0.719,1.482,1.558,1.938,2.517
					c0.451,0.958,0.715,1.94,0.781,2.942C86.462,34.519,86.271,35.303,85.816,35.87z M81.601,30.05
					c-0.318,0.131-0.657,0.687-1.021,1.668c-0.363,0.982-0.704,2.169-1.02,3.565c0.498,0,0.996-0.056,1.495-0.165
					c0.497-0.107,0.862-0.336,1.088-0.688c0.183-0.26,0.295-0.643,0.341-1.143c0.044-0.502,0.034-1.014-0.034-1.538
					c-0.066-0.524-0.183-0.956-0.341-1.31C81.951,30.097,81.779,29.963,81.601,30.05z"/>
				<path fill="#FFFFFF" d="M89.76,31.816c0.179-0.962,0.611-1.712,1.291-2.256c0.678-0.544,1.368-0.918,2.072-1.112
					c0.703-0.197,1.315-0.217,1.838-0.066c0.52,0.156,0.713,0.489,0.577,1.014c-0.135,0.611-0.296,1.439-0.476,2.488
					c-0.181,1.045-0.341,2.113-0.477,3.202c-0.137,1.089-0.249,2.126-0.34,3.107c-0.09,0.979-0.138,1.688-0.138,2.122
					c0.183-0.607,0.409-1.242,0.681-1.894c0.273-0.654,0.558-1.298,0.85-1.929c0.297-0.635,0.601-1.21,0.92-1.734
					c0.315-0.521,0.61-0.938,0.884-1.242c0.316-0.435,0.803-0.773,1.463-1.014c0.655-0.24,1.269-0.359,1.834-0.359
					c0.566,0,1.031,0.153,1.395,0.457c0.362,0.305,0.431,0.742,0.204,1.307c-0.091,0.264-0.181,0.765-0.273,1.506
					c-0.09,0.742-0.179,1.549-0.27,2.418c0.27-0.607,0.634-1.285,1.088-2.023c0.453-0.742,0.904-1.451,1.359-2.126
					c0.453-0.679,0.873-1.301,1.258-1.865c0.385-0.567,0.69-0.981,0.917-1.242c0.316-0.435,0.794-0.796,1.43-1.08
					c0.634-0.284,1.247-0.423,1.837-0.423c0.587,0,1.086,0.139,1.493,0.423c0.409,0.284,0.59,0.753,0.545,1.404
					c-0.046,0.308-0.127,0.831-0.239,1.569c-0.112,0.744-0.259,1.593-0.441,2.555c-0.182,0.959-0.35,1.96-0.509,3.006
					c-0.16,1.045-0.297,1.995-0.408,2.844c-0.113,0.852-0.183,1.561-0.205,2.125c-0.022,0.568,0.058,0.852,0.239,0.852
					c0.271,0,0.634-0.304,1.089-0.915c0.451-0.61,0.894-1.341,1.324-2.192c0.432-0.848,0.84-1.73,1.226-2.646
					c0.384-0.918,0.666-1.656,0.849-2.225c0.134-0.393,0.35-0.665,0.646-0.816c0.294-0.153,0.578-0.197,0.851-0.133
					c0.271,0.063,0.498,0.22,0.68,0.457c0.181,0.24,0.227,0.557,0.137,0.95c-0.137,0.611-0.442,1.472-0.919,2.583
					c-0.478,1.112-1.056,2.236-1.735,3.368c-0.678,1.132-1.426,2.157-2.241,3.072c-0.816,0.915-1.659,1.439-2.519,1.57
					c-0.95,0.173-1.711,0.066-2.276-0.325c-0.567-0.393-0.975-0.961-1.226-1.702c-0.25-0.738-0.397-1.579-0.441-2.517
					c-0.044-0.938-0.024-1.865,0.068-2.783c0.09-0.912,0.204-1.731,0.339-2.449c0.139-0.719,0.272-1.254,0.408-1.602
					c-0.227,0.086-0.566,0.5-1.018,1.242c-0.456,0.74-0.919,1.558-1.396,2.453c-0.476,0.891-0.917,1.763-1.326,2.615
					c-0.407,0.851-0.68,1.428-0.814,1.734v-0.066c-0.092,0.26-0.306,0.556-0.646,0.883c-0.341,0.324-0.738,0.588-1.189,0.785
					c-0.453,0.193-0.875,0.292-1.26,0.292s-0.643-0.218-0.781-0.654c-0.136-0.432-0.227-1.034-0.271-1.796
					c-0.046-0.765-0.068-1.506-0.068-2.224c0-0.722,0.011-1.376,0.033-1.961c0.022-0.591,0.009-0.95-0.033-1.08
					c-0.227,0.087-0.478,0.478-0.748,1.179c-0.272,0.695-0.554,1.48-0.851,2.352c-0.294,0.871-0.555,1.767-0.783,2.682
					c-0.225,0.915-0.383,1.633-0.476,2.158c-0.09,0.566-0.397,0.992-0.917,1.276c-0.521,0.28-1.088,0.423-1.699,0.423
					c-0.613,0-1.155-0.15-1.633-0.457c-0.477-0.305-0.691-0.783-0.646-1.438c0.044-0.744,0.033-1.734-0.033-2.977
					c-0.068-1.242-0.139-2.539-0.205-3.893c-0.068-1.35-0.103-2.682-0.103-3.987C89.554,33.776,89.622,32.688,89.76,31.816z"/>
				<path fill="#FFFFFF" d="M122.669,29.462c0.635,0.131,1.189,0.414,1.664,0.849c0.478,0.438,0.875,0.915,1.191,1.439
					c0.363-0.392,0.816-0.608,1.36-0.651c0.545-0.044,1.064,0.031,1.565,0.225c0.497,0.197,0.906,0.505,1.223,0.919
					c0.317,0.414,0.431,0.906,0.341,1.471c-0.182,0.785-0.354,1.765-0.512,2.942c-0.158,1.176-0.26,2.311-0.304,3.4
					c-0.047,1.092-0.012,2.027,0.101,2.812c0.112,0.785,0.353,1.176,0.715,1.176c0.271,0,0.601-0.336,0.985-1.011
					c0.385-0.674,0.771-1.475,1.155-2.389c0.385-0.916,0.736-1.83,1.056-2.746c0.316-0.915,0.519-1.613,0.61-2.09
					c0.138-0.438,0.364-0.733,0.681-0.887c0.316-0.15,0.624-0.193,0.917-0.131c0.297,0.066,0.546,0.232,0.748,0.493
					c0.206,0.261,0.239,0.587,0.101,0.979c-0.09,0.264-0.235,0.753-0.44,1.472c-0.202,0.721-0.466,1.514-0.782,2.386
					c-0.316,0.874-0.691,1.778-1.121,2.716c-0.432,0.939-0.929,1.764-1.496,2.485c-0.567,0.718-1.203,1.276-1.904,1.668
					c-0.704,0.392-1.463,0.48-2.277,0.261c-1.316-0.348-2.267-1.111-2.856-2.287c-0.363,1.045-0.862,1.991-1.496,2.844
					c-0.635,0.848-1.451,1.471-2.449,1.864c-0.95,0.304-1.788,0.371-2.514,0.194c-1.315-0.348-2.358-1.133-3.128-2.355
					c-0.771-1.219-1.291-2.635-1.565-4.25c-0.271-1.611-0.293-3.291-0.066-5.034s0.691-3.313,1.393-4.708
					c0.704-1.396,1.643-2.496,2.821-3.305C119.563,29.407,120.99,29.158,122.669,29.462z M124.437,36.067
					c-0.091-0.741-0.262-1.463-0.51-2.16c-0.249-0.695-0.623-1.089-1.12-1.176c-0.728-0.131-1.372,0.119-1.938,0.753
					c-0.569,0.632-1.033,1.472-1.396,2.517s-0.622,2.192-0.781,3.432c-0.158,1.246-0.203,2.422-0.136,3.533
					c0.068,1.112,0.248,2.063,0.543,2.847s0.737,1.216,1.327,1.306c0.588,0.088,1.145-0.217,1.666-0.914
					c0.52-0.698,0.975-1.594,1.359-2.682c0.385-1.09,0.682-2.3,0.882-3.629C124.54,38.562,124.573,37.286,124.437,36.067z"/>
				<path fill="#FFFFFF" d="M144.224,30.181c0.59-0.305,1.179-0.305,1.769,0c0.589,0.307,1.043,0.729,1.359,1.277
					c0.316,0.544,0.42,1.108,0.306,1.699c-0.113,0.588-0.579,0.993-1.395,1.207c-0.725,0.178-1.484,0.352-2.276,0.524
					c-0.794,0.177-1.542,0.327-2.243,0.458c-0.704,0.131-1.305,0.252-1.804,0.361c-0.499,0.107-0.815,0.162-0.95,0.162
					c0.09,0,0.574,0.119,1.461,0.359c0.884,0.24,1.825,0.631,2.823,1.18c0.994,0.544,1.903,1.273,2.719,2.186
					c0.816,0.918,1.225,2.076,1.225,3.47c0,1.526-0.546,2.736-1.632,3.628c-1.088,0.895-2.359,1.492-3.81,1.799
					c-0.906,0.131-1.779,0.131-2.617,0c-0.84-0.13-1.59-0.405-2.243-0.816c-0.657-0.414-1.191-0.982-1.597-1.7
					c-0.409-0.721-0.615-1.578-0.615-2.583c0-0.828,0.285-1.482,0.851-1.963c0.565-0.479,1.179-0.785,1.837-0.916
					c0.657-0.133,1.247-0.063,1.768,0.197c0.521,0.261,0.735,0.719,0.646,1.373c-0.23,1.352-0.16,2.334,0.205,2.945
					c0.36,0.607,0.722,0.914,1.086,0.914c0.451,0,0.825-0.153,1.122-0.46c0.294-0.302,0.466-0.706,0.51-1.208
					c0.047-0.5-0.044-1.068-0.271-1.703c-0.228-0.631-0.59-1.273-1.087-1.928c-0.409-0.564-0.919-1.078-1.531-1.535
					c-0.61-0.461-1.223-0.852-1.834-1.179c-0.613-0.327-1.216-0.588-1.804-0.784c-0.589-0.197-1.066-0.337-1.429-0.426
					c-0.408-0.088-0.713-0.359-0.917-0.816c-0.203-0.459-0.293-0.936-0.273-1.438c0.022-0.501,0.205-0.961,0.546-1.375
					s0.849-0.623,1.53-0.623c1.359,0,2.821-0.205,4.386-0.619C141.606,31.435,142.999,30.881,144.224,30.181z"/>
				<path fill="#FFFFFF" d="M173.325,19.129c0-1.048,0.294-1.774,0.886-2.188c0.59-0.418,1.223-0.6,1.904-0.56
					c0.681,0.046,1.278,0.286,1.802,0.722c0.521,0.437,0.713,1.002,0.578,1.699c-0.092,0.524-0.227,1.518-0.408,2.975
					c-0.183,1.462-0.374,3.153-0.577,5.07c-0.206,1.918-0.375,3.901-0.513,5.949c-0.136,2.05-0.201,3.946-0.201,5.689
					c0,1.744,0.078,3.172,0.236,4.286c0.158,1.109,0.465,1.665,0.92,1.665c0.407,0,0.825-0.37,1.256-1.111
					c0.431-0.742,0.851-1.602,1.26-2.584c0.407-0.979,0.759-1.939,1.052-2.878c0.295-0.936,0.488-1.622,0.578-2.056
					c0.139-0.438,0.352-0.733,0.646-0.887c0.293-0.15,0.588-0.193,0.885-0.131c0.294,0.066,0.543,0.232,0.748,0.493
					c0.202,0.261,0.259,0.608,0.169,1.045c-0.091,0.435-0.295,1.286-0.611,2.552c-0.319,1.266-0.794,2.56-1.43,3.892
					c-0.633,1.329-1.46,2.517-2.48,3.562c-1.021,1.047-2.233,1.57-3.638,1.57c-1.043,0-1.848-0.405-2.413-1.211
					c-0.57-0.805-1.01-1.864-1.328-3.17c-0.363,0.828-0.85,1.568-1.461,2.224c-0.613,0.651-1.37,1.132-2.276,1.437
					c-0.998,0.35-1.862,0.393-2.586,0.133c-1.315-0.304-2.357-0.993-3.127-2.062c-0.771-1.066-1.303-2.312-1.598-3.728
					c-0.296-1.416-0.329-2.887-0.104-4.414c0.229-1.522,0.691-2.898,1.396-4.12c0.701-1.22,1.642-2.166,2.821-2.844
					c1.177-0.675,2.606-0.884,4.284-0.622c0.905,0.129,1.698,0.59,2.38,1.372c0.18-2.481,0.385-4.793,0.611-6.931
					C173.212,21.834,173.325,20.218,173.325,19.129z M171.763,35.283c-0.09-0.611-0.262-1.223-0.51-1.831
					c-0.25-0.611-0.624-0.958-1.122-1.048c-0.726-0.13-1.372,0.09-1.939,0.655c-0.565,0.566-1.031,1.297-1.392,2.188
					c-0.365,0.896-0.623,1.888-0.781,2.977c-0.161,1.093-0.207,2.126-0.139,3.107c0.07,0.979,0.263,1.811,0.579,2.482
					c0.318,0.677,0.77,1.06,1.359,1.147c0.589,0.086,1.146-0.174,1.664-0.785c0.523-0.611,0.975-1.396,1.363-2.355
					c0.385-0.958,0.667-2.026,0.848-3.205C171.873,37.44,171.897,36.328,171.763,35.283z"/>
				<path fill="#FFFFFF" d="M193.384,35.87c-0.362,0.481-0.814,0.872-1.356,1.176c-0.545,0.308-1.134,0.557-1.768,0.754
					c-0.638,0.196-1.283,0.339-1.939,0.425c-0.656,0.087-1.236,0.154-1.734,0.197c-0.136,0.912-0.217,1.808-0.237,2.682
					c-0.023,0.872,0.021,1.656,0.135,2.354c0.112,0.698,0.294,1.283,0.543,1.764c0.251,0.48,0.601,0.785,1.056,0.916
					c0.59,0.173,1.223,0.077,1.904-0.293c0.681-0.371,1.335-0.883,1.972-1.538c0.635-0.654,1.244-1.419,1.835-2.288
					c0.588-0.871,1.111-1.711,1.563-2.52c0.455-0.805,0.84-1.546,1.158-2.221c0.315-0.678,0.521-1.168,0.612-1.471
					c0.136-0.395,0.352-0.658,0.645-0.785c0.297-0.134,0.578-0.177,0.853-0.134c0.269,0.046,0.495,0.186,0.678,0.426
					s0.227,0.556,0.137,0.947c-0.093,0.264-0.249,0.776-0.478,1.538c-0.227,0.762-0.554,1.624-0.985,2.58
					c-0.431,0.961-0.95,1.955-1.563,2.977c-0.612,1.025-1.349,1.964-2.211,2.813c-0.859,0.852-1.847,1.561-2.956,2.125
					c-1.112,0.568-2.346,0.852-3.705,0.852c-1.632,0-2.903-0.544-3.81-1.637c-0.906-1.088-1.52-2.461-1.837-4.117
					c-0.315-1.656-0.373-3.435-0.169-5.328c0.205-1.9,0.612-3.676,1.224-5.332c0.613-1.656,1.383-3.029,2.313-4.121
					c0.928-1.089,1.96-1.633,3.096-1.633c1.086,0,2.05,0.359,2.889,1.08c0.838,0.719,1.483,1.558,1.938,2.517
					c0.452,0.958,0.713,1.94,0.782,2.942C194.031,34.519,193.838,35.303,193.384,35.87z M189.169,30.05
					c-0.319,0.131-0.655,0.687-1.021,1.668c-0.363,0.982-0.702,2.169-1.017,3.565c0.495,0,0.994-0.056,1.493-0.165
					c0.499-0.107,0.862-0.336,1.087-0.688c0.183-0.26,0.295-0.643,0.343-1.143c0.044-0.502,0.031-1.014-0.035-1.538
					c-0.067-0.524-0.181-0.956-0.341-1.31C189.521,30.097,189.351,29.963,189.169,30.05z"/>
				<path fill="#FFFFFF" d="M217.317,29.462c0.635,0.131,1.191,0.414,1.666,0.849c0.478,0.438,0.874,0.915,1.19,1.439
					c0.362-0.392,0.815-0.608,1.359-0.651c0.545-0.044,1.064,0.031,1.565,0.225c0.497,0.197,0.907,0.505,1.224,0.919
					s0.429,0.906,0.34,1.471c-0.182,0.785-0.352,1.765-0.512,2.942c-0.158,1.176-0.26,2.311-0.303,3.4
					c-0.047,1.092-0.015,2.027,0.101,2.812c0.112,0.785,0.35,1.176,0.714,1.176c0.271,0,0.601-0.336,0.985-1.011
					c0.385-0.674,0.771-1.475,1.155-2.389c0.385-0.916,0.736-1.83,1.056-2.746c0.316-0.915,0.521-1.613,0.609-2.09
					c0.139-0.438,0.365-0.733,0.682-0.887c0.318-0.15,0.624-0.193,0.917-0.131c0.297,0.066,0.546,0.232,0.75,0.493
					s0.238,0.587,0.101,0.979c-0.092,0.264-0.237,0.753-0.442,1.472c-0.203,0.721-0.464,1.514-0.782,2.386
					c-0.316,0.874-0.69,1.778-1.121,2.716c-0.432,0.939-0.929,1.764-1.494,2.485c-0.57,0.718-1.203,1.276-1.906,1.668
					c-0.702,0.392-1.461,0.48-2.278,0.261c-1.313-0.348-2.266-1.111-2.854-2.287c-0.364,1.045-0.862,1.991-1.498,2.844
					c-0.632,0.848-1.449,1.471-2.446,1.864c-0.951,0.304-1.79,0.371-2.516,0.194c-1.315-0.348-2.357-1.133-3.127-2.355
					c-0.772-1.219-1.291-2.635-1.564-4.25c-0.272-1.611-0.295-3.291-0.068-5.034s0.691-3.313,1.395-4.708
					c0.702-1.396,1.641-2.496,2.819-3.305C214.212,29.407,215.639,29.158,217.317,29.462z M219.086,36.067
					c-0.093-0.741-0.261-1.463-0.511-2.16c-0.249-0.695-0.623-1.089-1.12-1.176c-0.726-0.131-1.372,0.119-1.938,0.753
					c-0.569,0.632-1.033,1.472-1.396,2.517c-0.363,1.045-0.625,2.192-0.783,3.432c-0.157,1.246-0.202,2.422-0.134,3.533
					c0.067,1.112,0.247,2.063,0.543,2.847c0.294,0.784,0.736,1.216,1.326,1.306c0.589,0.088,1.144-0.217,1.667-0.914
					c0.521-0.698,0.975-1.594,1.358-2.682c0.385-1.09,0.681-2.3,0.884-3.629C219.188,38.562,219.222,37.286,219.086,36.067z"/>
				<path fill="#FFFFFF" d="M228.675,31.816c0.182-0.962,0.613-1.712,1.293-2.256c0.678-0.544,1.369-0.918,2.074-1.112
					c0.701-0.197,1.314-0.217,1.836-0.066c0.52,0.156,0.713,0.489,0.576,1.014c-0.136,0.611-0.295,1.439-0.475,2.488
					c-0.183,1.045-0.341,2.113-0.475,3.202c-0.139,1.089-0.251,2.126-0.342,3.107c-0.09,0.979-0.136,1.688-0.136,2.122
					c0.182-0.607,0.406-1.242,0.679-1.894c0.273-0.654,0.557-1.298,0.852-1.929c0.295-0.635,0.599-1.21,0.917-1.734
					c0.316-0.521,0.611-0.938,0.885-1.242c0.316-0.435,0.804-0.773,1.463-1.014c0.656-0.24,1.269-0.359,1.834-0.359
					c0.567,0,1.033,0.153,1.396,0.457c0.361,0.305,0.429,0.742,0.203,1.307c-0.091,0.264-0.183,0.765-0.273,1.506
					c-0.092,0.742-0.18,1.549-0.27,2.418c0.27-0.607,0.633-1.285,1.088-2.023c0.453-0.742,0.904-1.451,1.359-2.126
					c0.453-0.679,0.873-1.301,1.258-1.865c0.385-0.567,0.69-0.981,0.917-1.242c0.316-0.435,0.792-0.796,1.43-1.08
					c0.633-0.284,1.245-0.423,1.835-0.423c0.589,0,1.086,0.139,1.495,0.423c0.408,0.284,0.59,0.753,0.545,1.404
					c-0.046,0.308-0.127,0.831-0.239,1.569c-0.114,0.744-0.259,1.593-0.44,2.555c-0.183,0.959-0.352,1.96-0.51,3.006
					c-0.161,1.045-0.297,1.995-0.407,2.844c-0.114,0.852-0.183,1.561-0.206,2.125c-0.022,0.568,0.058,0.852,0.239,0.852
					c0.273,0,0.634-0.304,1.087-0.915c0.453-0.61,0.896-1.341,1.328-2.192c0.43-0.848,0.836-1.73,1.223-2.646
					c0.385-0.918,0.668-1.656,0.85-2.225c0.136-0.393,0.351-0.665,0.646-0.816c0.294-0.153,0.578-0.197,0.849-0.133
					c0.274,0.063,0.501,0.22,0.682,0.457c0.18,0.24,0.227,0.557,0.135,0.95c-0.135,0.611-0.44,1.472-0.917,2.583
					c-0.478,1.112-1.055,2.236-1.734,3.368c-0.681,1.132-1.429,2.157-2.243,3.072c-0.817,0.915-1.658,1.439-2.518,1.57
					c-0.95,0.173-1.712,0.066-2.276-0.325c-0.568-0.393-0.977-0.961-1.226-1.702c-0.25-0.738-0.398-1.579-0.441-2.517
					c-0.046-0.938-0.024-1.865,0.068-2.783c0.09-0.912,0.204-1.731,0.339-2.449c0.138-0.719,0.272-1.254,0.408-1.602
					c-0.227,0.086-0.565,0.5-1.02,1.242c-0.454,0.74-0.917,1.558-1.395,2.453c-0.476,0.891-0.917,1.763-1.326,2.615
					c-0.407,0.851-0.68,1.428-0.814,1.734v-0.066c-0.09,0.26-0.306,0.556-0.648,0.883c-0.339,0.324-0.735,0.588-1.188,0.785
					c-0.452,0.193-0.873,0.292-1.258,0.292s-0.644-0.218-0.782-0.654c-0.135-0.432-0.227-1.034-0.271-1.796
					c-0.046-0.765-0.068-1.506-0.068-2.224c0-0.722,0.009-1.376,0.032-1.961c0.022-0.591,0.011-0.95-0.032-1.08
					c-0.227,0.087-0.478,0.478-0.75,1.179c-0.271,0.695-0.554,1.48-0.849,2.352s-0.557,1.767-0.781,2.682
					c-0.227,0.915-0.387,1.633-0.478,2.158c-0.09,0.566-0.397,0.992-0.917,1.276c-0.521,0.28-1.089,0.423-1.699,0.423
					c-0.612,0-1.155-0.15-1.633-0.457c-0.477-0.305-0.692-0.783-0.646-1.438c0.045-0.744,0.034-1.734-0.033-2.977
					c-0.068-1.242-0.139-2.539-0.207-3.893c-0.066-1.35-0.1-2.682-0.1-3.987C228.472,33.776,228.54,32.688,228.675,31.816z"/>
				<path fill="#FFFFFF" d="M259.749,45.612c-1.679,0-3.017-0.414-4.015-1.239c-0.997-0.828-1.688-1.854-2.072-3.075
					c-0.385-1.219-0.496-2.551-0.341-3.988c0.161-1.439,0.546-2.756,1.157-3.958c0.612-1.199,1.416-2.192,2.413-2.975
					c0.998-0.784,2.177-1.135,3.536-1.045c1.586,0.087,2.877,0.544,3.877,1.372c0.996,0.828,1.723,1.854,2.178,3.072
					c0.451,1.223,0.643,2.518,0.576,3.893c-0.068,1.373-0.398,2.646-0.988,3.826c-0.586,1.178-1.416,2.157-2.48,2.941
					C262.525,45.222,261.243,45.612,259.749,45.612z M260.632,42.673c0.5,0.044,0.907-0.188,1.224-0.686
					c0.316-0.504,0.543-1.156,0.682-1.964c0.136-0.808,0.193-1.691,0.169-2.647c-0.023-0.961-0.136-1.855-0.341-2.684
					c-0.202-0.826-0.486-1.526-0.849-2.092c-0.365-0.567-0.794-0.851-1.293-0.851c-0.453,0-0.838,0.261-1.155,0.784
					c-0.316,0.525-0.556,1.179-0.714,1.964c-0.159,0.785-0.24,1.646-0.24,2.581c0,0.938,0.092,1.813,0.274,2.617
					c0.181,0.805,0.451,1.494,0.814,2.059C259.567,42.323,260.043,42.627,260.632,42.673z"/>
				<path fill="#FFFFFF" d="M270.831,36.655c-0.093,0.351-0.284,0.6-0.577,0.754c-0.297,0.15-0.603,0.193-0.917,0.129
					c-0.319-0.066-0.569-0.217-0.749-0.459c-0.181-0.238-0.181-0.554,0-0.947l0.409-1.109c-0.409-0.395-0.636-0.852-0.681-1.376
					c-0.046-0.524,0.045-1.014,0.271-1.471c0.226-0.458,0.554-0.853,0.984-1.179c0.432-0.324,0.919-0.489,1.463-0.489
					c0.952,0,1.474,0.339,1.565,1.013c0.088,0.678-0.048,1.428-0.409,2.256c0.271,0.131,0.715,0.154,1.326,0.067
					c0.612-0.087,1.188-0.143,1.731-0.162c0.546-0.023,0.998,0.075,1.363,0.292c0.36,0.217,0.451,0.719,0.272,1.504
					c-0.183,0.784-0.375,1.723-0.58,2.814c-0.203,1.089-0.352,2.125-0.442,3.104c-0.09,0.982-0.09,1.822,0,2.518
					c0.091,0.697,0.342,1.049,0.75,1.049c0.272,0,0.62-0.383,1.054-1.147c0.429-0.763,0.871-1.646,1.324-2.647
					s0.861-2.016,1.225-3.04c0.362-1.022,0.589-1.799,0.682-2.319c0.088-0.438,0.281-0.742,0.577-0.919
					c0.292-0.173,0.6-0.252,0.917-0.229c0.316,0.021,0.578,0.153,0.782,0.394c0.204,0.238,0.281,0.576,0.238,1.014
					c-0.047,0.217-0.158,0.687-0.34,1.404c-0.183,0.722-0.431,1.527-0.749,2.422c-0.316,0.892-0.702,1.83-1.155,2.812
					c-0.452,0.979-0.998,1.886-1.632,2.714c-0.635,0.825-1.339,1.494-2.108,1.995c-0.771,0.501-1.632,0.727-2.585,0.687
					c-1.086-0.044-1.881-0.514-2.379-1.408c-0.5-0.892-0.816-1.963-0.951-3.203c-0.136-1.242-0.103-2.56,0.102-3.958
					c0.204-1.393,0.485-2.615,0.85-3.661c-0.227,0.044-0.453,0.064-0.68,0.064c-0.228,0-0.454,0-0.68,0
					C270.969,36.155,270.874,36.392,270.831,36.655z"/>
			</g>
			<g>
				<path fill="#FFFFFF" d="M282.532,20.682c-3.434-3.487-12.327-3.997-12.474,2.386c-0.112,5.045,6.488,9.447,10.006,12.393
					c0.819,0.686,3.663-0.432,2.817-1.142c-2.524-2.114-5.055-4.185-7.207-6.657c-1.186-1.367-2.154-2.891-2.525-4.643
					c-0.19-0.9,0.112-1.74,0.619-2.484c1.504-2.219,4.817,0.139,5.947,1.288C280.453,22.573,283.346,21.507,282.532,20.682
					L282.532,20.682z"/>
			</g>
			<g>
				<path fill="#FFFFFF" d="M282.035,21.597c1.062-3.389,6.26-4.846,7.646-0.988c0.65,1.813-0.6,4.102-1.43,5.668
					c-1.863,3.513-4.663,6.605-7.371,9.551c-0.763,0.828,2.235,0.524,2.79-0.078c3.457-3.756,9.048-9.186,9.171-14.512
					c0.068-3.023-2.447-4.06-5.233-4.387c-3.747-0.44-7.505,1.723-8.588,5.184C278.761,22.858,281.77,22.448,282.035,21.597
					L282.035,21.597z"/>
			</g>
		</g>
		<g>
			<path fill="#FFFFFF" d="M257.166,16.639c-1.288-1.96-3.492-2.517-5.771-1.935c-2.229,0.568-3.816,2.427-2.444,4.547
				c1.279,1.98,3.646,3.449,5.739,4.543c2.019,1.058,4.07,1.535,6.292,0.732c0.229-0.08,1.818-0.729,1.188-1.169
				c-0.65-0.452-1.97-0.062-2.62,0.177c1.583-0.57,1.223-0.165,0.088-0.57c-0.653-0.232-1.27-0.576-1.87-0.91
				c-1.246-0.683-2.398-1.52-3.459-2.443c-0.778-0.676-1.622-1.504-1.8-2.529c-0.037-0.355-0.005-0.706,0.099-1.053
				c0.252-1.018-2.284-0.107-1.208,0.219c0.703,0.215,1.34,0.853,1.716,1.426C253.78,18.687,257.551,17.224,257.166,16.639
				L257.166,16.639z"/>
		</g>
		<g>
			<path fill="#FFFFFF" d="M258.098,16.639c-0.29-1.155,0.415-3.843,1.866-2.653c1.015,0.829,0.745,2.578,0.541,3.649
				c-0.491,2.589-1.876,5.057-3.185,7.347c-0.483,0.846,3.402,0.516,4.024-0.572c1.533-2.682,5.282-8.607,2.661-11.553
				c-3.155-3.553-11.089,0.299-9.959,4.816C254.329,18.799,258.389,17.803,258.098,16.639L258.098,16.639z"/>
		</g>
		<g>
			<path fill="#FFFFFF" d="M274.965,4.238c-3.351-2.728-9.596,0.56-7.388,4.764c1.566,2.983,5.188,6.579,8.994,5.661
				c0.492-0.121,1.996-0.616,1.791-1.35c-0.211-0.746-1.769-0.439-2.261-0.318c0.938-0.226,1.079,0.018,0.421-0.257
				c-0.463-0.192-0.864-0.507-1.261-0.797c-0.905-0.666-1.694-1.477-2.429-2.311c-0.6-0.678-1.113-1.413-1.484-2.228
				c-0.226-0.495-0.237-0.947-0.17-1.488c0.061-0.336,0.192-0.646,0.396-0.927c-1.118,0.052-1.249,0.284-0.391,0.689
				C272.178,6.485,275.912,5.009,274.965,4.238L274.965,4.238z"/>
		</g>
		<g>
			<path fill="#FFFFFF" d="M275.438,5.704c0.675-1.069,1.613-2.916,2.877-1.566c0.884,0.94,0.35,2.554-0.014,3.576
				c-0.838,2.365-2.724,4.639-4.537,6.408c-1.693,1.65,2.275,1.723,3.277,0.744c2.75-2.679,6.415-6.938,5.697-10.952
				c-0.396-2.224-3.07-2.995-5.078-2.833c-2.658,0.212-4.737,2.439-6.018,4.461C270.614,7.172,274.705,6.858,275.438,5.704
				L275.438,5.704z"/>
		</g>
	</g>
</g>
</svg>
