<?xml version="1.0" encoding="utf-8"?>
<!-- Generator: Adobe Illustrator 16.0.0, SVG Export Plug-In . SVG Version: 6.00 Build 0)  -->
<!DOCTYPE svg PUBLIC "-//W3C//DTD SVG 1.1//EN" "http://www.w3.org/Graphics/SVG/1.1/DTD/svg11.dtd">
<svg version="1.1" xmlns="http://www.w3.org/2000/svg" xmlns:xlink="http://www.w3.org/1999/xlink" x="0px" y="0px" width="115px"
	 height="30px" viewBox="0 0 115 30" enable-background="new 0 0 115 30" xml:space="preserve">
<g id="projeto">
	<g>
		<g>
			<path fill="none" stroke="#FFFFFF" stroke-miterlimit="10" d="M2.5,15c0,6.904,5.597,12.5,12.5,12.5h85
				c6.903,0,12.5-5.596,12.5-12.5c0-6.902-5.597-12.5-12.5-12.5H15C8.097,2.5,2.5,8.098,2.5,15L2.5,15z"/>
			<g>
				<path fill="#FFFFFF" d="M99.709,9.739V7.505c0-0.139-0.078-0.268-0.201-0.333c-0.121-0.067-0.27-0.06-0.387,0.018l-6.736,4.441
					c-0.107,0.069-0.17,0.188-0.17,0.315s0.063,0.246,0.17,0.316l6.736,4.441c0.063,0.041,0.137,0.063,0.209,0.063
					c0.063,0,0.123-0.016,0.178-0.045c0.123-0.066,0.201-0.194,0.201-0.334v-2.252c1.07,0.05,2.729,0.418,4.262,1.951
					c2.539,2.537,2.486,5.547,2.436,6.328c0,0.174,0.143,0.316,0.316,0.316c0.109,0,0.207-0.057,0.264-0.143
					c0.01-0.016,0.066-0.108,0.131-0.223c0.27-0.487,0.98-1.949,0.98-3.925C108.098,11.993,103.201,10.152,99.709,9.739z"/>
			</g>
		</g>
		<g>
			<path fill="#FFFFFF" d="M11.846,19.545l-2.808-8.763h2.171l1.066,3.705c0.299,1.04,0.571,2.041,0.779,3.134h0.039
				c0.222-1.054,0.494-2.094,0.793-3.095l1.118-3.744h2.106l-2.951,8.763H11.846z"/>
			<path fill="#FFFFFF" d="M23.715,16.295c0,2.326-1.651,3.393-3.354,3.393c-1.858,0-3.289-1.223-3.289-3.276
				s1.353-3.366,3.394-3.366C22.415,13.045,23.715,14.383,23.715,16.295z M19.112,16.359c0,1.092,0.455,1.911,1.301,1.911
				c0.767,0,1.261-0.767,1.261-1.911c0-0.949-0.364-1.911-1.261-1.911C19.464,14.448,19.112,15.424,19.112,16.359z"/>
			<path fill="#FFFFFF" d="M24.937,10.314h1.977v9.23h-1.977V10.314z"/>
			<path fill="#FFFFFF" d="M30.722,11.367v1.82h1.417v1.455h-1.417v2.302c0,0.767,0.183,1.118,0.78,1.118
				c0.247,0,0.442-0.025,0.585-0.053l0.013,1.496c-0.26,0.104-0.728,0.168-1.287,0.168c-0.637,0-1.17-0.221-1.481-0.545
				c-0.364-0.377-0.546-0.988-0.546-1.886v-2.601h-0.846v-1.455h0.846v-1.379L30.722,11.367z"/>
			<path fill="#FFFFFF" d="M36.896,19.545l-0.117-0.638H36.74c-0.416,0.507-1.065,0.78-1.82,0.78c-1.286,0-2.054-0.936-2.054-1.95
				c0-1.651,1.482-2.444,3.731-2.431v-0.092c0-0.338-0.183-0.818-1.157-0.818c-0.65,0-1.339,0.221-1.755,0.48l-0.364-1.273
				c0.442-0.248,1.313-0.559,2.47-0.559c2.119,0,2.796,1.248,2.796,2.742v2.211c0,0.61,0.025,1.195,0.091,1.547H36.896z
				 M36.662,16.541c-1.04-0.013-1.846,0.234-1.846,1.002c0,0.506,0.338,0.754,0.78,0.754c0.494,0,0.896-0.326,1.026-0.729
				c0.026-0.104,0.039-0.221,0.039-0.338V16.541z"/>
			<path fill="#FFFFFF" d="M40.146,15.28c0-0.937-0.026-1.547-0.052-2.093h1.703l0.064,1.17h0.053
				c0.324-0.924,1.104-1.313,1.716-1.313c0.182,0,0.272,0,0.416,0.025v1.859c-0.144-0.026-0.313-0.053-0.533-0.053
				c-0.728,0-1.222,0.391-1.353,1.002c-0.025,0.129-0.038,0.285-0.038,0.441v3.225h-1.977V15.28z"/>
			<path fill="#FFFFFF" d="M51.326,19.545l-0.117-0.638H51.17c-0.416,0.507-1.065,0.78-1.82,0.78c-1.286,0-2.054-0.936-2.054-1.95
				c0-1.651,1.482-2.444,3.731-2.431v-0.092c0-0.338-0.183-0.818-1.157-0.818c-0.65,0-1.339,0.221-1.755,0.48l-0.364-1.273
				c0.442-0.248,1.313-0.559,2.47-0.559c2.119,0,2.796,1.248,2.796,2.742v2.211c0,0.61,0.025,1.195,0.091,1.547H51.326z
				 M51.092,16.541c-1.04-0.013-1.846,0.234-1.846,1.002c0,0.506,0.338,0.754,0.78,0.754c0.494,0,0.896-0.326,1.026-0.729
				c0.026-0.104,0.039-0.221,0.039-0.338V16.541z"/>
			<path fill="#FFFFFF" d="M60.855,16.295c0,2.326-1.651,3.393-3.354,3.393c-1.858,0-3.289-1.223-3.289-3.276
				s1.353-3.366,3.394-3.366C59.556,13.045,60.855,14.383,60.855,16.295z M56.253,16.359c0,1.092,0.455,1.911,1.301,1.911
				c0.767,0,1.261-0.767,1.261-1.911c0-0.949-0.364-1.911-1.261-1.911C56.604,14.448,56.253,15.424,56.253,16.359z"/>
			<path fill="#FFFFFF" d="M66.81,17.295l-0.624,2.25h-2.055l2.679-8.763h2.6l2.717,8.763h-2.132l-0.676-2.25H66.81z M69.032,15.813
				l-0.546-1.859c-0.156-0.521-0.312-1.17-0.442-1.69h-0.025c-0.13,0.521-0.26,1.184-0.403,1.69l-0.52,1.859H69.032z"/>
			<path fill="#FFFFFF" d="M74.596,19.545l-2.808-8.763h2.171l1.066,3.705c0.299,1.04,0.571,2.041,0.779,3.134h0.039
				c0.222-1.054,0.494-2.094,0.793-3.095l1.118-3.744h2.106l-2.951,8.763H74.596z"/>
			<path fill="#FFFFFF" d="M82.137,17.295l-0.624,2.25h-2.055l2.679-8.763h2.6l2.718,8.763h-2.133l-0.676-2.25H82.137z
				 M84.359,15.813l-0.546-1.859c-0.156-0.521-0.313-1.17-0.442-1.69h-0.025c-0.13,0.521-0.261,1.184-0.403,1.69l-0.52,1.859H84.359
				z"/>
		</g>
	</g>
</g>
<g id="Layer_5">
</g>
<g id="cores">
</g>
</svg>
