<?xml version="1.0" encoding="utf-8"?>
<!-- Generator: Adobe Illustrator 16.0.0, SVG Export Plug-In . SVG Version: 6.00 Build 0)  -->
<!DOCTYPE svg PUBLIC "-//W3C//DTD SVG 1.1//EN" "http://www.w3.org/Graphics/SVG/1.1/DTD/svg11.dtd">
<svg version="1.1" xmlns="http://www.w3.org/2000/svg" xmlns:xlink="http://www.w3.org/1999/xlink" x="0px" y="0px" width="118px"
	 height="38px" viewBox="0 0 118 38" enable-background="new 0 0 118 38" xml:space="preserve">
<g id="projeto">
	<g>
		<g>
			<g>
				<path fill="#FFFFFF" d="M45.896,31.22h-0.821v2.664c0,0.061-0.02,0.113-0.064,0.155c-0.042,0.043-0.095,0.065-0.156,0.065
					c-0.06,0-0.113-0.022-0.155-0.065c-0.043-0.042-0.064-0.095-0.064-0.155V31.22h-0.82c-0.061,0-0.112-0.021-0.155-0.063
					c-0.044-0.044-0.063-0.095-0.063-0.155c0-0.063,0.02-0.112,0.063-0.157c0.043-0.042,0.095-0.065,0.155-0.065h2.082
					c0.06,0,0.113,0.023,0.154,0.065c0.044,0.045,0.065,0.095,0.065,0.157c0,0.061-0.021,0.111-0.065,0.155
					C46.009,31.198,45.955,31.22,45.896,31.22z"/>
				<path fill="#FFFFFF" d="M47.368,33.449c0.063,0,0.113,0.021,0.155,0.063c0.041,0.039,0.061,0.091,0.061,0.153
					s-0.02,0.112-0.062,0.155c-0.215,0.188-0.47,0.284-0.762,0.284c-0.32,0-0.595-0.114-0.82-0.342
					c-0.229-0.227-0.342-0.501-0.342-0.821c0-0.322,0.112-0.597,0.342-0.824c0.226-0.228,0.5-0.34,0.82-0.34s0.593,0.112,0.823,0.34
					c0.113,0.113,0.199,0.237,0.255,0.376c0.058,0.138,0.085,0.286,0.085,0.448c0,0.06-0.02,0.112-0.062,0.153
					c-0.043,0.041-0.094,0.062-0.155,0.062h-1.646c0.025,0.077,0.058,0.146,0.105,0.208c0.045,0.065,0.1,0.117,0.16,0.163
					c0.062,0.046,0.13,0.08,0.204,0.106c0.073,0.023,0.15,0.036,0.23,0.036c0.093,0,0.175-0.013,0.252-0.043
					c0.074-0.027,0.146-0.068,0.212-0.122C47.266,33.469,47.314,33.451,47.368,33.449z M47.462,32.724
					c-0.024-0.075-0.06-0.144-0.104-0.208c-0.048-0.063-0.102-0.115-0.162-0.161c-0.063-0.044-0.131-0.082-0.204-0.106
					c-0.074-0.022-0.15-0.038-0.23-0.038c-0.079,0-0.155,0.016-0.23,0.038c-0.074,0.024-0.143,0.063-0.204,0.106
					c-0.063,0.046-0.116,0.098-0.164,0.161c-0.044,0.064-0.078,0.133-0.102,0.208H47.462z"/>
				<path fill="#FFFFFF" d="M50.027,33.446c0.063,0,0.114,0.02,0.155,0.061c0.041,0.042,0.063,0.091,0.063,0.155
					c0,0.06-0.024,0.112-0.07,0.158c-0.214,0.188-0.468,0.284-0.759,0.284c-0.32,0-0.595-0.114-0.821-0.342
					c-0.228-0.227-0.342-0.501-0.342-0.821c0-0.322,0.114-0.597,0.342-0.824c0.227-0.228,0.501-0.34,0.821-0.34
					c0.293,0,0.546,0.095,0.759,0.282c0.051,0.045,0.075,0.099,0.075,0.166c0,0.06-0.021,0.112-0.063,0.153
					c-0.041,0.042-0.091,0.063-0.155,0.063c-0.051,0-0.098-0.018-0.141-0.051c-0.07-0.061-0.144-0.104-0.222-0.136
					c-0.077-0.029-0.162-0.046-0.254-0.046c-0.101,0-0.196,0.021-0.284,0.058c-0.088,0.039-0.165,0.092-0.232,0.157
					c-0.066,0.065-0.119,0.144-0.158,0.231c-0.037,0.089-0.056,0.184-0.056,0.285c0,0.1,0.019,0.195,0.056,0.284
					c0.039,0.088,0.092,0.166,0.158,0.231c0.067,0.065,0.145,0.118,0.232,0.155c0.088,0.038,0.184,0.058,0.284,0.058
					c0.092,0,0.177-0.017,0.254-0.044c0.078-0.029,0.15-0.075,0.221-0.136C49.928,33.462,49.976,33.446,50.027,33.446z"/>
				<path fill="#FFFFFF" d="M51.017,31.991c0.185-0.142,0.4-0.214,0.65-0.214c0.146,0,0.282,0.027,0.415,0.085
					c0.131,0.058,0.247,0.134,0.345,0.232c0.1,0.098,0.178,0.212,0.237,0.343c0.057,0.134,0.086,0.274,0.086,0.425v1.023
					c0,0.061-0.021,0.112-0.062,0.155c-0.043,0.041-0.094,0.063-0.154,0.063c-0.06,0-0.11-0.022-0.153-0.063
					c-0.042-0.043-0.063-0.095-0.063-0.155v-1.023c0-0.09-0.017-0.173-0.053-0.252c-0.034-0.08-0.081-0.148-0.139-0.205
					c-0.061-0.061-0.129-0.108-0.207-0.141c-0.08-0.036-0.162-0.055-0.252-0.055c-0.092,0-0.175,0.019-0.252,0.051
					c-0.08,0.034-0.148,0.082-0.207,0.141c-0.061,0.061-0.106,0.129-0.141,0.209c-0.035,0.079-0.051,0.162-0.051,0.252v1.023
					c0,0.061-0.021,0.112-0.064,0.155c-0.042,0.041-0.093,0.063-0.153,0.063c-0.059,0-0.111-0.022-0.153-0.063
					c-0.043-0.043-0.063-0.095-0.063-0.155v-1.89c0-0.061,0.02-0.111,0.063-0.155c0.042-0.042,0.095-0.063,0.153-0.063
					c0.061,0,0.111,0.021,0.153,0.063C50.995,31.885,51.017,31.935,51.017,31.991z"/>
				<path fill="#FFFFFF" d="M55.404,32.941c0,0.323-0.112,0.6-0.342,0.821c-0.229,0.228-0.503,0.342-0.821,0.342
					c-0.322,0-0.597-0.114-0.822-0.342c-0.229-0.227-0.342-0.501-0.342-0.821c0-0.322,0.113-0.597,0.342-0.824
					c0.226-0.228,0.5-0.34,0.822-0.34c0.318,0,0.593,0.112,0.821,0.34c0.115,0.113,0.2,0.24,0.257,0.376
					C55.373,32.631,55.403,32.779,55.404,32.941z M54.241,32.21c-0.104,0-0.198,0.021-0.288,0.06
					c-0.088,0.039-0.165,0.091-0.23,0.156s-0.116,0.145-0.153,0.23c-0.039,0.09-0.058,0.185-0.058,0.285
					c0,0.098,0.019,0.192,0.058,0.282c0.037,0.088,0.088,0.167,0.153,0.23c0.065,0.067,0.143,0.119,0.23,0.157
					c0.09,0.039,0.185,0.059,0.288,0.059c0.101,0,0.196-0.02,0.284-0.059c0.088-0.038,0.167-0.09,0.232-0.159
					c0.064-0.065,0.117-0.144,0.155-0.23c0.037-0.088,0.057-0.183,0.057-0.28c0-0.101-0.02-0.193-0.057-0.283
					c-0.038-0.087-0.091-0.165-0.155-0.232c-0.065-0.065-0.145-0.117-0.232-0.156S54.342,32.21,54.241,32.21z"/>
				<path fill="#FFFFFF" d="M55.717,33.888v-2.889c0-0.062,0.02-0.112,0.061-0.155c0.041-0.042,0.092-0.065,0.155-0.065
					c0.062,0,0.114,0.023,0.153,0.065c0.041,0.043,0.063,0.094,0.063,0.155v2.671h0.1c0.059,0,0.109,0.021,0.151,0.063
					c0.043,0.041,0.063,0.095,0.063,0.154s-0.02,0.11-0.063,0.153c-0.042,0.041-0.093,0.063-0.151,0.063h-0.317
					c-0.061,0-0.111-0.022-0.151-0.063C55.736,33.998,55.717,33.947,55.717,33.888z"/>
				<path fill="#FFFFFF" d="M59.061,32.941c0,0.323-0.112,0.6-0.342,0.821c-0.229,0.228-0.503,0.342-0.822,0.342
					c-0.321,0-0.595-0.114-0.821-0.342c-0.229-0.227-0.344-0.501-0.344-0.821c0-0.322,0.114-0.597,0.344-0.824
					c0.227-0.228,0.5-0.34,0.821-0.34c0.319,0,0.594,0.112,0.822,0.34c0.114,0.113,0.199,0.24,0.257,0.376
					C59.031,32.631,59.059,32.779,59.061,32.941z M57.896,32.21c-0.103,0-0.197,0.021-0.285,0.06
					c-0.089,0.039-0.167,0.091-0.232,0.156c-0.063,0.065-0.116,0.145-0.153,0.23c-0.04,0.09-0.058,0.185-0.058,0.285
					c0,0.098,0.018,0.192,0.058,0.282c0.037,0.088,0.09,0.167,0.153,0.23c0.065,0.067,0.144,0.119,0.232,0.157
					c0.088,0.039,0.183,0.059,0.285,0.059c0.102,0,0.196-0.02,0.286-0.059c0.087-0.038,0.165-0.09,0.23-0.159
					c0.065-0.065,0.118-0.144,0.155-0.23c0.039-0.088,0.058-0.183,0.058-0.28c0-0.101-0.019-0.193-0.058-0.283
					c-0.037-0.087-0.09-0.165-0.155-0.232c-0.065-0.065-0.144-0.117-0.23-0.156C58.093,32.23,57.998,32.21,57.896,32.21z"/>
				<path fill="#FFFFFF" d="M61.285,33.848c-0.206,0.17-0.451,0.257-0.728,0.257c-0.323,0-0.597-0.114-0.823-0.342
					c-0.228-0.227-0.341-0.501-0.341-0.821c0-0.322,0.113-0.597,0.341-0.824c0.227-0.228,0.5-0.34,0.823-0.34
					c0.317,0,0.594,0.112,0.822,0.34c0.227,0.228,0.342,0.502,0.342,0.824v1.155c0,0.098-0.017,0.192-0.048,0.282
					c-0.031,0.087-0.073,0.169-0.126,0.242c-0.054,0.075-0.117,0.143-0.191,0.202c-0.073,0.06-0.151,0.108-0.236,0.15
					c-0.087,0.04-0.177,0.072-0.269,0.094c-0.093,0.022-0.187,0.034-0.279,0.034c-0.109,0-0.219-0.015-0.325-0.043
					c-0.107-0.027-0.207-0.071-0.304-0.125c-0.095-0.058-0.184-0.125-0.262-0.208c-0.08-0.078-0.147-0.172-0.203-0.271
					c-0.021-0.032-0.032-0.071-0.032-0.117c0-0.063,0.02-0.116,0.063-0.154c0.039-0.042,0.093-0.063,0.155-0.063
					c0.04,0,0.075,0.01,0.103,0.031c0.026,0.02,0.063,0.063,0.109,0.128c0.048,0.066,0.09,0.117,0.124,0.151
					c0.16,0.158,0.349,0.237,0.572,0.237s0.415-0.079,0.57-0.232c0.095-0.117,0.143-0.23,0.143-0.338V33.848z M60.558,32.21
					c-0.104,0-0.199,0.021-0.288,0.06c-0.09,0.039-0.165,0.091-0.229,0.156c-0.065,0.065-0.118,0.145-0.155,0.23
					c-0.038,0.09-0.058,0.185-0.058,0.285c0,0.098,0.02,0.192,0.058,0.282c0.037,0.088,0.09,0.167,0.155,0.23
					c0.064,0.067,0.14,0.119,0.229,0.157c0.089,0.039,0.184,0.059,0.288,0.059c0.1,0,0.196-0.02,0.283-0.059
					c0.09-0.038,0.166-0.09,0.231-0.159c0.065-0.065,0.118-0.144,0.155-0.23c0.039-0.088,0.058-0.183,0.058-0.28
					c0-0.101-0.019-0.193-0.058-0.283c-0.037-0.087-0.09-0.165-0.155-0.232c-0.065-0.065-0.142-0.117-0.231-0.156
					C60.754,32.23,60.657,32.21,60.558,32.21z"/>
				<path fill="#FFFFFF" d="M62.64,31.364c0,0.07-0.024,0.13-0.073,0.181c-0.049,0.05-0.109,0.074-0.182,0.074
					c-0.07,0-0.131-0.024-0.182-0.074c-0.049-0.051-0.075-0.11-0.075-0.181s0.026-0.131,0.075-0.181
					c0.051-0.05,0.111-0.075,0.182-0.075c0.072,0,0.133,0.025,0.182,0.075S62.64,31.294,62.64,31.364z M62.169,33.886v-1.89
					c0-0.062,0.021-0.112,0.063-0.155c0.043-0.042,0.092-0.063,0.152-0.063s0.111,0.021,0.153,0.063
					c0.041,0.043,0.064,0.094,0.064,0.155v1.89c0,0.061-0.023,0.112-0.064,0.155c-0.042,0.041-0.093,0.063-0.153,0.063
					s-0.109-0.022-0.152-0.063C62.19,33.998,62.169,33.946,62.169,33.886z"/>
				<path fill="#FFFFFF" d="M64.942,33.888v-0.041c-0.104,0.083-0.216,0.146-0.34,0.189c-0.121,0.046-0.25,0.068-0.389,0.068
					c-0.324,0-0.597-0.114-0.824-0.342c-0.227-0.227-0.34-0.501-0.34-0.821c0-0.322,0.113-0.597,0.34-0.824
					c0.228-0.228,0.5-0.34,0.824-0.34c0.318,0,0.593,0.112,0.822,0.34c0.227,0.228,0.341,0.502,0.341,0.824v0.946
					c0,0.06-0.022,0.11-0.065,0.153c-0.04,0.041-0.091,0.063-0.151,0.063s-0.111-0.022-0.154-0.063
					C64.964,33.998,64.942,33.947,64.942,33.888z M64.214,32.21c-0.104,0-0.198,0.021-0.288,0.06
					c-0.088,0.039-0.165,0.091-0.23,0.156c-0.063,0.065-0.117,0.145-0.155,0.23c-0.037,0.09-0.057,0.185-0.057,0.285
					c0,0.098,0.02,0.192,0.057,0.282c0.038,0.088,0.092,0.167,0.155,0.23c0.065,0.067,0.143,0.119,0.23,0.157
					c0.09,0.039,0.184,0.059,0.288,0.059c0.1,0,0.196-0.02,0.284-0.059c0.088-0.038,0.165-0.09,0.23-0.159
					c0.067-0.065,0.117-0.144,0.157-0.23c0.037-0.088,0.057-0.183,0.057-0.28c0-0.101-0.02-0.193-0.057-0.283
					c-0.04-0.087-0.09-0.165-0.157-0.232c-0.065-0.065-0.143-0.117-0.23-0.156S64.313,32.21,64.214,32.21z"/>
				<path fill="#FFFFFF" d="M66.134,32.996c-0.131-0.05-0.222-0.101-0.274-0.153h0.002c-0.106-0.107-0.159-0.232-0.159-0.376
					c0-0.106,0.028-0.201,0.084-0.286s0.129-0.156,0.221-0.217c0.09-0.061,0.189-0.106,0.304-0.138
					c0.112-0.034,0.228-0.049,0.34-0.049c0.347,0,0.643,0.139,0.891,0.417c0.029,0.036,0.044,0.081,0.044,0.131
					c0,0.062-0.021,0.114-0.062,0.155c-0.041,0.04-0.092,0.062-0.154,0.062c-0.045,0-0.081-0.013-0.114-0.037
					c-0.03-0.024-0.061-0.053-0.09-0.082c-0.141-0.141-0.312-0.213-0.515-0.213c-0.199,0-0.357,0.063-0.479,0.186
					c-0.021,0.021-0.034,0.052-0.034,0.09c0,0.04,0.021,0.065,0.055,0.078l0.973,0.32c0.136,0.053,0.228,0.104,0.274,0.153h-0.001
					c0.104,0.108,0.156,0.234,0.156,0.378c0,0.106-0.027,0.201-0.083,0.284c-0.058,0.087-0.129,0.158-0.221,0.219
					c-0.088,0.061-0.191,0.106-0.302,0.138c-0.111,0.032-0.226,0.049-0.339,0.049c-0.35,0-0.646-0.139-0.893-0.415
					c-0.029-0.039-0.046-0.083-0.046-0.134c0-0.063,0.021-0.114,0.064-0.155c0.039-0.039,0.091-0.061,0.151-0.061
					c0.048,0,0.085,0.013,0.118,0.041c0.032,0.026,0.061,0.052,0.088,0.076c0.141,0.141,0.313,0.213,0.517,0.213
					c0.198,0,0.356-0.063,0.478-0.187c0.021-0.024,0.031-0.054,0.031-0.085c0-0.039-0.019-0.065-0.056-0.082L66.134,32.996z"/>
				<path fill="#FFFFFF" d="M71.29,33.662c0.063,0,0.113,0.024,0.157,0.065c0.043,0.044,0.063,0.096,0.063,0.156
					s-0.021,0.113-0.063,0.155c-0.044,0.043-0.095,0.065-0.157,0.065h-1.92c-0.033,0-0.061-0.007-0.087-0.017
					c-0.027-0.013-0.051-0.027-0.07-0.047c-0.021-0.02-0.036-0.044-0.047-0.07c-0.012-0.026-0.017-0.056-0.017-0.087v-2.883
					c0-0.031,0.005-0.061,0.017-0.088c0.011-0.026,0.025-0.051,0.047-0.069c0.02-0.021,0.043-0.035,0.07-0.049
					c0.026-0.01,0.054-0.017,0.087-0.017h1.92c0.063,0,0.113,0.023,0.157,0.065c0.043,0.045,0.063,0.095,0.063,0.157
					c0,0.061-0.021,0.111-0.063,0.155c-0.044,0.042-0.095,0.063-0.157,0.063h-1.699v1h1.219c0.063,0,0.114,0.023,0.157,0.065
					c0.044,0.045,0.065,0.097,0.065,0.157s-0.021,0.113-0.065,0.155c-0.043,0.044-0.095,0.065-0.157,0.065h-1.219v0.999H71.29z"/>
				<path fill="#FFFFFF" d="M72.842,31.777c0.275,0,0.521,0.085,0.73,0.257v-1.038c0-0.063,0.02-0.114,0.062-0.155
					c0.041-0.041,0.094-0.063,0.154-0.063c0.062,0,0.112,0.021,0.155,0.063c0.04,0.041,0.063,0.093,0.063,0.155v1.945
					c0,0.323-0.114,0.6-0.342,0.821c-0.229,0.228-0.503,0.342-0.823,0.342s-0.596-0.114-0.822-0.342
					c-0.228-0.227-0.34-0.501-0.34-0.821c0-0.322,0.112-0.597,0.34-0.824C72.246,31.89,72.521,31.777,72.842,31.777z M73.572,32.941
					c0-0.101-0.019-0.193-0.058-0.283c-0.037-0.087-0.09-0.165-0.155-0.232c-0.067-0.065-0.144-0.117-0.232-0.156
					c-0.088-0.039-0.185-0.06-0.285-0.06c-0.102,0-0.196,0.021-0.286,0.06c-0.089,0.039-0.165,0.091-0.23,0.156
					s-0.116,0.145-0.154,0.23c-0.039,0.09-0.057,0.185-0.057,0.285c0,0.098,0.018,0.192,0.057,0.282
					c0.038,0.088,0.089,0.167,0.154,0.23c0.065,0.067,0.142,0.119,0.23,0.157c0.09,0.039,0.185,0.059,0.286,0.059
					c0.101,0,0.197-0.02,0.285-0.059c0.089-0.038,0.165-0.09,0.232-0.159c0.065-0.065,0.118-0.144,0.155-0.23
					C73.554,33.134,73.572,33.039,73.572,32.941z"/>
				<path fill="#FFFFFF" d="M76.288,34.104c-0.062,0-0.114-0.022-0.153-0.063c-0.041-0.042-0.063-0.093-0.063-0.151
					c-0.096,0.071-0.196,0.127-0.303,0.163c-0.106,0.034-0.223,0.051-0.347,0.051c-0.148,0-0.291-0.029-0.422-0.087
					c-0.131-0.057-0.245-0.136-0.345-0.235c-0.097-0.096-0.177-0.212-0.233-0.343c-0.058-0.131-0.085-0.273-0.085-0.42v-1.026
					c0-0.061,0.02-0.109,0.063-0.152c0.041-0.042,0.094-0.063,0.153-0.063c0.061,0,0.111,0.021,0.154,0.063
					c0.042,0.043,0.063,0.092,0.063,0.152v1.026c0,0.09,0.017,0.175,0.049,0.253c0.036,0.08,0.082,0.147,0.141,0.206
					s0.128,0.106,0.206,0.141c0.08,0.034,0.163,0.051,0.255,0.051c0.088,0,0.172-0.017,0.25-0.051
					c0.08-0.034,0.148-0.082,0.208-0.141c0.061-0.059,0.105-0.129,0.141-0.206c0.034-0.08,0.051-0.163,0.051-0.253v-1.026
					c0-0.061,0.021-0.109,0.063-0.152c0.042-0.042,0.093-0.063,0.155-0.063c0.059,0,0.111,0.021,0.151,0.063
					c0.043,0.043,0.064,0.092,0.064,0.152v1.895c0,0.06-0.021,0.11-0.064,0.153C76.401,34.082,76.347,34.104,76.288,34.104z"/>
				<path fill="#FFFFFF" d="M78.603,33.446c0.062,0,0.112,0.02,0.153,0.061c0.041,0.042,0.061,0.091,0.061,0.155
					c0,0.06-0.021,0.112-0.068,0.158c-0.214,0.188-0.466,0.284-0.757,0.284c-0.32,0-0.595-0.114-0.822-0.342
					c-0.227-0.227-0.343-0.501-0.343-0.821c0-0.322,0.116-0.597,0.343-0.824c0.228-0.228,0.502-0.34,0.822-0.34
					c0.293,0,0.544,0.095,0.757,0.282c0.052,0.045,0.076,0.099,0.076,0.166c0,0.06-0.021,0.112-0.062,0.153
					c-0.043,0.042-0.094,0.063-0.153,0.063c-0.055,0-0.101-0.018-0.143-0.051c-0.07-0.061-0.144-0.104-0.223-0.136
					c-0.078-0.029-0.161-0.046-0.253-0.046c-0.102,0-0.194,0.021-0.284,0.058c-0.089,0.039-0.167,0.092-0.234,0.157
					c-0.065,0.065-0.117,0.144-0.155,0.231c-0.039,0.089-0.057,0.184-0.057,0.285c0,0.1,0.018,0.195,0.057,0.284
					c0.038,0.088,0.09,0.166,0.155,0.231c0.067,0.065,0.146,0.118,0.234,0.155c0.09,0.038,0.183,0.058,0.284,0.058
					c0.092,0,0.175-0.017,0.253-0.044c0.079-0.029,0.15-0.075,0.22-0.136C78.504,33.462,78.549,33.446,78.603,33.446z"/>
				<path fill="#FFFFFF" d="M81.051,33.888v-0.041c-0.104,0.083-0.216,0.146-0.34,0.189c-0.121,0.046-0.25,0.068-0.388,0.068
					c-0.322,0-0.597-0.114-0.823-0.342c-0.228-0.227-0.34-0.501-0.34-0.821c0-0.322,0.112-0.597,0.34-0.824
					c0.227-0.228,0.501-0.34,0.823-0.34c0.317,0,0.592,0.112,0.82,0.34c0.228,0.228,0.342,0.502,0.342,0.824v0.946
					c0,0.06-0.02,0.11-0.063,0.153c-0.042,0.041-0.093,0.063-0.153,0.063s-0.112-0.022-0.155-0.063
					C81.072,33.998,81.051,33.947,81.051,33.888z M80.323,32.21c-0.103,0-0.199,0.021-0.289,0.06
					c-0.087,0.039-0.163,0.091-0.23,0.156c-0.063,0.065-0.116,0.145-0.155,0.23c-0.038,0.09-0.056,0.185-0.056,0.285
					c0,0.098,0.018,0.192,0.056,0.282c0.039,0.088,0.092,0.167,0.155,0.23c0.067,0.067,0.144,0.119,0.23,0.157
					c0.09,0.039,0.187,0.059,0.289,0.059c0.1,0,0.194-0.02,0.284-0.059c0.087-0.038,0.164-0.09,0.232-0.159
					c0.063-0.065,0.116-0.144,0.153-0.23c0.039-0.088,0.058-0.183,0.058-0.28c0-0.101-0.019-0.193-0.058-0.283
					c-0.037-0.087-0.09-0.165-0.153-0.232c-0.068-0.065-0.146-0.117-0.232-0.156C80.518,32.23,80.423,32.21,80.323,32.21z"/>
				<path fill="#FFFFFF" d="M83.587,33.446c0.064,0,0.116,0.02,0.157,0.061c0.039,0.042,0.059,0.091,0.059,0.155
					c0,0.06-0.021,0.112-0.066,0.158c-0.216,0.188-0.468,0.284-0.759,0.284c-0.32,0-0.595-0.114-0.823-0.342
					c-0.226-0.227-0.341-0.501-0.341-0.821c0-0.322,0.115-0.597,0.341-0.824c0.229-0.228,0.503-0.34,0.823-0.34
					c0.293,0,0.544,0.095,0.759,0.282c0.05,0.045,0.075,0.099,0.075,0.166c0,0.06-0.021,0.112-0.063,0.153
					c-0.041,0.042-0.092,0.063-0.153,0.063c-0.053,0-0.102-0.018-0.143-0.051c-0.07-0.061-0.146-0.104-0.221-0.136
					c-0.078-0.029-0.163-0.046-0.255-0.046c-0.102,0-0.196,0.021-0.284,0.058c-0.09,0.039-0.167,0.092-0.232,0.157
					c-0.066,0.065-0.119,0.144-0.158,0.231c-0.038,0.089-0.056,0.184-0.056,0.285c0,0.1,0.018,0.195,0.056,0.284
					c0.039,0.088,0.092,0.166,0.158,0.231c0.065,0.065,0.143,0.118,0.232,0.155c0.088,0.038,0.183,0.058,0.284,0.058
					c0.092,0,0.177-0.017,0.255-0.044c0.075-0.029,0.148-0.075,0.219-0.136C83.489,33.462,83.535,33.446,83.587,33.446z"/>
				<path fill="#FFFFFF" d="M84.732,31.364c0,0.07-0.024,0.13-0.075,0.181c-0.049,0.05-0.109,0.074-0.18,0.074
					c-0.071,0-0.132-0.024-0.181-0.074c-0.05-0.051-0.074-0.11-0.074-0.181s0.024-0.131,0.074-0.181
					c0.049-0.05,0.109-0.075,0.181-0.075c0.07,0,0.131,0.025,0.18,0.075C84.708,31.233,84.732,31.294,84.732,31.364z M84.261,33.886
					v-1.89c0-0.062,0.021-0.112,0.063-0.155c0.043-0.042,0.095-0.063,0.153-0.063c0.06,0,0.109,0.021,0.152,0.063
					c0.041,0.043,0.063,0.094,0.065,0.155v1.89c-0.002,0.061-0.024,0.112-0.065,0.155c-0.043,0.041-0.093,0.063-0.152,0.063
					c-0.059,0-0.11-0.022-0.153-0.063C84.282,33.998,84.261,33.946,84.261,33.886z"/>
				<path fill="#FFFFFF" d="M87.469,32.941c0,0.323-0.114,0.6-0.34,0.821c-0.229,0.228-0.505,0.342-0.824,0.342
					c-0.32,0-0.596-0.114-0.821-0.342c-0.228-0.227-0.342-0.501-0.342-0.821c0-0.322,0.114-0.597,0.342-0.824
					c0.226-0.228,0.501-0.34,0.821-0.34c0.319,0,0.596,0.112,0.824,0.34c0.111,0.113,0.197,0.24,0.255,0.376
					C87.439,32.631,87.467,32.779,87.469,32.941z M86.305,32.21c-0.103,0-0.197,0.021-0.284,0.06
					c-0.09,0.039-0.168,0.091-0.231,0.156c-0.065,0.065-0.118,0.145-0.154,0.23c-0.039,0.09-0.059,0.185-0.059,0.285
					c0,0.098,0.02,0.192,0.059,0.282c0.036,0.088,0.089,0.167,0.154,0.23c0.063,0.067,0.142,0.119,0.231,0.157
					c0.087,0.039,0.182,0.059,0.284,0.059c0.102,0,0.196-0.02,0.285-0.059c0.088-0.038,0.166-0.09,0.231-0.159
					c0.065-0.065,0.118-0.144,0.157-0.23c0.037-0.088,0.056-0.183,0.056-0.28c0-0.101-0.019-0.193-0.056-0.283
					c-0.039-0.087-0.092-0.165-0.157-0.232c-0.065-0.065-0.144-0.117-0.231-0.156C86.501,32.23,86.406,32.21,86.305,32.21z"/>
				<path fill="#FFFFFF" d="M88.233,31.991c0.184-0.142,0.4-0.214,0.65-0.214c0.145,0,0.283,0.027,0.415,0.085
					c0.13,0.058,0.245,0.134,0.345,0.232c0.101,0.098,0.181,0.212,0.237,0.343c0.059,0.134,0.087,0.274,0.087,0.425v1.023
					c0,0.061-0.021,0.112-0.063,0.155c-0.044,0.041-0.093,0.063-0.151,0.063c-0.063,0-0.115-0.022-0.155-0.063
					c-0.043-0.043-0.065-0.095-0.065-0.155v-1.023c0-0.09-0.017-0.173-0.051-0.252c-0.034-0.08-0.082-0.148-0.141-0.205
					c-0.059-0.061-0.128-0.108-0.206-0.141c-0.08-0.036-0.165-0.055-0.252-0.055c-0.091,0-0.175,0.019-0.251,0.051
					c-0.079,0.034-0.149,0.082-0.208,0.141c-0.061,0.061-0.107,0.129-0.141,0.209c-0.034,0.079-0.051,0.162-0.051,0.252v1.023
					c0,0.061-0.02,0.112-0.063,0.155c-0.043,0.041-0.093,0.063-0.153,0.063s-0.111-0.022-0.154-0.063
					c-0.042-0.043-0.062-0.095-0.062-0.155v-1.89c0-0.061,0.02-0.111,0.062-0.155c0.043-0.042,0.094-0.063,0.154-0.063
					s0.11,0.021,0.153,0.063C88.214,31.885,88.233,31.935,88.233,31.991z"/>
				<path fill="#FFFFFF" d="M92.188,33.888v-0.041c-0.104,0.083-0.218,0.146-0.339,0.189c-0.122,0.046-0.252,0.068-0.393,0.068
					c-0.32,0-0.595-0.114-0.82-0.342c-0.227-0.227-0.341-0.501-0.341-0.821c0-0.322,0.114-0.597,0.341-0.824
					c0.226-0.228,0.5-0.34,0.82-0.34c0.322,0,0.596,0.112,0.826,0.34c0.227,0.228,0.338,0.502,0.338,0.824v0.946
					c0,0.06-0.02,0.11-0.063,0.153c-0.042,0.041-0.093,0.063-0.153,0.063s-0.112-0.022-0.153-0.063
					C92.208,33.998,92.188,33.947,92.188,33.888z M91.456,32.21c-0.101,0-0.197,0.021-0.284,0.06
					c-0.09,0.039-0.165,0.091-0.23,0.156c-0.066,0.065-0.117,0.145-0.155,0.23c-0.037,0.09-0.057,0.185-0.057,0.285
					c0,0.098,0.02,0.192,0.057,0.282c0.038,0.088,0.089,0.167,0.155,0.23c0.065,0.067,0.141,0.119,0.23,0.157
					c0.087,0.039,0.184,0.059,0.284,0.059c0.102,0,0.198-0.02,0.286-0.059c0.09-0.038,0.167-0.09,0.232-0.159
					c0.065-0.065,0.117-0.144,0.155-0.23c0.037-0.088,0.058-0.183,0.058-0.28c0-0.101-0.021-0.193-0.058-0.283
					c-0.038-0.087-0.09-0.165-0.155-0.232c-0.065-0.065-0.143-0.117-0.232-0.156C91.654,32.23,91.558,32.21,91.456,32.21z"/>
				<path fill="#FFFFFF" d="M93.542,31.364c0,0.07-0.024,0.13-0.073,0.181c-0.053,0.05-0.113,0.074-0.182,0.074
					c-0.072,0-0.133-0.024-0.182-0.074c-0.049-0.051-0.075-0.11-0.075-0.181s0.026-0.131,0.075-0.181s0.109-0.075,0.182-0.075
					c0.068,0,0.129,0.025,0.182,0.075C93.518,31.233,93.542,31.294,93.542,31.364z M93.069,33.886v-1.89
					c0-0.062,0.021-0.112,0.064-0.155c0.042-0.042,0.093-0.063,0.153-0.063s0.109,0.021,0.152,0.063
					c0.04,0.043,0.063,0.094,0.064,0.155v1.89c-0.001,0.061-0.024,0.112-0.064,0.155c-0.043,0.041-0.092,0.063-0.152,0.063
					s-0.111-0.022-0.153-0.063C93.091,33.998,93.069,33.946,93.069,33.886z"/>
				<path fill="#FFFFFF" d="M94.374,32.996c-0.129-0.05-0.221-0.101-0.273-0.153h0.002c-0.104-0.107-0.158-0.232-0.158-0.376
					c0-0.106,0.029-0.201,0.085-0.286s0.129-0.156,0.219-0.217s0.191-0.106,0.306-0.138c0.112-0.034,0.224-0.049,0.338-0.049
					c0.347,0,0.645,0.139,0.893,0.417c0.029,0.036,0.043,0.081,0.043,0.131c0,0.062-0.02,0.114-0.061,0.155
					c-0.041,0.04-0.094,0.062-0.155,0.062c-0.045,0-0.084-0.013-0.113-0.037c-0.031-0.024-0.062-0.053-0.092-0.082
					c-0.14-0.141-0.312-0.213-0.515-0.213c-0.199,0-0.357,0.063-0.477,0.186c-0.021,0.021-0.033,0.052-0.033,0.09
					c0,0.04,0.017,0.065,0.054,0.078l0.971,0.32c0.138,0.053,0.229,0.104,0.275,0.153H95.68c0.106,0.108,0.158,0.234,0.158,0.378
					c0,0.106-0.027,0.201-0.085,0.284c-0.056,0.087-0.127,0.158-0.219,0.219s-0.191,0.106-0.304,0.138
					c-0.111,0.032-0.225,0.049-0.339,0.049c-0.35,0-0.646-0.139-0.891-0.415c-0.029-0.039-0.046-0.083-0.046-0.134
					c0-0.063,0.02-0.114,0.061-0.155c0.041-0.039,0.094-0.061,0.155-0.061c0.046,0,0.085,0.013,0.116,0.041
					c0.033,0.026,0.063,0.052,0.087,0.076c0.142,0.141,0.315,0.213,0.518,0.213c0.198,0,0.358-0.063,0.479-0.187
					c0.021-0.024,0.03-0.054,0.03-0.085c0-0.039-0.02-0.065-0.057-0.082L94.374,32.996z"/>
				<path fill="#FFFFFF" d="M99.169,33.449c0.063,0,0.116,0.021,0.155,0.063c0.041,0.039,0.063,0.091,0.063,0.153
					s-0.021,0.112-0.064,0.155c-0.214,0.188-0.467,0.284-0.76,0.284c-0.32,0-0.595-0.114-0.822-0.342
					c-0.227-0.227-0.341-0.501-0.341-0.821c0-0.322,0.114-0.597,0.341-0.824c0.228-0.228,0.502-0.34,0.822-0.34
					c0.318,0,0.594,0.112,0.824,0.34c0.112,0.113,0.197,0.237,0.255,0.376c0.057,0.138,0.085,0.286,0.085,0.448
					c0,0.06-0.021,0.112-0.064,0.153c-0.042,0.041-0.093,0.062-0.153,0.062h-1.647c0.026,0.077,0.059,0.146,0.104,0.208
					c0.048,0.065,0.102,0.117,0.162,0.163c0.063,0.046,0.129,0.08,0.202,0.106c0.075,0.023,0.152,0.036,0.232,0.036
					c0.092,0,0.175-0.013,0.25-0.043c0.079-0.027,0.148-0.068,0.214-0.122C99.067,33.469,99.116,33.451,99.169,33.449z
					 M99.264,32.724c-0.022-0.075-0.059-0.144-0.104-0.208c-0.048-0.063-0.102-0.115-0.163-0.161
					c-0.061-0.044-0.13-0.082-0.205-0.106c-0.071-0.022-0.15-0.038-0.229-0.038s-0.155,0.016-0.23,0.038
					c-0.075,0.024-0.142,0.063-0.206,0.106c-0.061,0.046-0.116,0.098-0.161,0.161c-0.046,0.064-0.079,0.133-0.104,0.208H99.264z"/>
				<path fill="#FFFFFF" d="M101.727,32.256c-0.102-0.095-0.173-0.192-0.214-0.291c-0.041-0.1-0.061-0.204-0.061-0.313
					c0-0.137,0.024-0.26,0.075-0.369c0.051-0.111,0.128-0.208,0.226-0.294h-0.002c0.159-0.14,0.347-0.21,0.564-0.21
					c0.066,0,0.136,0.01,0.206,0.026c0.068,0.019,0.135,0.044,0.199,0.08c0.065,0.036,0.126,0.079,0.181,0.133
					c0.056,0.052,0.106,0.112,0.15,0.185c0.021,0.036,0.033,0.076,0.033,0.117c0,0.033-0.007,0.063-0.019,0.089
					c-0.011,0.026-0.025,0.049-0.045,0.068c-0.021,0.02-0.045,0.036-0.07,0.048c-0.028,0.011-0.058,0.016-0.087,0.016
					c-0.027,0-0.053-0.003-0.075-0.011c-0.021-0.009-0.041-0.021-0.059-0.036c-0.017-0.017-0.033-0.034-0.049-0.056
					c-0.016-0.019-0.033-0.041-0.051-0.067c-0.031-0.049-0.079-0.085-0.136-0.109c-0.06-0.024-0.119-0.036-0.187-0.036
					c-0.053,0-0.104,0.01-0.153,0.033c-0.05,0.021-0.094,0.051-0.135,0.086c-0.035,0.038-0.068,0.082-0.093,0.135
					c-0.024,0.051-0.036,0.105-0.036,0.165c0,0.107,0.029,0.191,0.089,0.253c0.059,0.063,0.16,0.113,0.304,0.155
					c0.242,0.068,0.435,0.165,0.572,0.286c0.139,0.122,0.233,0.242,0.284,0.359c0.049,0.118,0.073,0.242,0.073,0.373
					c0,0.321-0.119,0.587-0.359,0.787h0.002c-0.191,0.164-0.409,0.247-0.655,0.247c-0.082,0-0.162-0.012-0.244-0.031
					s-0.162-0.049-0.237-0.086c-0.076-0.041-0.145-0.09-0.212-0.147c-0.065-0.058-0.123-0.124-0.17-0.196
					c-0.029-0.037-0.044-0.083-0.044-0.134c0-0.031,0.005-0.061,0.016-0.087c0.01-0.027,0.026-0.049,0.046-0.07
					c0.02-0.02,0.044-0.036,0.069-0.046c0.029-0.011,0.057-0.016,0.088-0.016c0.082,0,0.144,0.032,0.185,0.101
					c0.059,0.09,0.133,0.157,0.219,0.203c0.087,0.046,0.182,0.067,0.283,0.067c0.078,0,0.151-0.014,0.222-0.046
					c0.07-0.029,0.131-0.074,0.184-0.126c0.052-0.053,0.093-0.113,0.124-0.185c0.031-0.072,0.048-0.147,0.048-0.229
					c0-0.075-0.017-0.148-0.046-0.214c-0.026-0.066-0.082-0.132-0.162-0.199c-0.083-0.065-0.211-0.124-0.386-0.178
					C101.981,32.426,101.83,32.35,101.727,32.256z"/>
				<path fill="#FFFFFF" d="M105.834,32.941c0,0.323-0.113,0.6-0.34,0.821c-0.23,0.228-0.505,0.342-0.824,0.342
					c-0.32,0-0.595-0.114-0.822-0.342c-0.227-0.227-0.34-0.501-0.34-0.821c0-0.322,0.113-0.597,0.34-0.824
					c0.228-0.228,0.502-0.34,0.822-0.34c0.319,0,0.594,0.112,0.824,0.34c0.112,0.113,0.199,0.24,0.255,0.376
					C105.806,32.631,105.832,32.779,105.834,32.941z M104.67,32.21c-0.101,0-0.197,0.021-0.284,0.06
					c-0.09,0.039-0.167,0.091-0.23,0.156c-0.067,0.065-0.117,0.145-0.155,0.23c-0.037,0.09-0.057,0.185-0.057,0.285
					c0,0.098,0.02,0.192,0.057,0.282c0.038,0.088,0.088,0.167,0.155,0.23c0.063,0.067,0.141,0.119,0.23,0.157
					c0.087,0.039,0.184,0.059,0.284,0.059c0.102,0,0.198-0.02,0.286-0.059c0.089-0.038,0.165-0.09,0.232-0.159
					c0.065-0.065,0.116-0.144,0.155-0.23c0.037-0.088,0.057-0.183,0.057-0.28c0-0.101-0.02-0.193-0.057-0.283
					c-0.039-0.087-0.09-0.165-0.155-0.232c-0.067-0.065-0.144-0.117-0.232-0.156C104.868,32.23,104.771,32.21,104.67,32.21z"/>
				<path fill="#FFFFFF" d="M107.938,33.446c0.062,0,0.114,0.02,0.155,0.061c0.041,0.042,0.062,0.091,0.062,0.155
					c0,0.06-0.024,0.112-0.068,0.158c-0.216,0.188-0.469,0.284-0.76,0.284c-0.32,0-0.595-0.114-0.824-0.342
					c-0.226-0.227-0.34-0.501-0.34-0.821c0-0.322,0.114-0.597,0.34-0.824c0.229-0.228,0.504-0.34,0.824-0.34
					c0.292,0,0.544,0.095,0.76,0.282c0.049,0.045,0.073,0.099,0.073,0.166c0,0.06-0.021,0.112-0.061,0.153
					c-0.04,0.042-0.091,0.063-0.155,0.063c-0.052,0-0.1-0.018-0.142-0.051c-0.068-0.061-0.144-0.104-0.223-0.136
					c-0.076-0.029-0.161-0.046-0.253-0.046c-0.102,0-0.194,0.021-0.284,0.058c-0.087,0.039-0.165,0.092-0.234,0.157
					c-0.065,0.065-0.117,0.144-0.156,0.231c-0.036,0.089-0.058,0.184-0.058,0.285c0,0.1,0.021,0.195,0.058,0.284
					c0.039,0.088,0.091,0.166,0.156,0.231c0.069,0.065,0.147,0.118,0.234,0.155c0.09,0.038,0.183,0.058,0.284,0.058
					c0.092,0,0.177-0.017,0.253-0.044c0.079-0.029,0.152-0.075,0.223-0.136C107.839,33.462,107.883,33.446,107.938,33.446z"/>
				<path fill="#FFFFFF" d="M109.083,31.364c0,0.07-0.026,0.13-0.075,0.181c-0.049,0.05-0.111,0.074-0.182,0.074
					s-0.131-0.024-0.182-0.074c-0.049-0.051-0.073-0.11-0.073-0.181s0.024-0.131,0.073-0.181c0.051-0.05,0.111-0.075,0.182-0.075
					s0.133,0.025,0.182,0.075S109.083,31.294,109.083,31.364z M108.61,33.886v-1.89c0-0.062,0.021-0.112,0.063-0.155
					c0.044-0.042,0.095-0.063,0.153-0.063c0.061,0,0.109,0.021,0.152,0.063c0.042,0.043,0.063,0.094,0.066,0.155v1.89
					c-0.003,0.061-0.024,0.112-0.066,0.155c-0.043,0.041-0.092,0.063-0.152,0.063c-0.059,0-0.109-0.022-0.153-0.063
					C108.632,33.998,108.61,33.946,108.61,33.886z"/>
				<path fill="#FFFFFF" d="M111.384,33.888v-0.041c-0.104,0.083-0.217,0.146-0.338,0.189c-0.123,0.046-0.254,0.068-0.391,0.068
					c-0.322,0-0.597-0.114-0.824-0.342c-0.227-0.227-0.34-0.501-0.34-0.821c0-0.322,0.113-0.597,0.34-0.824
					c0.228-0.228,0.502-0.34,0.824-0.34c0.318,0,0.593,0.112,0.822,0.34c0.227,0.228,0.341,0.502,0.341,0.824v0.946
					c0,0.06-0.022,0.11-0.065,0.153c-0.04,0.041-0.091,0.063-0.151,0.063c-0.059,0-0.113-0.022-0.153-0.063
					C111.405,33.998,111.384,33.947,111.384,33.888z M110.655,32.21c-0.104,0-0.198,0.021-0.288,0.06
					c-0.088,0.039-0.163,0.091-0.23,0.156c-0.063,0.065-0.115,0.145-0.155,0.23c-0.037,0.09-0.056,0.185-0.056,0.285
					c0,0.098,0.019,0.192,0.056,0.282c0.04,0.088,0.092,0.167,0.155,0.23c0.067,0.067,0.143,0.119,0.23,0.157
					c0.09,0.039,0.185,0.059,0.288,0.059c0.102,0,0.196-0.02,0.284-0.059c0.088-0.038,0.165-0.09,0.232-0.159
					c0.065-0.065,0.116-0.144,0.155-0.23c0.039-0.088,0.057-0.183,0.057-0.28c0-0.101-0.018-0.193-0.057-0.283
					c-0.039-0.087-0.09-0.165-0.155-0.232c-0.067-0.065-0.145-0.117-0.232-0.156S110.757,32.21,110.655,32.21z"/>
				<path fill="#FFFFFF" d="M112.739,31.364c0,0.07-0.026,0.13-0.075,0.181c-0.05,0.05-0.111,0.074-0.18,0.074
					c-0.072,0-0.133-0.024-0.182-0.074c-0.051-0.051-0.075-0.11-0.075-0.181s0.024-0.131,0.075-0.181
					c0.049-0.05,0.109-0.075,0.182-0.075c0.068,0,0.13,0.025,0.18,0.075C112.713,31.233,112.739,31.294,112.739,31.364z
					 M112.267,33.886v-1.89c0-0.062,0.021-0.112,0.063-0.155c0.041-0.042,0.094-0.063,0.154-0.063c0.059,0,0.109,0.021,0.151,0.063
					c0.041,0.043,0.063,0.094,0.065,0.155v1.89c-0.003,0.061-0.024,0.112-0.065,0.155c-0.042,0.041-0.093,0.063-0.151,0.063
					c-0.061,0-0.113-0.022-0.154-0.063C112.288,33.998,112.267,33.946,112.267,33.886z"/>
				<path fill="#FFFFFF" d="M113.572,32.996c-0.129-0.05-0.222-0.101-0.276-0.153h0.002c-0.104-0.107-0.157-0.232-0.157-0.376
					c0-0.106,0.028-0.201,0.085-0.286c0.056-0.085,0.13-0.156,0.22-0.217s0.19-0.106,0.306-0.138
					c0.11-0.034,0.226-0.049,0.338-0.049c0.347,0,0.644,0.139,0.891,0.417c0.029,0.036,0.044,0.081,0.044,0.131
					c0,0.062-0.02,0.114-0.061,0.155c-0.04,0.04-0.091,0.062-0.155,0.062c-0.045,0-0.081-0.013-0.114-0.037
					c-0.029-0.024-0.061-0.053-0.09-0.082c-0.141-0.141-0.312-0.213-0.515-0.213c-0.199,0-0.357,0.063-0.479,0.186
					c-0.02,0.021-0.033,0.052-0.033,0.09c0,0.04,0.019,0.065,0.054,0.078l0.973,0.32c0.136,0.053,0.228,0.104,0.274,0.153h-0.001
					c0.104,0.108,0.158,0.234,0.158,0.378c0,0.106-0.029,0.201-0.085,0.284c-0.056,0.087-0.129,0.158-0.219,0.219
					c-0.092,0.061-0.191,0.106-0.305,0.138c-0.11,0.032-0.225,0.049-0.338,0.049c-0.35,0-0.646-0.139-0.891-0.415
					c-0.029-0.039-0.048-0.083-0.048-0.134c0-0.063,0.021-0.114,0.063-0.155c0.041-0.039,0.093-0.061,0.155-0.061
					c0.046,0,0.083,0.013,0.116,0.041c0.032,0.026,0.061,0.052,0.088,0.076c0.141,0.141,0.314,0.213,0.517,0.213
					c0.198,0,0.356-0.063,0.479-0.187c0.02-0.024,0.03-0.054,0.03-0.085c0-0.039-0.021-0.065-0.055-0.082L113.572,32.996z"/>
			</g>
			<g>
				<path fill="#FFFFFF" d="M46.241,16.142c-0.613-0.563-1.041-1.14-1.287-1.73c-0.243-0.592-0.364-1.218-0.364-1.88
					c0-0.813,0.152-1.544,0.46-2.203c0.306-0.658,0.756-1.244,1.352-1.757H46.39c0.951-0.829,2.067-1.24,3.351-1.24
					c0.413,0,0.828,0.052,1.24,0.155c0.413,0.103,0.813,0.26,1.199,0.472c0.386,0.21,0.744,0.471,1.077,0.786
					c0.337,0.315,0.636,0.684,0.902,1.105c0.123,0.216,0.185,0.449,0.185,0.709c0,0.189-0.032,0.363-0.098,0.52
					c-0.067,0.159-0.16,0.296-0.279,0.417c-0.12,0.119-0.262,0.211-0.422,0.279c-0.162,0.063-0.334,0.099-0.517,0.099
					c-0.163,0-0.313-0.025-0.439-0.075c-0.13-0.048-0.245-0.12-0.349-0.21c-0.103-0.091-0.204-0.197-0.297-0.316
					c-0.095-0.119-0.198-0.259-0.305-0.417c-0.197-0.289-0.469-0.505-0.812-0.65c-0.344-0.147-0.715-0.218-1.111-0.218
					c-0.314,0-0.62,0.063-0.919,0.191c-0.298,0.131-0.563,0.306-0.796,0.529c-0.23,0.223-0.418,0.487-0.563,0.793
					c-0.146,0.308-0.217,0.638-0.217,0.994c0,0.636,0.176,1.137,0.527,1.508c0.35,0.366,0.956,0.675,1.817,0.924
					c1.456,0.415,2.598,0.985,3.426,1.713c0.825,0.729,1.39,1.442,1.687,2.147c0.299,0.702,0.446,1.443,0.446,2.221
					c0,1.936-0.714,3.508-2.146,4.715h0.013c-1.15,0.978-2.458,1.465-3.922,1.465c-0.489,0-0.977-0.059-1.465-0.18
					s-0.958-0.296-1.407-0.528c-0.454-0.23-0.873-0.521-1.267-0.867c-0.394-0.347-0.735-0.741-1.024-1.181
					c-0.174-0.222-0.26-0.486-0.26-0.792c0-0.184,0.032-0.355,0.098-0.517c0.068-0.16,0.16-0.303,0.281-0.422
					c0.119-0.119,0.257-0.213,0.413-0.279c0.159-0.065,0.332-0.099,0.521-0.099c0.489,0,0.858,0.203,1.106,0.608
					c0.349,0.538,0.781,0.941,1.303,1.216c0.521,0.273,1.084,0.41,1.688,0.41c0.472,0,0.915-0.093,1.335-0.281
					c0.417-0.185,0.779-0.435,1.092-0.75c0.309-0.313,0.554-0.685,0.735-1.109c0.184-0.427,0.273-0.881,0.273-1.36
					c0-0.454-0.084-0.882-0.254-1.284c-0.17-0.4-0.497-0.798-0.979-1.191c-0.485-0.393-1.254-0.745-2.302-1.061
					C47.759,17.165,46.854,16.704,46.241,16.142z"/>
				<path fill="#FFFFFF" d="M68.182,25.896v-0.247c-0.619,0.495-1.294,0.876-2.023,1.143c-0.727,0.263-1.505,0.396-2.332,0.396
					c-1.92,0-3.558-0.679-4.916-2.035c-1.354-1.356-2.033-2.994-2.033-4.914c0-1.919,0.679-3.558,2.033-4.913
					c1.358-1.358,2.996-2.036,4.916-2.036c1.902,0,3.542,0.678,4.913,2.036c1.358,1.355,2.036,2.994,2.036,4.913v5.658
					c0,0.357-0.127,0.66-0.377,0.913c-0.254,0.254-0.558,0.378-0.912,0.378c-0.364,0-0.674-0.124-0.927-0.378
					C68.308,26.556,68.182,26.253,68.182,25.896z M63.826,15.882c-0.612,0-1.184,0.116-1.713,0.347
					c-0.527,0.233-0.988,0.544-1.378,0.938c-0.387,0.395-0.695,0.854-0.925,1.383c-0.227,0.529-0.34,1.094-0.34,1.688
					s0.113,1.157,0.34,1.688c0.229,0.529,0.538,0.99,0.925,1.383c0.39,0.394,0.851,0.706,1.378,0.938
					c0.529,0.23,1.101,0.349,1.713,0.349c0.604,0,1.172-0.118,1.7-0.349c0.527-0.231,0.992-0.546,1.383-0.942
					c0.392-0.399,0.704-0.858,0.931-1.385c0.228-0.524,0.342-1.087,0.342-1.682s-0.114-1.157-0.342-1.682
					c-0.227-0.524-0.539-0.987-0.931-1.385c-0.391-0.396-0.855-0.709-1.383-0.942C64.998,15.998,64.43,15.882,63.826,15.882z"/>
				<path fill="#FFFFFF" d="M75.354,14.827c1.233-1.026,2.687-1.539,4.357-1.539c1.902,0,3.541,0.678,4.916,2.036
					c0.678,0.669,1.185,1.415,1.524,2.237c0.34,0.824,0.509,1.715,0.509,2.676c0,1.937-0.679,3.574-2.033,4.914
					c-1.375,1.356-3.014,2.035-4.916,2.035c-1.919,0-3.557-0.679-4.913-2.035c-1.358-1.356-2.038-2.994-2.038-4.914V8.622
					c0-0.374,0.122-0.684,0.367-0.925c0.244-0.245,0.551-0.366,0.926-0.366c0.362,0,0.67,0.121,0.923,0.366
					c0.254,0.241,0.378,0.551,0.378,0.925V14.827z M79.711,24.595c0.604,0,1.171-0.118,1.701-0.349
					c0.527-0.231,0.988-0.546,1.383-0.942c0.394-0.399,0.702-0.858,0.93-1.385c0.227-0.524,0.342-1.087,0.342-1.682
					s-0.115-1.157-0.342-1.682c-0.228-0.524-0.536-0.987-0.93-1.385c-0.395-0.396-0.855-0.709-1.383-0.942
					c-0.53-0.23-1.097-0.347-1.701-0.347c-0.613,0-1.184,0.116-1.712,0.347c-0.529,0.233-0.99,0.544-1.379,0.938
					c-0.389,0.395-0.696,0.854-0.925,1.383c-0.228,0.529-0.342,1.094-0.342,1.688s0.114,1.157,0.342,1.688
					c0.229,0.529,0.536,0.99,0.925,1.383c0.389,0.394,0.85,0.706,1.379,0.938C78.527,24.477,79.098,24.595,79.711,24.595z"/>
				<path fill="#FFFFFF" d="M99.218,23.277c0.373,0,0.682,0.122,0.925,0.367c0.246,0.244,0.366,0.551,0.366,0.924
					c0,0.362-0.122,0.673-0.372,0.932c-1.281,1.124-2.797,1.687-4.542,1.687c-1.919,0-3.557-0.679-4.913-2.035
					s-2.034-2.994-2.034-4.914c0-1.919,0.678-3.558,2.034-4.913c1.356-1.358,2.994-2.036,4.913-2.036
					c1.904,0,3.542,0.678,4.914,2.036c0.679,0.669,1.188,1.415,1.526,2.237c0.341,0.824,0.511,1.715,0.511,2.676
					c0,0.372-0.126,0.682-0.38,0.925c-0.253,0.243-0.561,0.366-0.923,0.366h-9.829c0.141,0.454,0.347,0.871,0.621,1.245
					c0.271,0.38,0.592,0.701,0.961,0.97c0.368,0.268,0.773,0.479,1.216,0.626c0.443,0.15,0.904,0.226,1.383,0.226
					c0.548,0,1.048-0.084,1.502-0.25c0.454-0.165,0.876-0.412,1.267-0.744C98.61,23.394,98.896,23.285,99.218,23.277z
					 M99.778,18.946c-0.141-0.454-0.35-0.871-0.627-1.247c-0.278-0.376-0.601-0.698-0.97-0.968c-0.366-0.27-0.771-0.478-1.216-0.626
					c-0.442-0.15-0.898-0.224-1.371-0.224c-0.471,0-0.93,0.073-1.378,0.224c-0.446,0.148-0.854,0.356-1.228,0.626
					c-0.371,0.27-0.696,0.592-0.969,0.968c-0.273,0.376-0.476,0.793-0.606,1.247H99.778z"/>
				<path fill="#FFFFFF" d="M107.076,14.579v0.248c0.619-0.498,1.294-0.879,2.021-1.142c0.729-0.266,1.505-0.397,2.332-0.397
					c0.366,0,0.755,0.026,1.175,0.073c0.417,0.051,0.803,0.141,1.154,0.267c0.35,0.129,0.643,0.304,0.874,0.528
					c0.23,0.222,0.347,0.513,0.347,0.869c0,0.182-0.034,0.353-0.104,0.507c-0.068,0.158-0.163,0.296-0.279,0.418
					c-0.116,0.119-0.254,0.213-0.409,0.278c-0.158,0.066-0.326,0.101-0.51,0.101c-0.156,0-0.338-0.045-0.546-0.139
					c-0.521-0.204-1.087-0.309-1.701-0.309c-0.602,0-1.17,0.114-1.698,0.34c-0.529,0.229-0.992,0.538-1.386,0.932
					c-0.393,0.394-0.703,0.854-0.928,1.384c-0.229,0.53-0.342,1.097-0.342,1.7v5.658c0,0.357-0.128,0.66-0.38,0.913
					c-0.251,0.254-0.556,0.378-0.911,0.378c-0.365,0-0.674-0.124-0.926-0.378c-0.253-0.253-0.377-0.556-0.377-0.913V14.579
					c0-0.356,0.124-0.66,0.377-0.914c0.252-0.251,0.561-0.377,0.926-0.377c0.355,0,0.66,0.126,0.911,0.377
					C106.948,13.919,107.076,14.223,107.076,14.579z"/>
			</g>
		</g>
		<g>
			<path fill-rule="evenodd" clip-rule="evenodd" fill="#FFFFFF" d="M37.298,0.841H4.951c-1.094,0-1.986,0.894-1.986,1.984v32.35
				c0,1.091,0.893,1.984,1.986,1.984h32.347c1.093,0,1.985-0.894,1.985-1.984V2.825C39.283,1.734,38.391,0.841,37.298,0.841z
				 M37.097,19.056c-0.018,3.526-2.88,6.381-6.41,6.381c-1.914,0-3.63-0.841-4.803-2.171c-1.176,1.33-2.894,2.171-4.807,2.171
				c-3.539,0-6.408-2.869-6.408-6.409s2.869-6.409,6.408-6.409c3.541,0,6.409,2.869,6.409,6.409c0,0.011,0,0.019,0,0.028h0.007
				c0,1.771,1.437,3.205,3.207,3.205c1.771,0,3.204-1.434,3.204-3.205H33.89c0-0.002,0.002-0.002,0.002-0.005
				c0-7.078-5.739-12.818-12.818-12.818c-7.08,0-12.817,5.74-12.817,12.818c0,7.08,5.737,12.819,12.817,12.819
				c2.983,0,5.726-1.022,7.902-2.73c0.289-0.286,0.685-0.463,1.121-0.463c0.886,0,1.604,0.72,1.604,1.604
				c0,0.59-0.318,1.104-0.793,1.381c-2.716,2.116-6.125,3.378-9.834,3.378c-8.85,0-16.022-7.173-16.022-16.022
				c0-8.849,7.173-16.023,16.022-16.023c8.849,0,16.023,7.175,16.023,16.023c0,0.013-0.002,0.025-0.002,0.039H37.097z
				 M23.235,28.659c0,1.178-0.956,2.136-2.138,2.136c-1.178,0-2.134-0.958-2.134-2.136c0-1.181,0.956-2.137,2.134-2.137
				C22.279,26.522,23.235,27.479,23.235,28.659z M18.964,9.428c0-1.18,0.956-2.136,2.134-2.136c1.182,0,2.138,0.956,2.138,2.136
				s-0.956,2.138-2.138,2.138C19.92,11.565,18.964,10.607,18.964,9.428z"/>
			<path fill-rule="evenodd" clip-rule="evenodd" fill="#FFFFFF" d="M21.09,15.849c-1.77,0-3.205,1.437-3.205,3.207
				c0,1.771,1.436,3.205,3.205,3.205c1.695,0,3.079-1.313,3.195-2.978c-0.003-0.075-0.005-0.15-0.007-0.228h0.019l0,0
				C24.297,17.285,22.861,15.849,21.09,15.849z"/>
		</g>
	</g>
</g>
<g id="Layer_5">
</g>
<g id="cores">
</g>
</svg>
