<?xml version="1.0" encoding="utf-8"?>
<!-- Generator: Adobe Illustrator 16.0.0, SVG Export Plug-In . SVG Version: 6.00 Build 0)  -->
<!DOCTYPE svg PUBLIC "-//W3C//DTD SVG 1.1//EN" "http://www.w3.org/Graphics/SVG/1.1/DTD/svg11.dtd">
<svg version="1.1" xmlns="http://www.w3.org/2000/svg" xmlns:xlink="http://www.w3.org/1999/xlink" x="0px" y="0px" width="97px"
	 height="50px" viewBox="0 0 97 50" enable-background="new 0 0 97 50" xml:space="preserve">
<g id="projeto">
	<g>
		<path fill-rule="evenodd" clip-rule="evenodd" fill="#FFFFFF" d="M91.669,36.492c0,0.566,0.1,1.008,0.291,1.322
			c0.195,0.309,0.477,0.467,0.844,0.467c0.43,0,0.76-0.152,0.986-0.459c0.229-0.307,0.342-0.748,0.342-1.33
			c0-1.143-0.42-1.711-1.266-1.711c-0.383,0-0.678,0.152-0.883,0.461C91.776,35.551,91.669,35.969,91.669,36.492 M90.774,36.492
			c0-0.695,0.189-1.285,0.568-1.762c0.381-0.479,0.893-0.719,1.523-0.719c0.703,0,1.236,0.219,1.607,0.65
			c0.367,0.436,0.557,1.043,0.557,1.83c0,0.783-0.197,1.404-0.582,1.865s-0.938,0.693-1.645,0.693c-0.656,0-1.156-0.23-1.502-0.688
			C90.952,37.91,90.774,37.285,90.774,36.492z M90.179,34.357l-0.357,0.715c-0.189-0.193-0.502-0.289-0.928-0.289
			c-0.404,0-0.736,0.168-0.996,0.51s-0.391,0.77-0.391,1.291c0,0.52,0.121,0.932,0.361,1.238s0.561,0.459,0.961,0.459
			c0.461,0,0.818-0.162,1.076-0.494l0.404,0.699c-0.352,0.375-0.867,0.564-1.549,0.564c-0.68,0-1.209-0.225-1.584-0.676
			c-0.381-0.443-0.564-1.055-0.564-1.828c0-0.719,0.207-1.324,0.625-1.805c0.416-0.484,0.953-0.727,1.602-0.727
			C89.399,34.016,89.847,34.127,90.179,34.357z M82.229,34.1h0.865v3.299c0,0.26,0.08,0.475,0.242,0.639
			c0.156,0.162,0.377,0.244,0.654,0.244c0.313,0,0.559-0.078,0.73-0.242c0.174-0.158,0.262-0.379,0.262-0.66V34.1h0.863v3.348
			c0,0.5-0.168,0.895-0.502,1.178c-0.338,0.283-0.785,0.426-1.346,0.426c-0.564,0-1-0.143-1.309-0.416
			c-0.305-0.277-0.461-0.674-0.461-1.191V34.1z M79.044,36.635v1.607c0.174,0.016,0.316,0.021,0.426,0.021
			c0.385,0,0.666-0.064,0.838-0.193c0.176-0.133,0.262-0.35,0.262-0.652c0-0.277-0.08-0.48-0.238-0.604
			c-0.166-0.129-0.449-0.191-0.852-0.191C79.394,36.623,79.249,36.629,79.044,36.635z M79.044,34.793v1.166
			c0.135,0.01,0.275,0.014,0.42,0.014c0.563,0,0.844-0.211,0.844-0.635c0-0.375-0.256-0.561-0.77-0.561
			C79.403,34.777,79.241,34.781,79.044,34.793z M79.669,38.965h-1.486v-4.863c0.654-0.031,1.115-0.045,1.377-0.045
			c0.506,0,0.898,0.105,1.186,0.32c0.285,0.217,0.428,0.527,0.428,0.926c0,0.389-0.205,0.691-0.611,0.914
			c0.604,0.211,0.906,0.646,0.906,1.303c0,0.443-0.168,0.797-0.502,1.057C80.63,38.834,80.198,38.965,79.669,38.965z M77.647,38.971
			h-0.836l-0.508-2.627l-0.979,2.688h-0.309l-0.98-2.688l-0.527,2.627h-0.83l0.979-4.871h0.459l1.053,3.279l1.029-3.279h0.455
			L77.647,38.971z M70.448,35.52l-0.586,1.797h1.172L70.448,35.52z M71.64,38.965l-0.354-0.986h-1.67l-0.34,0.986h-0.959
			l1.939-4.932h0.381l1.957,4.932H71.64z M67.448,39.031l-2.359-3.082v3.021h-0.832V34.1h0.414l2.303,2.936V34.1h0.83v4.932H67.448z
			 M60.997,34.85v1.35c0.16,0.018,0.283,0.021,0.363,0.021c0.363,0,0.625-0.049,0.795-0.154c0.166-0.104,0.248-0.297,0.248-0.594
			c0-0.24-0.088-0.404-0.268-0.5c-0.178-0.096-0.457-0.145-0.846-0.145C61.196,34.828,61.097,34.834,60.997,34.85z M62.845,38.965
			l-1.299-2.01c-0.131-0.004-0.316-0.01-0.549-0.023v2.033h-0.896V34.1c0.049,0,0.236-0.01,0.561-0.025
			c0.326-0.018,0.59-0.025,0.789-0.025c1.234,0,1.855,0.479,1.855,1.434c0,0.289-0.086,0.555-0.258,0.789
			c-0.172,0.236-0.385,0.404-0.646,0.502l1.439,2.191H62.845z M57.093,34.865v1.141H58.7v0.734h-1.607v1.459h2.209v0.766h-3.072
			V34.1h3.107v0.766H57.093z M52.44,33.82v1.945c0.186,0.021,0.328,0.031,0.434,0.031c0.492,0,0.852-0.08,1.08-0.248
			c0.225-0.166,0.34-0.43,0.34-0.803c0-0.631-0.51-0.945-1.523-0.945C52.657,33.801,52.546,33.805,52.44,33.82z M52.44,36.729v2.236
			h-1.078v-6.078c0.719-0.033,1.143-0.049,1.264-0.049c0.961,0,1.66,0.146,2.105,0.443c0.447,0.297,0.666,0.756,0.666,1.381
			c0,1.396-0.82,2.092-2.465,2.092C52.81,36.754,52.647,36.746,52.44,36.729z M45.667,34.865v1.141h1.607v0.734h-1.607v1.459h2.205
			v0.766h-3.066V34.1h3.104v0.766H45.667z M41.296,34.857v3.322c0.141,0.012,0.289,0.02,0.453,0.02c0.436,0,0.777-0.16,1.023-0.479
			c0.246-0.316,0.369-0.758,0.369-1.326c0-1.043-0.482-1.561-1.451-1.561C41.597,34.834,41.466,34.84,41.296,34.857z M41.509,38.965
			h-1.076v-4.863c0.686-0.023,1.121-0.035,1.297-0.035c0.711,0,1.271,0.205,1.686,0.621c0.416,0.418,0.625,0.967,0.625,1.652
			C44.04,38.092,43.196,38.965,41.509,38.965z M65.765,28.893v-4.871h0.861v4.102h2.201v0.77H65.765z M63.103,25.447l-0.588,1.795
			h1.172L63.103,25.447z M64.294,28.893l-0.355-0.988h-1.67l-0.336,0.988H60.97l1.941-4.938h0.379l1.955,4.938H64.294z
			 M58.405,24.771v1.355c0.16,0.012,0.279,0.018,0.363,0.018c0.363,0,0.629-0.051,0.795-0.15c0.166-0.102,0.25-0.299,0.25-0.598
			c0-0.236-0.09-0.404-0.27-0.5c-0.176-0.092-0.459-0.143-0.846-0.143C58.606,24.754,58.507,24.762,58.405,24.771z M60.253,28.893
			l-1.299-2.014c-0.133-0.002-0.313-0.01-0.549-0.02v2.033h-0.896v-4.871c0.047,0,0.236-0.006,0.561-0.025
			c0.326-0.014,0.588-0.023,0.787-0.023c1.236,0,1.855,0.479,1.855,1.434c0,0.289-0.086,0.553-0.256,0.789
			c-0.172,0.236-0.385,0.406-0.643,0.5l1.438,2.197H60.253z M54.501,24.791v1.139h1.607v0.732h-1.607v1.461h2.205v0.77h-3.068
			v-4.871h3.107v0.77H54.501z M50.128,24.781v3.324c0.141,0.012,0.293,0.018,0.453,0.018c0.438,0,0.779-0.158,1.025-0.475
			c0.246-0.318,0.369-0.76,0.369-1.33c0-1.039-0.482-1.563-1.451-1.563C50.433,24.756,50.3,24.764,50.128,24.781z M50.347,28.893
			h-1.082v-4.867c0.691-0.021,1.123-0.037,1.301-0.037c0.709,0,1.27,0.207,1.686,0.623s0.623,0.969,0.623,1.654
			C52.874,28.014,52.03,28.893,50.347,28.893z M46.257,24.791v1.139h1.609v0.732h-1.609v1.461h2.209v0.77h-3.072v-4.871h3.107v0.77
			H46.257z M41.636,23.766v1.426h2.139v0.916h-2.139v2.785h-1.082v-6.088h4.012v0.961H41.636z M84.185,14.715v1.143h1.605v0.732
			h-1.605v1.461h2.205v0.764h-3.07v-4.867h3.109v0.768H84.185z M79.812,14.705v3.324c0.139,0.012,0.291,0.021,0.451,0.021
			c0.436,0,0.777-0.162,1.023-0.477c0.248-0.318,0.371-0.764,0.371-1.328c0-1.043-0.482-1.564-1.449-1.564
			C80.112,14.682,79.981,14.693,79.812,14.705z M80.026,18.814h-1.078v-4.863c0.689-0.025,1.119-0.035,1.299-0.035
			c0.709,0,1.268,0.203,1.686,0.621c0.414,0.414,0.625,0.967,0.625,1.652C82.558,17.941,81.708,18.814,80.026,18.814z
			 M76.284,15.371L75.7,17.164h1.17L76.284,15.371z M77.476,18.814l-0.355-0.986h-1.668l-0.336,0.986h-0.961l1.939-4.932h0.381
			l1.957,4.932H77.476z M71.128,14.705v3.324c0.141,0.012,0.291,0.021,0.453,0.021c0.436,0,0.777-0.162,1.023-0.477
			c0.248-0.318,0.373-0.764,0.373-1.328c0-1.043-0.486-1.564-1.453-1.564C71.429,14.682,71.3,14.693,71.128,14.705z M71.345,18.814
			h-1.08v-4.863c0.688-0.025,1.121-0.035,1.299-0.035c0.709,0,1.27,0.203,1.684,0.621c0.416,0.414,0.625,0.967,0.625,1.652
			C73.872,17.941,73.03,18.814,71.345,18.814z M68.386,18.814v-4.867h0.863v4.867H68.386z M64.659,18.545l0.316-0.773
			c0.344,0.236,0.678,0.359,1.008,0.359c0.504,0,0.76-0.178,0.76-0.533c0-0.164-0.059-0.324-0.18-0.473
			c-0.117-0.15-0.363-0.318-0.74-0.508c-0.369-0.186-0.623-0.34-0.752-0.461s-0.227-0.268-0.299-0.432
			c-0.068-0.166-0.104-0.352-0.104-0.553c0-0.375,0.137-0.688,0.41-0.936c0.277-0.248,0.631-0.369,1.064-0.369
			c0.561,0,0.975,0.104,1.238,0.311l-0.262,0.746c-0.305-0.217-0.625-0.324-0.959-0.324c-0.199,0-0.355,0.051-0.467,0.158
			c-0.107,0.105-0.162,0.242-0.162,0.408c0,0.281,0.311,0.57,0.926,0.873c0.328,0.158,0.563,0.305,0.707,0.438
			c0.141,0.135,0.25,0.291,0.326,0.469c0.078,0.18,0.113,0.381,0.113,0.6c0,0.393-0.156,0.715-0.467,0.973
			c-0.311,0.256-0.725,0.383-1.25,0.383C65.433,18.9,65.022,18.781,64.659,18.545z M61.63,14.701v1.35
			c0.16,0.014,0.283,0.021,0.369,0.021c0.359,0,0.621-0.051,0.789-0.156c0.168-0.1,0.25-0.297,0.25-0.592
			c0-0.24-0.086-0.408-0.266-0.502c-0.184-0.096-0.465-0.145-0.85-0.145C61.831,14.678,61.733,14.684,61.63,14.701z M63.479,18.814
			l-1.301-2.008c-0.131-0.004-0.313-0.012-0.549-0.023v2.031h-0.895v-4.867c0.047,0,0.234-0.008,0.563-0.025
			c0.324-0.016,0.588-0.023,0.783-0.023c1.236,0,1.855,0.477,1.855,1.436c0,0.289-0.084,0.549-0.258,0.787
			c-0.17,0.236-0.383,0.402-0.641,0.5l1.439,2.193H63.479z M57.728,14.715v1.143h1.607v0.732h-1.607v1.461h2.205v0.764h-3.068
			v-4.867h3.109v0.768H57.728z M54.446,18.883h-0.475l-1.822-4.936h0.951l1.127,3.293l1.189-3.293h0.934L54.446,18.883z
			 M50.755,18.814v-4.867h0.865v4.867H50.755z M49.392,18.883l-2.363-3.082v3.02h-0.83v-4.873h0.414l2.299,2.938v-2.938h0.83v4.936
			H49.392z M40.554,12.73h1.082v4.123c0,0.332,0.098,0.596,0.299,0.799c0.197,0.205,0.471,0.309,0.822,0.309
			c0.393,0,0.695-0.1,0.912-0.303s0.324-0.473,0.324-0.824V12.73h1.08v4.188c0,0.627-0.209,1.115-0.629,1.469
			c-0.416,0.355-0.98,0.533-1.68,0.533c-0.703,0-1.25-0.176-1.633-0.521c-0.385-0.346-0.578-0.84-0.578-1.486V12.73z"/>
		<path fill-rule="evenodd" clip-rule="evenodd" fill="#FFFFFF" d="M30.169,43.256l0.641,0.104l-0.189-0.9L30.169,43.256z
			 M29.405,44.002l1.129-1.994l0.432,0.072l0.475,2.252l-0.439-0.072l-0.129-0.602l-0.855-0.141l-0.301,0.531L29.405,44.002z
			 M27.839,43.436l0.324,0.047c0.164,0.025,0.295,0.014,0.395-0.023c0.096-0.043,0.178-0.123,0.246-0.244
			c0.07-0.121,0.115-0.258,0.137-0.416c0.02-0.148,0.014-0.285-0.021-0.41c-0.033-0.123-0.092-0.223-0.17-0.297
			c-0.084-0.072-0.229-0.125-0.441-0.152l-0.26-0.039L27.839,43.436z M27.368,43.676l0.289-2.131l0.891,0.129
			c0.238,0.035,0.418,0.102,0.541,0.201c0.123,0.098,0.215,0.227,0.268,0.393c0.061,0.162,0.072,0.355,0.045,0.572
			c-0.029,0.211-0.092,0.395-0.193,0.553c-0.094,0.154-0.221,0.27-0.381,0.346c-0.154,0.076-0.357,0.098-0.607,0.063L27.368,43.676z
			 M26.411,43.578l0.217-2.137l0.43,0.047l-0.215,2.137L26.411,43.578z M24.935,43.383l-0.588-2.211l0.463,0.041l0.457,1.711
			l0.717-1.604l0.311,0.025l-0.924,2.078L24.935,43.383z M22.747,42.369l0.648,0.035l-0.279-0.873L22.747,42.369z M22.062,43.193
			l0.922-2.104l0.438,0.023l0.701,2.191l-0.447-0.023l-0.188-0.584l-0.863-0.047l-0.244,0.563L22.062,43.193z M20.985,41.99
			l0.08,0.004c0.16,0.004,0.277-0.031,0.357-0.105c0.078-0.076,0.117-0.166,0.121-0.277c0-0.057-0.01-0.111-0.031-0.158
			c-0.021-0.053-0.057-0.094-0.102-0.121c-0.051-0.031-0.129-0.049-0.24-0.053l-0.162-0.004L20.985,41.99z M20.522,43.113
			l0.072-2.15l0.715,0.025c0.211,0.01,0.355,0.035,0.438,0.082c0.084,0.051,0.148,0.119,0.188,0.201
			c0.041,0.082,0.057,0.188,0.053,0.313c-0.006,0.24-0.086,0.42-0.24,0.539c-0.15,0.123-0.35,0.178-0.594,0.17l-0.178-0.008
			l-0.031,0.842L20.522,43.113z M17.896,43.072v-2.15h0.576l0.504,1.516l0.518-1.516h0.506v2.15h-0.4v-1.619l-0.512,1.477h-0.35
			l-0.498-1.502v1.645H17.896z M16.937,43.068l-0.035-2.148l0.434-0.008l0.037,2.148L16.937,43.068z M14.247,43.139l-0.012-0.369
			c0.162,0.063,0.287,0.104,0.367,0.111c0.082,0.01,0.156,0.016,0.225,0.012c0.121-0.002,0.211-0.035,0.268-0.094
			c0.059-0.057,0.088-0.127,0.086-0.203c-0.004-0.061-0.021-0.115-0.059-0.16c-0.035-0.049-0.117-0.105-0.254-0.176l-0.141-0.074
			c-0.207-0.109-0.346-0.211-0.422-0.307c-0.074-0.098-0.113-0.207-0.117-0.336c-0.006-0.164,0.049-0.303,0.166-0.422
			s0.285-0.184,0.512-0.189c0.17-0.008,0.357,0.01,0.572,0.053l0.01,0.344c-0.221-0.076-0.391-0.111-0.52-0.105
			c-0.102,0.004-0.184,0.029-0.234,0.078c-0.055,0.049-0.078,0.109-0.078,0.172c0.004,0.051,0.02,0.096,0.055,0.139
			c0.033,0.045,0.117,0.102,0.252,0.17l0.156,0.084c0.232,0.123,0.383,0.23,0.449,0.328s0.104,0.203,0.105,0.33
			c0.004,0.174-0.053,0.328-0.182,0.457c-0.123,0.129-0.33,0.199-0.613,0.211C14.671,43.193,14.474,43.18,14.247,43.139z
			 M12.073,41.178l0.434-0.033l0.088,1.318c0.018,0.238,0.068,0.391,0.15,0.465c0.084,0.068,0.189,0.1,0.313,0.088
			c0.121-0.002,0.221-0.049,0.285-0.133c0.068-0.08,0.096-0.229,0.08-0.447l-0.092-1.346l0.377-0.031l0.09,1.318
			c0.018,0.248,0,0.428-0.055,0.541c-0.055,0.111-0.135,0.205-0.244,0.275c-0.111,0.066-0.254,0.109-0.43,0.123
			c-0.172,0.01-0.322-0.008-0.449-0.057c-0.129-0.047-0.232-0.127-0.313-0.234s-0.127-0.287-0.146-0.533L12.073,41.178z
			 M10.757,43.449l-0.158-1.848l-0.744,0.066l-0.025-0.291l1.924-0.176l0.025,0.295l-0.744,0.066l0.158,1.85L10.757,43.449z
			 M8.542,42.539l0.1-0.016c0.178-0.02,0.295-0.074,0.354-0.162c0.059-0.092,0.08-0.186,0.068-0.285
			c-0.01-0.088-0.047-0.156-0.104-0.199c-0.064-0.045-0.178-0.057-0.348-0.033l-0.15,0.02L8.542,42.539z M8.272,43.756l-0.25-2.137
			l0.773-0.098c0.158-0.021,0.283-0.012,0.371,0.016c0.086,0.031,0.16,0.086,0.217,0.162c0.059,0.078,0.094,0.168,0.107,0.273
			c0.014,0.123-0.008,0.246-0.063,0.367c-0.059,0.119-0.148,0.215-0.27,0.289l0.799,0.912l-0.525,0.068l-0.617-0.807l-0.24,0.029
			l0.105,0.871L8.272,43.756z M7.315,43.928l-0.291-2.127l0.43-0.066l0.293,2.131L7.315,43.928z M5.862,44.209l-1.125-1.98
			l0.459-0.082l0.871,1.531l0.289-1.742l0.307-0.057l-0.371,2.252L5.862,44.209z M3.386,40.789c10.264-2.324,21.336-1.773,29.441,0
			l-0.496,2.889c0.576,0.105,1.18,0.23,1.793,0.371l-0.828,4c-1.074-0.283-4.375-0.871-5.584-0.936l4.041-1.102v-0.07
			c-7.939-1.678-17.947-2.105-27.408,0.027v0.043l4.064,1.1C7.22,47.17,3.884,47.764,2.8,48.049l-0.83-4
			c0.656-0.15,1.301-0.279,1.914-0.393L3.386,40.789z"/>
		<path fill-rule="evenodd" clip-rule="evenodd" fill="#FFFFFF" d="M18.089,10.238c-0.729,0.006-3.051-0.418-3.063-1.957
			c-0.006-0.586,0.484-1.135,0.775-1.639c1.797-2.406,2.811-3.51,1.539-5.754c0.395,0.066,0.998,0.617,1.311,1.025
			c0.553,0.949,0.604,1.936,0.25,3.031c-0.371,0.914-1.59,2.051-1.207,3.102c0.357,0.975,1.609,1.053,1.201,0.027
			c-0.211-0.533-0.473-0.586-0.307-1.199c0.264-0.984,1.535-2.232,0.979-3.42c1.279,0.727,0.494,2.721,0.615,3.068
			c0.068,0.287,1.057,1.17,0.982,1.766C20.987,9.75,19.288,10.307,18.089,10.238"/>
		<path fill-rule="evenodd" clip-rule="evenodd" fill="#FFFFFF" d="M9.917,10.621c-0.73,0.004-3.051-0.422-3.063-1.957
			C6.849,8.08,7.337,7.527,7.63,7.023c1.795-2.408,2.811-3.51,1.539-5.756c0.395,0.066,1,0.623,1.313,1.025
			c0.551,0.949,0.602,1.936,0.25,3.033c-0.375,0.912-1.594,2.051-1.211,3.1c0.357,0.979,1.609,1.055,1.201,0.027
			c-0.211-0.529-0.469-0.582-0.303-1.193c0.262-0.986,1.531-2.236,0.975-3.424c1.281,0.729,0.496,2.721,0.617,3.068
			c0.066,0.291,1.057,1.17,0.982,1.762C12.812,10.131,11.116,10.688,9.917,10.621"/>
		<path fill-rule="evenodd" clip-rule="evenodd" fill="#FFFFFF" d="M26.263,10.621c-0.73,0.004-3.051-0.422-3.064-1.957
			c-0.002-0.584,0.484-1.137,0.777-1.641c1.797-2.408,2.811-3.51,1.539-5.756c0.396,0.066,0.998,0.623,1.311,1.025
			c0.553,0.949,0.602,1.936,0.248,3.033c-0.371,0.912-1.59,2.051-1.209,3.1c0.361,0.979,1.609,1.055,1.205,0.027
			c-0.211-0.529-0.469-0.582-0.309-1.193c0.266-0.986,1.535-2.236,0.979-3.424c1.283,0.729,0.496,2.721,0.617,3.068
			c0.066,0.291,1.055,1.17,0.982,1.762C29.157,10.131,27.464,10.688,26.263,10.621"/>
		<path fill-rule="evenodd" clip-rule="evenodd" fill="#FFFFFF" d="M18.099,15.811c-4.043,0-8.398,0.326-12.33,1.246
			c0.344,6.264,0.01,18.852,2.869,22.229c-0.357,0.059-0.715,0.117-1.07,0.184c-2.064-3.412-2.297-11.926-2.479-18.48
			c-0.047-1.732-0.092-3.326-0.156-4.656l-0.008-0.01l0.008-0.004c4.293-1.004,8.766-1.379,13.166-1.379s8.871,0.375,13.164,1.379
			l0.014,0.004v0.01c-0.074,1.33-0.119,2.924-0.168,4.656c-0.18,6.555-0.418,15.068-2.475,18.48
			c-0.359-0.066-0.719-0.125-1.074-0.184c2.863-3.377,2.523-15.965,2.865-22.229C26.495,16.137,22.142,15.811,18.099,15.811"/>
		<path fill-rule="evenodd" clip-rule="evenodd" fill="#FFFFFF" d="M20.206,12.785c-0.613-0.154-1.375-0.221-2.107-0.221
			c-0.734,0-1.494,0.066-2.109,0.221c-0.885-0.572-0.963-1.617-0.02-2.029c0.697-0.117,1.434-0.201,2.129-0.201
			c0.693,0,1.432,0.084,2.125,0.201C21.171,11.168,21.091,12.213,20.206,12.785"/>
		<path fill-rule="evenodd" clip-rule="evenodd" fill="#FFFFFF" d="M9.034,20.555c-0.639-2.172,1.299-3.465,2.586-3.559
			c3.529-0.26,5.58,0.613,9.5,0.85c1.455,0.014,2.879-0.049,4.346-0.654c-0.334,1.037-4.84,1.844-6.684,1.854
			c-0.65,0.002-1.342-0.041-1.982-0.141c-0.395-0.061-6.338-0.98-6.156,0.963c0.016,0.178,0.244,0.178,0.318,0.148
			c1.092-0.449,1.865-0.797,3.006-0.84c2.277-0.084,3.844,0.611,6.346,0.098c-1.746,1.143-6.197,0.748-7.098,1.016
			c-0.916,0.275-1.654,0.777-2.475,1.012C9.411,21.678,9.075,20.709,9.034,20.555"/>
		<path fill-rule="evenodd" clip-rule="evenodd" fill="#FFFFFF" d="M10.997,25.84c0.18-0.363,0.408-0.748,0.727-1.002
			c0.531-0.428,1.188,0.658,0.521,0.9C11.862,25.883,11.413,25.861,10.997,25.84"/>
		<path fill-rule="evenodd" clip-rule="evenodd" fill="#FFFFFF" d="M9.104,26.662c-0.313-0.152-0.688-0.32-1.029-0.422
			c0.318-0.086,0.635-0.242,0.932-0.379c-0.34-0.277-0.707-0.588-1.111-0.709c-0.604-0.176-0.752,0.807-0.346,1.07
			c-0.465,0.203-0.387,1.154,0.158,1.174c-0.18,0.289,0.127,0.896,0.512,0.693c0.287-0.152,0.602-0.535,0.723-0.693
			c-0.238-0.063-0.5-0.123-0.748-0.146C8.507,27.088,8.825,26.867,9.104,26.662"/>
		<path fill-rule="evenodd" clip-rule="evenodd" fill="#FFFFFF" d="M10.79,38.875c1.623-0.283,2.324-0.566,3.322-1.006
			c1.068-0.4,1.955-0.889,3.016-1.545c-0.979-0.064-1.795-0.441-2.424-0.92c-0.826-0.621-1.33-1.412-1.439-1.896
			c-0.098,0.545-0.277,1.01-0.604,1.467c-0.354,0.498-1.004,1.531-1.639,0.875c-0.301-0.205-1.184,0.246-1.691,0.131
			c-1.002-0.23-0.982,0.822-0.42,1.109c-0.473,0.322-0.271,1.164,0.379,1.236c-0.209,0.326,0.262,0.877,0.787,0.684
			C10.321,38.924,10.517,38.93,10.79,38.875"/>
		<path fill-rule="evenodd" clip-rule="evenodd" fill="#FFFFFF" d="M11.575,30.676c0.199,0.113,0.49,0.279,0.658,0.408
			c0.016,0.014,0.033,0.025,0.047,0.037c0.094-0.299,0.211-0.535,0.346-0.732c0.141-0.199,0.293-0.352,0.463-0.475
			c0.049-0.291,0.121-0.504,0.172-0.713c0.047-0.189,0.313-0.615,0.512-0.828c-0.088-0.043-0.268-0.053-0.398-0.074
			c-0.494-0.07-1.215-0.268-1.514-0.461c-0.043,0.477-0.092,0.945-0.143,1.412C11.667,29.721,11.62,30.189,11.575,30.676"/>
		<path fill-rule="evenodd" clip-rule="evenodd" fill="#FFFFFF" d="M11.888,21.68c0.41,0.221,0.754,0.432,0.736,1.086
			c-0.01,0.418-0.404,1.041-0.736,1.178H7.97c-0.338-0.137-0.727-0.76-0.738-1.178C7.216,22.111,7.558,21.9,7.97,21.68H11.888z"/>
		<path fill-rule="evenodd" clip-rule="evenodd" fill="#FFFFFF" d="M26.21,39.029c0.461-0.287,0.854-0.688,1.176-1.197l0,0
			c0.428-0.68,0.676-1.469,0.68-2.332c0.004-0.672-0.09-1.391-0.182-2.141c-0.115-0.947-2.021-5.521-2.451-6.396
			c-0.342-0.689-0.945-1.875-0.896-2.393c0.029-1.117,0.936-1.787,2.049-1.779c0.629,0.008,1.326,0.457,1.674,1.027l0,0
			c0.262,0.467,0.299,1.066,0.166,1.805c0,0.004-0.004,0.01-0.004,0.01c-1.146,1.092-0.92,1.863-0.52,3.223
			c0.24,0.822,0.545,1.855,0.646,3.301c0.123-1.189,0.229-2.346,0.328-3.496c0.107-1.236,0.248-1.842,0.336-3.102l0,0l0,0l0,0
			c0.035-0.875-0.105-1.758-0.555-2.367c-0.488-0.666-1.232-1.115-2.189-1.064c-2.221,0.109-3.301,2.021-2.34,3.889
			c0.729,1.414,1.668,3.75,2.246,5.238c0.586,1.496,0.854,2.766,0.334,3.279c-0.01,0.01-0.027,0.01-0.031-0.002
			c-0.549-0.764-1.34-1.037-2.16-1.32c-0.967-0.332-2.027-0.791-2.721-1.961c-0.148,0.305-0.408,0.57-0.695,0.789
			c-0.391,0.297-1.131,0.686-1.414,0.748c-0.016,0.004-0.029-0.014-0.023-0.027c0.033-0.068,0.063-0.137,0.086-0.229
			c0.021-0.084,0.031-0.184,0.031-0.314c-0.262,0.23-0.369,0.252-0.803,0.482c-1.021,0.543-2.107,1.039-2.002,2.141
			c0.117,1.254,1.543,1.588,3.111,1.686c0.91,0.055,1.818,0.113,2.545,0.4c0.008-0.131,0.096-0.379,0.223-0.596
			c0.092-0.158,0.223-0.311,0.396-0.387c0.016-0.008,0.035,0.01,0.027,0.027c-0.172,0.326-0.252,0.918-0.242,1.215
			C23.071,38.748,25.069,38.898,26.21,39.029"/>
		<path fill-rule="evenodd" clip-rule="evenodd" fill="#FFFFFF" d="M16.501,22.057l0.02-0.02c0-0.002,0-0.002,0.002-0.006l0,0
			c0.002,0,0.002-0.002,0.004-0.002l0,0c0.002-0.002,0.004-0.004,0.004-0.006l0,0l0.004-0.004l0,0c0,0,0.004-0.002,0.004-0.004l0,0
			c0,0,0.002-0.004,0.004-0.004l0,0c0.002,0,0.002,0,0.006-0.006l0,0c0-0.002,0-0.004,0.004-0.004l0,0l0.004-0.004l0,0
			c0.002-0.004,0.002-0.004,0.006-0.004l0,0c0,0,0.002-0.004,0.006-0.004l0,0c0-0.002,0-0.002,0-0.006l0,0
			c0.006,0,0.006-0.004,0.008-0.004l0,0c0.002-0.002,0.002-0.002,0.004-0.004l0,0c0.002-0.002,0.004-0.004,0.006-0.004l0,0
			c0,0,0.004-0.004,0.006-0.004l0,0l0.004-0.004l0,0c0.002-0.006,0.006-0.006,0.006-0.006l0,0c0.002,0,0.004-0.002,0.006-0.002l0,0
			c0.002-0.002,0.004-0.004,0.004-0.004l0,0c0.002-0.004,0.004-0.004,0.006-0.006l0,0c0.002-0.002,0.004-0.002,0.008-0.006l0,0
			c0,0,0.002-0.002,0.004-0.002l0,0c0.002-0.004,0.004-0.004,0.008-0.004l0,0c0,0,0.004-0.002,0.004-0.006l0,0
			c0.002-0.002,0.006-0.002,0.006-0.002l0.002-0.004c0,0,0,0,0.004,0l0,0c0.004-0.004,0.004-0.004,0.006-0.006l0,0
			c0.004,0,0.006-0.004,0.006-0.004h0.002c0.002-0.002,0.004-0.002,0.004-0.004l0,0c0.004,0,0.006-0.002,0.01-0.002l0,0
			c0-0.004,0.004-0.004,0.004-0.008l0,0c0.002,0,0.006-0.002,0.008-0.002l0,0c0,0,0.002-0.004,0.006-0.006l0,0
			c0,0,0.004-0.002,0.006-0.002l0,0c0.004,0,0.006-0.002,0.008-0.002l0,0c0.002-0.002,0.002-0.002,0.006-0.006l0,0
			c0.002,0,0.004-0.002,0.008-0.002l0,0c0-0.002,0.004-0.004,0.006-0.004l0,0c0.004-0.002,0.006-0.002,0.006-0.006l0,0
			c0.002,0,0.008-0.004,0.008-0.004l0,0c0.004,0,0.004,0,0.008-0.004l0,0c0,0,0.004-0.002,0.006-0.002l0,0
			c0.004,0,0.006-0.004,0.012-0.004l0,0c0,0,0.002,0,0.004-0.004l0,0c0.002,0,0.004-0.004,0.008-0.004l0,0
			c0.002,0,0.004,0,0.008-0.002l0,0c0-0.002,0.002-0.002,0.004-0.002l0,0c0.004,0,0.008-0.004,0.008-0.004l0,0
			c0.006,0,0.008-0.004,0.008-0.004l0,0c0.006-0.002,0.008-0.002,0.008-0.002l0,0c0.002-0.002,0.008-0.004,0.01-0.006l0,0
			c0,0,0.004,0,0.008-0.004l0,0c0.002,0,0.002,0,0.006-0.002l0,0c0.004,0,0.008-0.002,0.008-0.002l0,0
			c0.002-0.002,0.006-0.002,0.01-0.006l0,0c0,0,0.004,0,0.006,0l0,0c0.004,0,0.006-0.002,0.008-0.004l0,0c0.004,0,0.006,0,0.01,0
			l0,0c0.002,0,0.006-0.002,0.006-0.002l0.002-0.002c0.004,0,0.004,0,0.008-0.006l0,0c0,0,0.006,0,0.006-0.002l0,0
			c0.004,0,0.008,0,0.01,0l0,0c0.004,0,0.006,0,0.01-0.006l0,0c0,0,0.002,0,0.006,0l0,0c0.002-0.002,0.004-0.002,0.006-0.002l0,0
			c0.002,0,0.004,0,0.008-0.002l0,0c0,0,0.002-0.002,0.006-0.002l0,0c0,0,0.002,0,0.006,0l0,0c0.002,0,0.004,0,0.006-0.004l0,0
			c0,0,0.006-0.002,0.01-0.002l0,0c0,0,0.002,0,0.006-0.002l0,0c0,0,0.002,0,0.006,0l0,0c0.002,0,0.002-0.002,0.006-0.002l0,0
			c0.002,0,0.004,0,0.008,0l0,0c0.002,0,0.006,0,0.006-0.002l0,0c0.004,0,0.004,0,0.008,0l0,0c0.004-0.002,0.004-0.004,0.004-0.004
			l0,0c0.004,0,0.008,0,0.01,0l0,0c0.004,0,0.004-0.002,0.006-0.002l0,0c0.002,0,0.006,0,0.01,0l0,0h0.002l0,0
			c0.004-0.002,0.008-0.002,0.01-0.004l0,0c0,0,0.002,0,0.006,0l0,0c0.002,0,0.004,0,0.01,0l0,0c0.002,0,0.002,0,0.006,0l0,0
			c0.002,0,0.004,0,0.006,0l0,0c0.004,0,0.004,0,0.006-0.002l0,0c0.004,0,0.008,0,0.01-0.004l0,0c0.002,0,0.004,0,0.006,0l0,0
			c0.004,0,0.004,0,0.008,0l0,0c0.004,0,0.004-0.002,0.008-0.002l0,0c0,0,0.002,0,0.006,0l0,0c0.002,0,0.004,0,0.004,0h0.002
			c0.004,0,0.006,0,0.008,0l0,0c0,0,0.006,0,0.008,0l0,0c0.004,0,0.006,0,0.006,0l0,0c0.002,0,0.006,0,0.008,0l0,0
			c0.002,0,0.004,0,0.008,0l0,0h0.006l0,0c0.004,0,0.006,0,0.01,0l0,0c0,0,0.002,0,0.004,0l0,0c0.004,0,0.006,0,0.008,0l0,0
			c0.004,0,0.006,0,0.008,0l0,0c0.004,0,0.004,0,0.008,0l0,0c0.002,0,0.006,0,0.006,0l0,0c0.004,0,0.008,0,0.01,0l0,0h0.004l0,0
			c0.006,0,0.008,0,0.01,0l0,0c0.004,0,0.004,0,0.004,0h0.002c0.004,0,0.006,0.002,0.008,0.002l0,0c0.004,0,0.006,0,0.006,0l0,0
			c0.004,0,0.004,0,0.01,0.004l0,0c0,0,0.006,0,0.008,0.002l0,0c0.002,0,0.004,0,0.004,0h0.002c0.004,0,0.004,0,0.008,0l0,0
			c0.002,0,0.004,0,0.008,0l0,0c0,0,0.004,0,0.008,0l0,0c0,0,0.004,0.002,0.006,0.004l0,0c0.004,0,0.006,0,0.008,0l0,0
			c0.002,0,0.006,0,0.008,0l0,0c0,0,0.004,0.002,0.008,0.002l0,0c0.002,0,0.004,0,0.006,0.002l0,0
			c0.002,0.002,0.006,0.002,0.006,0.002l0,0c0.004,0,0.008,0.002,0.01,0.002l0,0c0.004,0,0.006,0,0.008,0l0,0l0.004,0.002h0.002
			c0.002,0,0.006,0,0.008,0.002l0,0l0.01,0.002l0,0v0.01H17.38c0,0,0,0.002,0,0.006l0,0l0,0l0,0l0,0l0,0v0.002l0,0l0,0l0,0v0.006
			l0,0v0.002l0,0c0,0.002,0,0.002,0,0.002l0,0l0,0l0,0v0.002l0,0v0.002l0,0h-0.002l0,0v0.002l0,0v0.002l0,0c0,0.002,0,0.002,0,0.002
			l0,0l-0.002,0.002l0,0v0.002l0,0v0.004l0,0l0,0l0,0c0,0.002,0,0.002,0,0.002v0.002v0.002l0,0l0,0l0,0l-0.002,0.002l0,0
			l-0.002,0.004l0,0v0.004l0,0l0,0l0,0l-0.002,0.002l0,0v0.002l0,0l0,0l0,0v0.004l0,0c-0.004,0-0.004,0-0.004,0.004l0,0l0,0l0,0
			v0.004l0,0l0,0h-0.002v0.002l0,0c0,0.004,0,0.004,0,0.004l0,0l0,0h-0.002l-0.002,0.004l0,0c0,0,0,0,0,0.004l0,0c0,0,0,0,0,0.002
			h-0.002v0.002l0,0v0.002l0,0v0.002h-0.002v0.004l0,0l0,0l0,0c0,0.002,0,0.002,0,0.002h-0.002v0.002l0,0c0,0,0,0.002-0.004,0.002
			l0,0v0.002l0,0v0.004l0,0h-0.002l0,0V21.9l0,0c0,0,0,0.004-0.004,0.004l0,0c0,0,0,0,0,0.004l0,0v0.002l0,0l-0.004,0.002l0,0l0,0
			l0,0v0.002l0,0c-0.002,0.004-0.002,0.004-0.002,0.004l0,0c0,0,0,0.002-0.002,0.002l0,0l-0.002,0.004l0,0l0,0l0,0c0,0,0,0-0.002,0
			l0,0v0.004l0,0c0,0,0,0.002-0.002,0.006l0,0l0,0l0,0l-0.002,0.002l0,0l0,0l0,0l-0.004,0.004l0,0v0.002l0,0
			c0,0-0.002,0-0.002,0.004l0,0c-0.002,0-0.002,0-0.002,0l0,0v0.002v0.002l0,0l0,0c0,0.004-0.002,0.004-0.002,0.004l0,0
			c0,0.002,0,0.002,0,0.002l0,0c0,0-0.004,0.002-0.006,0.002l0,0v0.002l0,0l0,0l0,0h-0.002l0,0c0,0,0,0.006-0.002,0.006l0,0l0,0l0,0
			c0,0.004-0.002,0.004-0.002,0.004l0,0l-0.002,0.002l0,0l-0.002,0.002l0,0l0,0v0.002L17.3,21.977l0,0v0.002l0,0
			c0,0,0,0.002-0.002,0.002l0,0l0,0l0,0c-0.002,0.002-0.002,0.004-0.002,0.004l0,0c0,0,0,0-0.004,0l0,0c0,0.004,0,0.004,0,0.004l0,0
			c0,0,0,0.002-0.002,0.002l0,0l-0.002,0.004l0,0l0,0l0,0h-0.002l0,0v0.004l0,0c-0.002,0-0.002,0-0.002,0l0,0
			c-0.002,0.002-0.002,0.004-0.004,0.004l0,0l0,0l0,0h-0.002l0,0c0,0,0,0.002-0.002,0.004l0,0v0.002l0,0l-0.002,0.004l0,0
			c-0.002,0-0.002,0-0.002,0l0,0l0,0l0,0c-0.002,0-0.002,0.002-0.002,0.002v0.002c-0.002,0-0.002,0-0.002,0.002l0,0h-0.002l0,0
			l-0.004,0.002l0,0v0.002l0,0v0.002l0,0l0,0h-0.002c-0.004,0-0.004,0-0.004,0v0.002c0,0.002,0,0.002-0.002,0.002l0,0v0.002l0,0
			h-0.002l0,0v0.002l0,0h-0.002l0,0c0,0,0,0.002,0,0.004l0,0h-0.004l0,0c0,0,0,0-0.002,0.002l0,0l0,0l0,0h-0.002l0,0l0,0l0,0
			c-0.002,0-0.004,0-0.004,0l0,0l-0.002,0.006l-0.004,0.002l0,0c-0.002,0-0.002,0-0.004,0l0,0c-0.006,0-0.006,0-0.006,0l0,0
			c-0.004,0.002-0.004,0.002-0.006,0.002l0,0c-0.002,0-0.004,0-0.008,0l0,0c0,0-0.002,0.002-0.004,0.006l0,0
			c-0.002,0-0.004,0-0.006,0l0,0c-0.002,0-0.004,0-0.006,0l0,0c-0.002,0-0.006,0.004-0.006,0.004l0,0c-0.002,0-0.004,0-0.008,0l0,0
			c0,0-0.002,0-0.004,0l0,0h-0.006l0,0c-0.002,0-0.004,0.002-0.004,0.002h-0.002c0,0-0.004,0-0.008,0l0,0c0,0-0.002,0-0.004,0l0,0
			c-0.002,0-0.004,0.002-0.004,0.002h-0.002c-0.002,0-0.002,0-0.004,0l0,0c-0.004,0-0.004,0-0.006,0l0,0
			c-0.006,0-0.006,0-0.006,0.004l0,0c-0.004,0-0.004,0-0.008,0.002l0,0H17.12l0,0c-0.002,0-0.006,0-0.008,0l0,0h-0.004l0,0
			c0,0-0.004,0-0.008,0.002l0,0h-0.004l0,0c-0.004,0-0.004,0-0.006,0l0,0c-0.002,0-0.006,0-0.006,0l0,0c-0.004,0-0.006,0-0.006,0
			l0,0c-0.004,0-0.006,0-0.006,0l0,0c-0.002,0-0.004,0-0.006,0l0,0h-0.004H17.06c-0.002,0-0.004,0-0.006,0l0,0
			c-0.004,0-0.004,0.004-0.006,0.004l0,0c-0.002,0-0.002,0-0.006,0l0,0c-0.004,0-0.004,0-0.004,0l0,0c-0.002,0-0.004,0-0.008,0l0,0
			c-0.002,0-0.004,0-0.006,0l0,0c0,0-0.004,0.004-0.006,0.004l0,0c-0.002,0-0.004,0-0.008,0l0,0c0,0,0,0-0.004,0l0,0
			c-0.004,0-0.004,0-0.004,0l0,0c-0.004,0-0.004,0-0.008,0l0,0c-0.002,0-0.002,0-0.006,0l0,0c-0.002,0-0.004,0-0.008,0l0,0h-0.002
			h-0.004h-0.002H16.97c-0.002,0-0.002,0-0.002,0.004l0,0c-0.004,0-0.006,0-0.01,0l0,0c-0.002,0-0.002,0-0.004,0l0,0
			c-0.002,0-0.006,0-0.008,0l0,0c0,0,0,0-0.006,0l0,0h-0.004h-0.002c0,0-0.002,0-0.004,0l0,0c-0.002,0-0.004,0-0.008,0l0,0
			c0,0-0.002,0-0.004,0l0,0h-0.006l0,0c-0.002,0-0.002,0-0.006,0l0,0c-0.002,0-0.006,0-0.006,0l0,0c-0.002,0-0.006,0-0.006,0l0,0
			c-0.002,0-0.004,0-0.004,0l0,0c-0.004,0-0.006,0-0.01,0l0,0c0,0-0.002,0-0.006,0l0,0c0,0-0.002,0-0.006,0l0,0h-0.004l0,0
			c-0.004,0-0.004,0-0.006,0l0,0c-0.004,0-0.004,0-0.004,0h-0.002c-0.002,0-0.006,0-0.006,0l0,0c-0.002,0-0.002,0-0.006,0l0,0
			c-0.002,0-0.006,0-0.008,0l0,0h-0.004l0,0c-0.002,0-0.006,0-0.006,0l0,0c-0.002,0-0.002,0-0.002,0h-0.002
			c-0.004,0-0.006,0-0.008,0l0,0c0,0-0.002,0-0.006,0l0,0c0,0-0.002,0-0.008,0l0,0c0,0,0,0-0.004,0l0,0c0,0-0.004-0.004-0.006-0.004
			l0,0c-0.002,0-0.002,0-0.006,0l0,0c-0.002,0-0.002,0-0.004,0l0,0c0,0-0.004,0-0.006,0l0,0c-0.002,0-0.002,0-0.006,0l0,0
			c0,0,0,0-0.006,0l0,0c-0.002,0-0.002,0-0.006,0l0,0c-0.002,0-0.002,0-0.004,0l0,0c-0.004,0-0.006,0-0.006,0l0,0h-0.004l0,0
			c-0.006,0-0.006,0-0.008,0l0,0c-0.002,0-0.002,0-0.006,0l0,0c-0.002-0.004-0.004-0.004-0.006-0.004l0,0H16.72h-0.002
			c0,0-0.002,0-0.006,0l0,0c0,0,0,0-0.004,0l0,0c-0.002,0-0.002,0-0.006,0l0,0c0,0-0.002,0-0.006,0l0,0h-0.004l0,0
			c-0.002-0.004-0.004-0.004-0.004-0.004l0,0c-0.004,0-0.006,0-0.006,0l0,0c-0.002,0-0.004,0-0.004,0l0,0c-0.004,0-0.006,0-0.008,0
			l0,0c-0.002,0-0.002,0-0.002,0h-0.002c-0.002,0-0.002,0-0.006,0l0,0c-0.004,0-0.004,0-0.006,0l0,0c0,0-0.004,0-0.008,0l0,0
			c0,0,0,0-0.002,0l0,0h-0.004l0,0c-0.002,0-0.006,0-0.006,0l0,0c-0.004,0-0.004,0-0.006,0l0,0c-0.002,0-0.002,0-0.006,0l0,0
			c0,0,0-0.002-0.006-0.002l0,0h-0.004l0,0c-0.002,0-0.004,0-0.004,0l0,0c-0.002,0-0.002,0-0.006,0l0,0c-0.002,0-0.002,0-0.004,0
			l0,0c0,0-0.004,0-0.006,0l0,0c0,0-0.002,0-0.004-0.002l0,0c-0.002,0-0.004,0-0.006,0l0,0l-0.004-0.004l0,0h-0.004l0,0
			c-0.002,0-0.004,0-0.004,0l0,0c-0.006,0-0.006,0-0.006,0l0,0h-0.004l0,0c-0.002,0-0.006,0-0.006,0l0,0c0,0-0.002,0-0.006-0.002
			l0,0h-0.004l0,0c0,0-0.002,0-0.004,0l0,0c0,0-0.004,0-0.006,0l0,0c0,0,0,0-0.004,0l0,0c0,0,0,0-0.004,0l0,0c0,0,0,0-0.002,0
			L16.501,22.057z M13.181,32.494c0.018-0.047,0.098-0.047,0.109,0.006c0.307,1.008,0.893,1.945,1.707,2.615
			c0.664,0.551,1.48,0.922,2.416,1.014c-0.189-0.111-0.375-0.271-0.531-0.471c-0.199-0.258-0.342-0.576-0.359-0.93
			c-0.021-0.354,0.086-0.74,0.383-1.137c0.361-0.479,1.01-0.969,2.064-1.42c0.15-0.076,0.479-0.246,0.779-0.516
			c0.301-0.266,0.572-0.633,0.615-1.115c0.002-0.055,0.092-0.064,0.109-0.012c0.076,0.227,0.096,0.465,0.074,0.711
			c-0.02,0.203-0.066,0.412-0.129,0.621c0.549-0.301,0.953-0.828,1.24-1.404c0.52-1.043,0.674-2.252,0.676-2.627
			c0.002-0.047,0.059-0.07,0.096-0.043c0.076,0.066,0.152,0.15,0.219,0.256c0.012,0.021,0.023,0.043,0.037,0.064
			c0.029-0.697-0.037-1.297-0.209-1.857c-0.188-0.631-0.502-1.213-0.93-1.83c-0.025-0.035,0-0.082,0.043-0.082
			c0.063-0.006,0.133,0.004,0.205,0.039c0.029,0.008,0.061,0.025,0.09,0.041c-0.318-0.789-0.74-1.271-1.254-1.863
			c-0.057-0.064-0.109-0.131-0.156-0.184c-0.008-0.008-0.016-0.035-0.014-0.045c0.041-0.172,0.066-0.262,0.127-0.338
			c0.051-0.07,0.123-0.121,0.252-0.207c-0.174-0.176-0.568-0.314-1.008-0.41c-0.584-0.123-1.236-0.17-1.566-0.125
			c0.162,0.271,0.23,0.555,0.238,0.814c0.012,0.367-0.096,0.699-0.227,0.928c-0.029,0.047-0.117,0.018-0.107-0.035
			c0.027-0.156,0.08-0.461,0.064-0.785c-0.016-0.318-0.096-0.658-0.338-0.912c-0.986-0.105-2.4,0.438-3.289,0.781
			c-0.066,0.027-0.096,0.039-0.123,0.049c0.031,0.178,0.014,0.342-0.006,0.504c-0.035,0.301-0.068,0.59,0.326,0.898
			c0.207-0.408,0.523-0.453,0.832-0.318c0.209,0.088,0.412,0.26,0.572,0.449c0.16,0.191,0.277,0.4,0.318,0.563
			c0.039,0.156,0.006,0.275-0.125,0.314c-0.01,0.008-0.023,0.014-0.041,0.02c-0.076,0.021-0.242,0.021-0.408,0
			c-0.17-0.025-0.342-0.078-0.438-0.166c-0.033-0.033-0.057-0.064-0.068-0.105c-0.01-0.023-0.02-0.041-0.029-0.057
			c-0.01,0.031-0.014,0.072-0.014,0.105c0.01,0.164,0.043,0.328,0.104,0.477c0.047,0.113,0.113,0.217,0.197,0.291
			c0.031-0.01,0.068-0.023,0.109-0.037c0.15-0.053,0.35-0.125,0.564-0.152l0.008-0.002c0.141,0,0.291,0.004,0.445,0.01
			c0.496,0.016,1.016,0.033,1.324-0.111c0.285-0.139,0.387-0.426,0.098-1.025c-0.025-0.051,0.064-0.1,0.098-0.055
			c0.545,0.693,0.316,1.117-0.004,1.357c-0.15,0.115-0.322,0.186-0.439,0.229c0.125,0.076,0.193,0.186,0.223,0.307
			c0.027,0.123,0.008,0.262-0.043,0.402c-0.023,0.068-0.057,0.143-0.096,0.211c-0.004,0.004-0.023,0.021-0.029,0.021
			c-0.713,0.254-2.064,0.836-3.07,1.582c-0.607,0.447-1.086,0.951-1.23,1.473c0.143-0.086,0.289-0.148,0.447-0.193
			c0.201-0.055,0.426-0.074,0.686-0.059c0.055,0.004,0.068,0.092,0.018,0.109c-0.148,0.047-0.297,0.104-0.443,0.174
			c-0.605,0.287-1.191,0.766-1.545,1.412c-0.354,0.645-0.479,1.455-0.17,2.4c0.047,0.15,0.111,0.303,0.182,0.463
			c0.072-0.182,0.127-0.373,0.182-0.564C13.067,32.836,13.116,32.662,13.181,32.494z"/>
		<path fill-rule="evenodd" clip-rule="evenodd" fill="#FFFFFF" d="M15.405,24.016c-0.213,0.025-0.414,0.09-0.607,0.15
			c-0.5,0.16-0.926,0.291-1.254-0.318c-0.004-0.006,0.01-0.016,0.012-0.01c0.486,0.32,1.008,0.156,1.48,0.01
			c0.402-0.127,0.764-0.24,1.029-0.023c0.006,0.002,0.006,0.008,0.002,0.014c-0.014,0.01-0.098,0.031-0.209,0.055
			c-0.158,0.033-0.367,0.078-0.449,0.123H15.405"/>
		<path fill-rule="evenodd" clip-rule="evenodd" fill="#FFFFFF" d="M11.685,25.539l0.02-0.244c-0.053,0.063-0.104,0.129-0.15,0.197
			c-0.012,0.016-0.025,0.035-0.039,0.057C11.573,25.549,11.63,25.545,11.685,25.539 M8.993,26.215L8.993,26.215
			C9.13,26.326,9.261,26.434,8.993,26.215z M8.329,26.633l0.01,0.17c0.049-0.029,0.092-0.059,0.139-0.088
			c0.008-0.004,0.014-0.008,0.021-0.014C8.438,26.676,8.382,26.656,8.329,26.633z M8.257,25.645l0.016,0.203
			c0.057-0.023,0.111-0.047,0.17-0.072C8.382,25.729,8.321,25.684,8.257,25.645z M9.181,25.633c0.002,0.006,0.01,0.01,0.012,0.016
			C9.878,26.205,9.144,25.605,9.181,25.633z M10.886,35.506l0.748-9.348c-0.205,0.006-0.408,0-0.605-0.01
			c-0.006,0-0.008,0-0.01-0.004c-0.217-0.006-0.379-0.27-0.287-0.463c0.098-0.195,0.207-0.393,0.33-0.576
			c0.133-0.193,0.287-0.373,0.465-0.52c0.08-0.063,0.162-0.104,0.246-0.129l0.012-0.168l-3.625-0.016l0.051,0.691
			c0.35,0.162,0.656,0.41,0.943,0.646H9.149c0.014,0.008,0.021,0.016,0.029,0.025l0.002-0.004l-0.002,0.004
			c0.004,0.002,0.012,0.006,0.014,0.012c0.162,0.145,0.143,0.408-0.035,0.49c-0.016,0.006-0.033,0.016-0.051,0.02
			c-0.037,0.021-0.072,0.037-0.113,0.057c-0.043-0.035-0.094-0.076-0.158-0.129l0,0c0.014,0.014,0.086,0.072,0.158,0.129
			c-0.027,0.014-0.057,0.025-0.084,0.037c0.006,0.004,0.01,0.004,0.016,0.01c0.057,0.021,0.109,0.047,0.145,0.064
			c0.066,0.031,0.109,0.053,0.141,0.068h0.004c0.205,0.104,0.254,0.398,0.084,0.521c-0.09,0.068-0.186,0.133-0.277,0.199
			c0.188,0.07,0.283,0.322,0.168,0.477c-0.094,0.125-0.295,0.375-0.516,0.564c-0.045,0.041-0.092,0.074-0.137,0.107
			c-0.031,0.023-0.059,0.043-0.086,0.059l0.002,0.031l0,0l0,0v0.008l0.012,0.152c0.115,2.082,0.355,4.867,0.533,7.145
			c0.094-0.008,0.207,0,0.334,0.029C9.776,35.787,10.511,35.453,10.886,35.506z"/>
		<path fill-rule="evenodd" clip-rule="evenodd" fill="#FFFFFF" d="M11.978,13.098c-0.617-0.135-1.379-0.174-2.113-0.148
			s-1.49,0.117-2.1,0.295c-0.902-0.539-1.02-1.578-0.09-2.029c0.691-0.141,1.426-0.248,2.119-0.275
			c0.695-0.021,1.436,0.033,2.133,0.127C12.886,11.447,12.845,12.494,11.978,13.098"/>
		<path fill-rule="evenodd" clip-rule="evenodd" fill="#FFFFFF" d="M18.099,12.99c-0.719,0-1.486,0.088-2.084,0.271
			c0,0.025,0.002,0.518,0.002,0.998c0.695-0.021,1.393-0.031,2.082-0.031s1.385,0.01,2.08,0.031c0-0.48,0-0.973,0-0.998
			C19.583,13.078,18.817,12.99,18.099,12.99"/>
		<path fill-rule="evenodd" clip-rule="evenodd" fill="#FFFFFF" d="M9.878,13.377c-0.719,0.023-1.48,0.139-2.07,0.346
			c0,0.047,0.023,0.662,0.049,1.254c1.373-0.217,2.756-0.379,4.141-0.498c-0.012-0.43-0.025-0.869-0.025-0.904
			C11.366,13.412,10.599,13.352,9.878,13.377"/>
		<path fill-rule="evenodd" clip-rule="evenodd" fill="#FFFFFF" d="M24.218,13.098c0.619-0.135,1.377-0.174,2.115-0.148
			c0.734,0.025,1.49,0.117,2.1,0.295c0.904-0.539,1.018-1.578,0.088-2.029c-0.689-0.141-1.422-0.248-2.117-0.275
			c-0.697-0.021-1.434,0.033-2.133,0.127C23.31,11.447,23.354,12.494,24.218,13.098"/>
		<path fill-rule="evenodd" clip-rule="evenodd" fill="#FFFFFF" d="M26.315,13.377c0.721,0.023,1.482,0.139,2.072,0.346
			c0,0.047-0.023,0.635-0.045,1.207c-1.373-0.215-2.758-0.377-4.145-0.496c0.016-0.416,0.027-0.824,0.029-0.859
			C24.829,13.412,25.601,13.352,26.315,13.377"/>
		<path fill-rule="evenodd" clip-rule="evenodd" fill="#FFFFFF" d="M18.099,48.707L18.099,48.707L18.099,48.707l-0.023-0.035
			c-0.666-1.043-0.74-2.031-0.813-2.969c0-0.031,0-0.205-0.006-0.434c0.564-0.004,1.123-0.004,1.68,0.006
			c0,0.229-0.002,0.396-0.006,0.428c-0.068,0.938-0.145,1.926-0.811,2.969L18.099,48.707z"/>
		<path fill-rule="evenodd" clip-rule="evenodd" fill="#FFFFFF" d="M11.042,49.111L11.042,49.111L11.042,49.111l-0.021-0.031
			c-0.703-1.02-0.813-2.006-0.914-2.941c-0.004-0.029-0.012-0.193-0.018-0.412c0.555-0.068,1.115-0.129,1.67-0.178
			c0.01,0.277,0.016,0.498,0.014,0.527c-0.037,0.943-0.078,1.934-0.709,3L11.042,49.111z"/>
		<path fill-rule="evenodd" clip-rule="evenodd" fill="#FFFFFF" d="M25.153,49.111L25.153,49.111L25.153,49.111l-0.021-0.035
			c-0.631-1.066-0.672-2.057-0.709-3c0-0.025,0.006-0.234,0.014-0.502c0.561,0.059,1.119,0.117,1.67,0.182
			c-0.006,0.205-0.016,0.357-0.016,0.383c-0.105,0.936-0.211,1.922-0.916,2.941L25.153,49.111z"/>
	</g>
</g>
<g id="Layer_5">
</g>
<g id="cores">
</g>
</svg>
