<?xml version="1.0" encoding="utf-8"?>
<!-- Generator: Adobe Illustrator 16.0.0, SVG Export Plug-In . SVG Version: 6.00 Build 0)  -->
<!DOCTYPE svg PUBLIC "-//W3C//DTD SVG 1.1//EN" "http://www.w3.org/Graphics/SVG/1.1/DTD/svg11.dtd">
<svg version="1.1" xmlns="http://www.w3.org/2000/svg" xmlns:xlink="http://www.w3.org/1999/xlink" x="0px" y="0px" width="30px"
	 height="26px" viewBox="0 0 30 26" enable-background="new 0 0 30 26" xml:space="preserve">
<g id="projeto">
	<path fill="#5E5F5F" d="M28.22,5.058h-1.074V3.769c0-0.254-0.156-0.48-0.395-0.568c-5.191-1.945-8.879-2.344-10.963-1.186
		c-0.338,0.188-0.592,0.396-0.787,0.602c-0.195-0.205-0.451-0.414-0.787-0.602C12.13,0.856,8.439,1.255,3.25,3.2
		C3.011,3.288,2.855,3.515,2.855,3.769v1.289H1.783c-0.336,0-0.607,0.273-0.607,0.609v17.189c0,0.334,0.271,0.607,0.607,0.607h10.91
		v0.561c0,0.336,0.271,0.607,0.607,0.607h3.402c0.336,0,0.607-0.271,0.607-0.607v-0.561h10.91c0.334,0,0.605-0.273,0.605-0.607
		V5.667C28.826,5.331,28.554,5.058,28.22,5.058L28.22,5.058z M15.607,3.856c0.051-0.127,0.24-0.506,0.838-0.816
		c0.984-0.51,3.514-1.023,9.486,1.15v15.455c-4.76-1.684-8.17-1.982-10.143-0.887c-0.063,0.035-0.123,0.07-0.182,0.107V3.856z
		 M4.068,4.19c5.975-2.174,8.506-1.66,9.49-1.15c0.596,0.311,0.787,0.689,0.836,0.816v15.01c-0.057-0.037-0.117-0.072-0.18-0.107
		c-1.973-1.096-5.385-0.795-10.146,0.889V4.19z M12.693,22.142v0.105H2.388V6.272h0.467v14.24c0,0.334,0.271,0.605,0.607,0.605
		c0.076,0,0.148-0.016,0.219-0.041l-0.002,0.002c6.254-2.342,8.873-1.816,9.879-1.295c0.352,0.184,0.561,0.391,0.684,0.555
		C13.341,20.599,12.693,21.308,12.693,22.142L12.693,22.142z M16.095,23.417h-2.188v-1.275c0-0.328,0.449-0.695,1.094-0.695
		s1.094,0.367,1.094,0.695V23.417z M27.613,22.247H17.31v-0.105c0-0.834-0.65-1.543-1.553-1.803
		c0.125-0.164,0.334-0.371,0.688-0.555c1.004-0.521,3.623-1.047,9.873,1.293c0.002,0.002,0.123,0.041,0.223,0.041
		c0.334,0,0.605-0.271,0.605-0.605V6.272h0.467V22.247z M27.613,22.247"/>
</g>
<g id="Layer_5">
</g>
<g id="cores">
</g>
</svg>
